<svg width="140" height="140" viewBox="0 0 140 140" fill="none" xmlns="http://www.w3.org/2000/svg">
<path d="M70 42C97.3 42 119 35.7 119 28C119 20.3 97.3 14 70 14C42.7 14 21 20.3 21 28C21 35.7 42.7 42 70 42ZM70 105C42.7 105 21 98.7 21 91V112C21 119.7 42.7 126 70 126C97.3 126 119 119.7 119 112V91C119 98.7 97.3 105 70 105ZM70 77C42.7 77 21 70.7 21 63V84C21 91.7 42.7 98 70 98C97.3 98 119 91.7 119 84V63C119 70.7 97.3 77 70 77ZM70 49C42.7 49 21 42.7 21 35V56C21 63.7 42.7 70 70 70C97.3 70 119 63.7 119 56V35C119 42.7 97.3 49 70 49Z" fill="#F1F3F4"/>
</svg>
