<svg width="100" height="112" viewBox="0 0 100 112" fill="none" xmlns="http://www.w3.org/2000/svg">
<g clip-path="url(#clip0)">
<path d="M98.1138 51.6359L54.4642 8.84844C53.2559 7.66532 51.6176 7.00073 49.9095 7.00073C48.2014 7.00073 46.5632 7.66532 45.3548 8.84844L36.279 17.7363L47.779 29.0063C53.8191 27.0069 59.5379 32.6747 57.4642 38.5613L68.549 49.4244C76.1897 46.8431 82.2053 56.2056 76.4665 61.8253C70.5535 67.62 60.7946 61.1975 63.9665 53.6572L53.6205 43.5313V70.1859C59.2678 72.9291 58.5892 79.3406 55.6473 82.2172C54.2099 83.625 52.2609 84.4158 50.2287 84.4158C48.1966 84.4158 46.2476 83.625 44.8102 82.2172C40.8883 78.3672 42.3392 71.9556 47.3214 69.9672V43.0609C42.6785 41.1994 41.8303 36.3366 43.1606 33.2172L31.8236 22.0938L1.88609 51.4369C0.678279 52.6208 -0.000244141 54.2264 -0.000244141 55.9005C-0.000244141 57.5746 0.678279 59.1802 1.88609 60.3641L45.549 103.152C46.757 104.335 48.3949 104.999 50.1026 104.999C51.8104 104.999 53.4482 104.335 54.6562 103.152L98.1138 60.5631C99.3216 59.3792 100 57.7737 100 56.0995C100 54.4254 99.3216 52.8198 98.1138 51.6359Z" fill="#FB4F28"/>
</g>
<defs>
<clipPath id="clip0">
<rect width="100" height="112" fill="white"/>
</clipPath>
</defs>
</svg>
