<svg width="100" height="100" viewBox="0 0 100 100" fill="none" xmlns="http://www.w3.org/2000/svg">
<path d="M66.6667 66.6666C75.8714 66.6666 83.3333 59.2047 83.3333 49.9999C83.3333 40.7952 75.8714 33.3333 66.6667 33.3333C57.4619 33.3333 50 40.7952 50 49.9999C50 59.2047 57.4619 66.6666 66.6667 66.6666Z" fill="#19BCFE"/>
<path fill-rule="evenodd" clip-rule="evenodd" d="M33.3332 100C37.7534 100 41.9927 98.2441 45.1183 95.1185C48.2439 91.9929 49.9998 87.7537 49.9998 83.3334V66.6667H33.3332C28.9129 66.6667 24.6737 68.4227 21.5481 71.5483C18.4225 74.6739 16.6665 78.9131 16.6665 83.3334C16.6665 87.7537 18.4225 91.9929 21.5481 95.1185C24.6737 98.2441 28.9129 100 33.3332 100Z" fill="#09CF83"/>
<path fill-rule="evenodd" clip-rule="evenodd" d="M33.3332 66.6666H49.9998V33.3333H33.3332C28.9129 33.3333 24.6737 35.0892 21.5481 38.2148C18.4225 41.3404 16.6665 45.5796 16.6665 49.9999C16.6665 54.4202 18.4225 58.6594 21.5481 61.785C24.6737 64.9106 28.9129 66.6666 33.3332 66.6666Z" fill="#A259FF"/>
<path fill-rule="evenodd" clip-rule="evenodd" d="M33.3332 33.3333H49.9998V0H33.3332C28.9129 0 24.6737 1.75595 21.5481 4.88155C18.4225 8.00716 16.6665 12.2464 16.6665 16.6667C16.6665 21.0869 18.4225 25.3262 21.5481 28.4518C24.6737 31.5774 28.9129 33.3333 33.3332 33.3333Z" fill="#F24E1E"/>
<path fill-rule="evenodd" clip-rule="evenodd" d="M66.6667 33.3333H50V0H66.6667C71.0869 0 75.3262 1.75595 78.4518 4.88155C81.5774 8.00716 83.3333 12.2464 83.3333 16.6667C83.3333 21.0869 81.5774 25.3262 78.4518 28.4518C75.3262 31.5774 71.0869 33.3333 66.6667 33.3333Z" fill="#FF7262"/>
</svg>
