<svg width="110" height="140" viewBox="0 0 110 140" fill="none" xmlns="http://www.w3.org/2000/svg">
<g clip-path="url(#clip0)">
<path d="M49.2937 0H72.1739V104.867C60.4542 107.084 51.8266 107.956 42.4917 107.956C14.5467 107.927 0 95.4426 0 71.4653C0 48.3631 15.4301 33.3698 39.3409 33.3698C43.0513 33.3698 45.8779 33.6618 49.2937 34.5366V0ZM50.0955 53.4349C47.4158 52.5597 45.2075 52.2681 42.3805 52.2681C30.8082 52.2681 24.1238 59.3269 24.1238 71.6976C24.1238 83.7419 30.514 90.3923 42.2336 90.3923C44.7656 90.3923 46.827 90.2497 50.0955 89.8121V53.4349Z" fill="#2BA977"/>
<path d="M109.59 36.1853V88.6909C109.59 106.773 108.235 115.468 104.26 122.965C100.549 130.173 95.6613 134.717 85.5611 139.737L64.3301 129.732C74.4303 125.038 79.3182 120.891 82.4399 114.561C85.708 108.089 86.7387 100.592 86.7387 80.8732V36.1857H109.59V36.1853Z" fill="#2BA977"/>
<path d="M84.4329 0H107.313V23.2482H84.4329V0Z" fill="#2BA977"/>
</g>
<defs>
<clipPath id="clip0">
<rect width="109.939" height="140" fill="white"/>
</clipPath>
</defs>
</svg>
