<?xml version="1.0" encoding="UTF-8" standalone="no"?>
<svg
   xmlns:dc="http://purl.org/dc/elements/1.1/"
   xmlns:cc="http://creativecommons.org/ns#"
   xmlns:rdf="http://www.w3.org/1999/02/22-rdf-syntax-ns#"
   xmlns:svg="http://www.w3.org/2000/svg"
   xmlns="http://www.w3.org/2000/svg"
   xmlns:sodipodi="http://sodipodi.sourceforge.net/DTD/sodipodi-0.dtd"
   xmlns:inkscape="http://www.inkscape.org/namespaces/inkscape"
   version="1.1"
   id="svg10"
   width="400"
   height="152"
   viewBox="0 0 400 152"
   sodipodi:docname="LOGO-ICBR_mobile.svg"
   inkscape:version="1.0 (4035a4fb49, 2020-05-01)">
  <metadata
     id="metadata16">
    <rdf:RDF>
      <cc:Work
         rdf:about="">
        <dc:format>image/svg+xml</dc:format>
        <dc:type
           rdf:resource="http://purl.org/dc/dcmitype/StillImage" />
        <dc:title></dc:title>
      </cc:Work>
    </rdf:RDF>
  </metadata>
  <defs
     id="defs14">
    <clipPath
       clipPathUnits="userSpaceOnUse"
       id="clipPath75">
      <rect
         style="opacity:1;fill:#00a650;fill-opacity:1;stroke:#231f20;stroke-width:0.29997978;stroke-miterlimit:4;stroke-dasharray:none;stroke-dashoffset:0;stroke-opacity:1"
         id="rect77"
         width="55.679993"
         height="110.5"
         x="673.32001"
         y="250" />
    </clipPath>
    <clipPath
       clipPathUnits="userSpaceOnUse"
       id="clipPath96">
      <rect
         style="opacity:1;fill:#00a650;fill-opacity:1;stroke:#231f20;stroke-width:0.40000001;stroke-miterlimit:4;stroke-dasharray:none;stroke-dashoffset:0;stroke-opacity:1"
         id="rect98"
         width="58.5"
         height="97"
         x="515"
         y="273.5" />
    </clipPath>
    <clipPath
       id="clipPath75-5"
       clipPathUnits="userSpaceOnUse">
      <rect
         y="250"
         x="673.32001"
         height="110.5"
         width="55.679993"
         id="rect77-3"
         style="opacity:1;fill:#00a650;fill-opacity:1;stroke:#231f20;stroke-width:0.29998;stroke-miterlimit:4;stroke-dasharray:none;stroke-dashoffset:0;stroke-opacity:1" />
    </clipPath>
    <clipPath
       id="clipPath96-2"
       clipPathUnits="userSpaceOnUse">
      <rect
         y="273.5"
         x="515"
         height="97"
         width="58.5"
         id="rect98-2"
         style="opacity:1;fill:#00a650;fill-opacity:1;stroke:#231f20;stroke-width:0.4;stroke-miterlimit:4;stroke-dasharray:none;stroke-dashoffset:0;stroke-opacity:1" />
    </clipPath>
    <clipPath
       id="clipPath75-6"
       clipPathUnits="userSpaceOnUse">
      <rect
         y="250"
         x="673.32001"
         height="110.5"
         width="55.679993"
         id="rect77-0"
         style="opacity:1;fill:#00a650;fill-opacity:1;stroke:#231f20;stroke-width:0.29998;stroke-miterlimit:4;stroke-dasharray:none;stroke-dashoffset:0;stroke-opacity:1" />
    </clipPath>
    <clipPath
       id="clipPath75-1"
       clipPathUnits="userSpaceOnUse">
      <rect
         y="250"
         x="673.32001"
         height="110.5"
         width="55.679993"
         id="rect77-5"
         style="opacity:1;fill:#00a650;fill-opacity:1;stroke:#231f20;stroke-width:0.29998;stroke-miterlimit:4;stroke-dasharray:none;stroke-dashoffset:0;stroke-opacity:1" />
    </clipPath>
  </defs>
  <sodipodi:namedview
     pagecolor="#ffffff"
     bordercolor="#666666"
     borderopacity="1"
     objecttolerance="10"
     gridtolerance="10"
     guidetolerance="10"
     inkscape:pageopacity="0"
     inkscape:pageshadow="2"
     inkscape:window-width="1920"
     inkscape:window-height="1017"
     id="namedview12"
     showgrid="false"
     inkscape:pagecheckerboard="true"
     inkscape:snap-nodes="false"
     inkscape:zoom="0.70710678"
     inkscape:cx="400.60629"
     inkscape:cy="418.14611"
     inkscape:window-x="-8"
     inkscape:window-y="-8"
     inkscape:window-maximized="1"
     inkscape:current-layer="svg10"
     inkscape:document-rotation="0" />
  <g
     transform="translate(-67,507.0005)"
     id="g169" />
  <g
     transform="translate(-67,507.0005)"
     id="g171" />
  <g
     transform="translate(-67,507.0005)"
     id="g173" />
  <g
     transform="translate(-67,507.0005)"
     id="g175" />
  <g
     transform="translate(-67,507.0005)"
     id="g177" />
  <g
     transform="translate(-67,507.0005)"
     id="g179" />
  <g
     transform="translate(-67,507.0005)"
     id="g181" />
  <g
     transform="translate(-67,507.0005)"
     id="g183" />
  <g
     transform="translate(-67,507.0005)"
     id="g185" />
  <g
     transform="translate(-67,507.0005)"
     id="g187" />
  <g
     transform="translate(-67,507.0005)"
     id="g189" />
  <g
     transform="translate(-67,507.0005)"
     id="g191" />
  <g
     transform="translate(-67,507.0005)"
     id="g193" />
  <g
     transform="translate(-67,507.0005)"
     id="g195" />
  <g
     transform="translate(-67,507.0005)"
     id="g197" />
  <g
     inkscape:export-ydpi="79.929001"
     inkscape:export-xdpi="79.929001"
     inkscape:export-filename="C:\Users\ivanc\Documents\PAGINAS_WEB\PORTFOLIO\src\static\Logo_ICBR2_v2.png"
     transform="matrix(0.92642663,0,0,0.92642663,620.8354,-1634.1006)"
     id="g1241">
    <circle
       style="fill:#ecc313;fill-opacity:1;stroke:none;stroke-width:18.6363;stroke-linecap:square;stroke-linejoin:round;stroke-miterlimit:4;stroke-dasharray:none;stroke-dashoffset:0;stroke-opacity:1;paint-order:markers fill stroke"
       id="circle1155"
       cx="-32.89473"
       cy="1975.8632"
       r="58.86272"
       inkscape:export-filename="C:\Users\ivanc\Documents\PAGINAS_WEB\PORTFOLIO\src\static\Logo_ICBR2.png"
       inkscape:export-xdpi="79.929001"
       inkscape:export-ydpi="79.929001" />
    <path
       inkscape:connector-curvature="0"
       id="path1157"
       d="m 677.99603,365.91379 c -0.95021,-1.53748 0.35135,-2.52947 1.63484,-1.24598 0.71818,0.71818 0.73543,1.27752 0.0524,1.69964 -0.55992,0.34605 -1.31919,0.1419 -1.68727,-0.45366 z m -43.21896,-19.61206 c -2.16292,-0.87276 -1.38832,-5.50861 3.21239,-19.22557 l 4.46238,-13.30457 -2.9983,-2.52291 c -4.19782,-3.53223 -5.92647,-7.37366 -5.92647,-13.16991 0,-5.82904 1.28054,-9.68454 4.31661,-12.99668 2.70021,-2.94573 9.28405,-6.06678 12.85977,-6.09612 2.55916,-0.021 2.88766,-0.668 7.5,-14.77196 4.50653,-13.78037 4.98796,-14.75 7.32362,-14.75 3.81752,0 3.58939,3.29586 -1.25832,18.17906 l -4.29264,13.17907 3.26929,2.60863 c 4.47418,3.57003 6.56738,8.04281 6.56738,14.03324 0,10.18076 -7.92782,18.5 -17.62958,18.5 h -3.21367 l -4.32799,13.25 c -4.22137,12.92358 -6.41195,17.8313 -7.88752,17.67105 -0.39982,-0.0434 -1.28945,-0.30592 -1.97695,-0.58333 z m -31.25,-28.40201 c -18.42413,-12.3127 -22,-15.54796 -22,-19.90443 0,-5.90211 2.00232,-7.88643 20.31515,-20.1326 18.34377,-12.26686 21.8568,-13.70407 22.49718,-9.20378 0.2629,1.84753 -2.54624,4.10489 -17.75,14.26345 -13.08305,8.74159 -18.06233,12.60444 -18.06233,14.01247 0,2.37009 2.4776,4.35109 21,16.79087 12.20312,8.19571 14.5,10.13432 14.5,12.23831 0,4.66099 -3.54555,3.26624 -20.5,-8.06429 z m 74.30947,9.42837 c -0.34527,-0.89976 -0.17773,-2.36226 0.37231,-3.25 0.55004,-0.88775 8.0676,-6.37609 16.70568,-12.19632 18.61321,-12.54136 19.27669,-13.12512 18.03432,-15.86736 -0.50698,-1.11904 -8.57178,-7.12147 -17.92178,-13.33874 -14.26687,-9.48673 -17,-11.69642 -17,-13.7442 0,-1.57316 0.65288,-2.5658 1.83764,-2.79397 2.58224,-0.49729 38.07175,23.23485 39.52914,26.43347 1.59066,3.49112 1.40947,7.55362 -0.45566,10.21646 -1.93669,2.76502 -36.74772,26.17658 -38.92237,26.17658 -0.85334,0 -1.83401,-0.73617 -2.17928,-1.63592 z"
       style="fill:#ffffff;fill-opacity:1;stroke-width:0.308443;stroke-miterlimit:4;stroke-dasharray:none"
       clip-path="url(#clipPath75)"
       transform="matrix(3.6149272,0,0,3.6149272,-2416.0993,905.64899)"
       inkscape:export-filename="C:\Users\ivanc\Documents\PAGINAS_WEB\PORTFOLIO\src\static\Logo_ICBR2.png"
       inkscape:export-xdpi="79.929001"
       inkscape:export-ydpi="79.929001" />
    <path
       d="m -182.8374,1960.1856 c -3.866,0 -7,3.134 -7,7 v 23.145 c 0,3.866 3.134,7 7,7 3.866,0 7,-3.134 7,-7 v -23.145 c 0,-3.867 -3.134,-7 -7,-7 z"
       id="path1159"
       style="fill:#00587a;fill-opacity:1;stroke:#00587a;stroke-opacity:1"
       inkscape:export-filename="C:\Users\ivanc\Documents\PAGINAS_WEB\PORTFOLIO\src\static\Logo_ICBR2.png"
       inkscape:export-xdpi="79.929001"
       inkscape:export-ydpi="79.929001" />
    <path
       d="m -155.5644,1960.1856 c -3.866,0 -7,3.134 -7,7 v 23.145 c 0,3.866 3.134,7 7,7 3.866,0 7,-3.134 7,-7 v -23.145 c 0,-3.867 -3.133,-7 -7,-7 z"
       id="path1161"
       style="fill:#00587a;fill-opacity:1;stroke:#00587a;stroke-opacity:1"
       inkscape:export-filename="C:\Users\ivanc\Documents\PAGINAS_WEB\PORTFOLIO\src\static\Logo_ICBR2.png"
       inkscape:export-xdpi="79.929001"
       inkscape:export-ydpi="79.929001" />
    <path
       d="m -128.2914,1950.3926 c -3.866,0 -7,3.134 -7,7 v 42.73 c 0,3.866 3.134,7 7,7 3.866,0 7,-3.134 7,-7 v -42.73 c 0,-3.866 -3.134,-7 -7,-7 z"
       id="path1163"
       style="fill:#00587a;fill-opacity:1;stroke:#00587a;stroke-opacity:1"
       inkscape:export-filename="C:\Users\ivanc\Documents\PAGINAS_WEB\PORTFOLIO\src\static\Logo_ICBR2.png"
       inkscape:export-xdpi="79.929001"
       inkscape:export-ydpi="79.929001" />
    <path
       d="m -101.0194,1938.8206 c -3.866,0 -7,3.134 -7,7 v 65.875 c 0,3.866 3.134,7 7,7 3.866,0 7,-3.134 7,-7 v -65.875 c 0,-3.867 -3.133,-7 -7,-7 z"
       id="path1165"
       style="fill:#00587a;fill-opacity:1;stroke:#00587a;stroke-opacity:1"
       inkscape:export-filename="C:\Users\ivanc\Documents\PAGINAS_WEB\PORTFOLIO\src\static\Logo_ICBR2.png"
       inkscape:export-xdpi="79.929001"
       inkscape:export-ydpi="79.929001" />
    <path
       d="m -73.7454,1918.3456 c -3.866,0 -7,3.134 -7,7 v 106.824 c 0,3.866 3.134,7 7,7 3.866,0 7,-3.134 7,-7 v -106.824 c 0,-3.866 -3.134,-7 -7,-7 z"
       id="path1167"
       style="fill:#00587a;fill-opacity:1;stroke:#00587a;stroke-opacity:1"
       inkscape:export-filename="C:\Users\ivanc\Documents\PAGINAS_WEB\PORTFOLIO\src\static\Logo_ICBR2.png"
       inkscape:export-xdpi="79.929001"
       inkscape:export-ydpi="79.929001" />
    <path
       d="m 21.3334,1838.8647 c -5.2437,-1.9621 -11.085,0.6984 -13.047,5.942 l -103.458,276.5009 c -1.9622,5.2438 0.6981,11.0848 5.9417,13.047 5.2437,1.9621 11.085,-0.6984 13.047,-5.942 L 27.2753,1851.9117 c 1.962,-5.2438 -0.6983,-11.0848 -5.9419,-13.047 z"
       id="path1169"
       style="fill:#ffffff;fill-opacity:1;stroke:#00587a;stroke-width:1.44819;stroke-opacity:1"
       inkscape:export-filename="C:\Users\ivanc\Documents\PAGINAS_WEB\PORTFOLIO\src\static\Logo_ICBR2.png"
       inkscape:export-xdpi="79.929001"
       inkscape:export-ydpi="79.929001" />
    <path
       d="m 8.0716,1921.9056 c -3.866,0 -7,3.134 -7,7 v 99.703 c 0,3.866 3.134,7 7,7 3.866,0 7,-3.134 7,-7 v -99.703 c 0,-3.866 -3.134,-7 -7,-7 z"
       id="path1171"
       style="fill:#00587a;fill-opacity:1;stroke:#00587a;stroke-opacity:1"
       inkscape:export-filename="C:\Users\ivanc\Documents\PAGINAS_WEB\PORTFOLIO\src\static\Logo_ICBR2.png"
       inkscape:export-xdpi="79.929001"
       inkscape:export-ydpi="79.929001" />
    <path
       d="m 35.3456,1942.8246 c -3.866,0 -7,3.134 -7,7 v 57.864 c 0,3.866 3.134,7 7,7 3.866,0 7,-3.134 7,-7 v -57.864 c 0,-3.866 -3.134,-7 -7,-7 z"
       id="path1173"
       style="fill:#00587a;fill-opacity:1;stroke:#00587a;stroke-opacity:1"
       inkscape:export-filename="C:\Users\ivanc\Documents\PAGINAS_WEB\PORTFOLIO\src\static\Logo_ICBR2.png"
       inkscape:export-xdpi="79.929001"
       inkscape:export-ydpi="79.929001" />
    <path
       d="m 62.6186,1951.7286 c -3.866,0 -7,3.134 -7,7 v 40.059 c 0,3.866 3.134,7 7,7 3.866,0 7,-3.134 7,-7 v -40.059 c 0,-3.866 -3.134,-7 -7,-7 z"
       id="path1175"
       style="fill:#00587a;fill-opacity:1;stroke:#00587a;stroke-opacity:1"
       inkscape:export-filename="C:\Users\ivanc\Documents\PAGINAS_WEB\PORTFOLIO\src\static\Logo_ICBR2.png"
       inkscape:export-xdpi="79.929001"
       inkscape:export-ydpi="79.929001" />
    <path
       d="m 89.8906,1960.1856 c -3.866,0 -7,3.134 -7,7 v 23.145 c 0,3.866 3.134,7 7,7 3.866,0 7,-3.134 7,-7 v -23.145 c 0,-3.867 -3.134,-7 -7,-7 z"
       id="path1177"
       style="fill:#00587a;fill-opacity:1;stroke:#00587a;stroke-opacity:1"
       inkscape:export-filename="C:\Users\ivanc\Documents\PAGINAS_WEB\PORTFOLIO\src\static\Logo_ICBR2.png"
       inkscape:export-xdpi="79.929001"
       inkscape:export-ydpi="79.929001" />
    <path
       d="m 117.1626,1960.1856 c -3.866,0 -7,3.134 -7,7 v 23.145 c 0,3.866 3.134,7 7,7 3.866,0 7,-3.134 7,-7 v -23.145 c 0,-3.867 -3.134,-7 -7,-7 z"
       id="path1179"
       style="fill:#00587a;fill-opacity:1;stroke:#00587a;stroke-opacity:1"
       inkscape:export-filename="C:\Users\ivanc\Documents\PAGINAS_WEB\PORTFOLIO\src\static\Logo_ICBR2.png"
       inkscape:export-xdpi="79.929001"
       inkscape:export-ydpi="79.929001" />
    <path
       transform="matrix(-3.6149272,0,0,3.6149272,2353.3607,902.64899)"
       clip-path="url(#clipPath75)"
       style="fill:#ffffff;fill-opacity:1"
       d="m 677.99603,365.91379 c -0.95021,-1.53748 0.35135,-2.52947 1.63484,-1.24598 0.71818,0.71818 0.73543,1.27752 0.0524,1.69964 -0.55992,0.34605 -1.31919,0.1419 -1.68727,-0.45366 z m -43.21896,-19.61206 c -2.16292,-0.87276 -1.38832,-5.50861 3.21239,-19.22557 l 4.46238,-13.30457 -2.9983,-2.52291 c -4.19782,-3.53223 -5.92647,-7.37366 -5.92647,-13.16991 0,-5.82904 1.28054,-9.68454 4.31661,-12.99668 2.70021,-2.94573 9.28405,-6.06678 12.85977,-6.09612 2.55916,-0.021 2.88766,-0.668 7.5,-14.77196 4.50653,-13.78037 4.98796,-14.75 7.32362,-14.75 3.81752,0 3.58939,3.29586 -1.25832,18.17906 l -4.29264,13.17907 3.26929,2.60863 c 4.47418,3.57003 6.56738,8.04281 6.56738,14.03324 0,10.18076 -7.92782,18.5 -17.62958,18.5 h -3.21367 l -4.32799,13.25 c -4.22137,12.92358 -6.41195,17.8313 -7.88752,17.67105 -0.39982,-0.0434 -1.28945,-0.30592 -1.97695,-0.58333 z m -31.25,-28.40201 c -18.42413,-12.3127 -22,-15.54796 -22,-19.90443 0,-5.90211 2.00232,-7.88643 20.31515,-20.1326 18.34377,-12.26686 21.8568,-13.70407 22.49718,-9.20378 0.2629,1.84753 -2.54624,4.10489 -17.75,14.26345 -13.08305,8.74159 -18.06233,12.60444 -18.06233,14.01247 0,2.37009 2.4776,4.35109 21,16.79087 12.20312,8.19571 14.5,10.13432 14.5,12.23831 0,4.66099 -3.54555,3.26624 -20.5,-8.06429 z m 74.30947,9.42837 c -0.34527,-0.89976 -0.17773,-2.36226 0.37231,-3.25 0.55004,-0.88775 8.0676,-6.37609 16.70568,-12.19632 18.61321,-12.54136 19.27669,-13.12512 18.03432,-15.86736 -0.50698,-1.11904 -8.57178,-7.12147 -17.92178,-13.33874 -14.26687,-9.48673 -17,-11.69642 -17,-13.7442 0,-1.57316 0.65288,-2.5658 1.83764,-2.79397 2.58224,-0.49729 38.07175,23.23485 39.52914,26.43347 1.59066,3.49112 1.40947,7.55362 -0.45566,10.21646 -1.93669,2.76502 -36.74772,26.17658 -38.92237,26.17658 -0.85334,0 -1.83401,-0.73617 -2.17928,-1.63592 z"
       id="path1183"
       inkscape:connector-curvature="0"
       inkscape:export-filename="C:\Users\ivanc\Documents\PAGINAS_WEB\PORTFOLIO\src\static\Logo_ICBR2.png"
       inkscape:export-xdpi="79.929001"
       inkscape:export-ydpi="79.929001" />
  </g>
  <text
     inkscape:export-ydpi="79.929001"
     inkscape:export-xdpi="79.929001"
     inkscape:export-filename="C:\Users\ivanc\Documents\PAGINAS_WEB\PORTFOLIO\src\static\Logo_ICBR2_v2.png"
     xml:space="preserve"
     style="font-style:normal;font-weight:normal;font-size:156.115px;line-height:1.25;font-family:sans-serif;fill:#000000;fill-opacity:1;stroke:none;stroke-width:3.90286"
     x="104.67593"
     y="504.73193"
     id="text1211"><tspan
       id="tspan1209"
       x="104.67593"
       y="504.73193"
       style="font-style:normal;font-variant:normal;font-weight:bold;font-stretch:normal;font-family:Cambria;-inkscape-font-specification:'Cambria Bold';stroke-width:3.90286"
       sodipodi:role="line"><tspan
   style="font-style:normal;font-variant:normal;font-weight:bold;font-stretch:normal;font-family:Cambria;-inkscape-font-specification:'Cambria Bold';fill:#ffffff;fill-opacity:1;stroke-width:3.90286"
   id="tspan1205">Iván</tspan> <tspan
   style="font-style:normal;font-variant:normal;font-weight:bold;font-stretch:normal;font-family:Cambria;-inkscape-font-specification:'Cambria Bold';fill:#00587a;fill-opacity:1;stroke-width:3.90286"
   id="tspan1207">Bazaldúa</tspan></tspan></text>
</svg>
