<svg width="73" height="105" viewBox="0 0 73 105" fill="none" xmlns="http://www.w3.org/2000/svg">
<path d="M36.4556 104.735L6.74743 96.3225L0.126953 20.5829H72.8732L66.2458 96.3109L36.4556 104.735Z" fill="#264DE4"/>
<path d="M60.572 91.4888L66.2352 26.7756H36.5V98.2958L60.572 91.4888Z" fill="#2965F1"/>
<path d="M15.3041 54.8665L16.1202 64.1556H36.5V54.8665H15.3041Z" fill="#EBEBEB"/>
<path d="M13.6638 36.0651L14.4916 45.3542H36.5V36.0651H13.6638Z" fill="#EBEBEB"/>
<path d="M36.5 78.9914L36.4601 79.0022L26.3177 76.2088L25.6692 68.8003H16.5271L17.8029 83.3857L36.4581 88.6677L36.5 88.6561V78.9914Z" fill="#EBEBEB"/>
<path d="M17.2474 0H28.2773V4.70493H21.8601V9.40986H28.2778V14.1145H17.2474V0Z" fill="black"/>
<path d="M30.4834 0H41.5136V4.09122H35.0961V4.90941H41.5136V14.3193H30.4837V10.023H36.9012V9.20481H30.4832V0H30.4834Z" fill="black"/>
<path d="M43.7198 0H54.75V4.09122H48.3325V4.90941H54.75V14.3193H43.7198V10.023H50.1373V9.20481H43.7201V0H43.7198Z" fill="black"/>
<path d="M57.6378 54.8665L59.2817 36.0651H36.4687V45.3542H49.3013L48.4726 54.8665H36.4687V64.1556H47.683L46.6257 76.203L36.4684 78.9993V88.6634L55.1384 83.3857L55.2753 81.8163L57.4157 57.3609L57.6378 54.8665Z" fill="white"/>
</svg>
