<svg width="94" height="105" viewBox="0 0 94 105" fill="none" xmlns="http://www.w3.org/2000/svg">
<path d="M47 0.0179443L94 26.2335V78.6818L47 104.897L0 78.6818V26.2335L47 0.0179443Z" fill="white"/>
<path d="M85.6108 76.8625L48.5609 97.5511V81.4618L71.6529 68.9227L85.6108 76.8625ZM88.147 74.6064V31.3747L74.597 39.0867V66.8936L88.147 74.6064ZM8.24698 76.8621L45.2973 97.5341V81.4445L22.2052 68.9227L8.24698 76.8625V76.8621ZM5.71082 74.6064V31.3747L19.2611 39.0867V66.8936L5.71082 74.6064ZM7.28972 28.5766L45.2973 7.38V22.9453L20.9462 36.1489L20.7508 36.2539L7.28972 28.5762V28.5766ZM86.5508 28.5766L48.5609 7.37964V22.945L72.8944 36.1659L73.0893 36.2709L86.5508 28.5759V28.5766Z" fill="#8ED6FB"/>
<path d="M45.2974 77.7894L22.5244 65.4248V40.9583L45.2974 53.9175V77.7894ZM48.5609 77.7894L71.3339 65.4425V40.9583L48.5609 53.9175V77.7894ZM24.0497 38.1251L46.9292 25.7257L69.7903 38.1251L46.9292 51.1368L24.0497 38.1251Z" fill="#1C78C0"/>
</svg>
