<svg width="122" height="140" viewBox="0 0 122 140" fill="none" xmlns="http://www.w3.org/2000/svg">
<g clip-path="url(#clip0)">
<g filter="url(#filter0_f)">
<path d="M116.331 118.34C116.331 126.576 91.3598 133.288 60.5489 133.288C29.738 133.288 4.76672 126.62 4.76672 118.34C4.76672 110.103 29.738 103.392 60.5484 103.392C91.3598 103.392 116.287 110.103 116.331 118.34Z" fill="black" fill-opacity="0.2"/>
</g>
<path d="M29.9996 102.259C24.5956 94.5013 23.5496 69.2253 36.1439 53.6668C42.376 46.2155 43.9886 41.0293 44.468 34.0127C44.8163 26.0375 38.8461 2.28683 61.333 0.500053C84.1254 -1.33039 82.8616 21.1565 82.7307 33.0541C82.6438 43.0771 90.0961 48.7863 95.2381 56.631C104.695 71.0121 103.911 95.7651 93.4513 109.188C80.2031 125.966 68.8726 118.688 61.333 119.298C47.2134 120.126 46.7341 127.622 29.9996 102.259Z" fill="black"/>
<path d="M84.9966 58.1121C88.919 61.7293 99.073 77.8972 82.992 88.008C77.327 91.5379 88.0476 104.96 93.1897 98.4672C102.298 86.7879 96.5022 68.1356 91.0109 61.4678C87.35 56.7614 81.685 54.931 84.9971 58.1125L84.9966 58.1121Z" fill="url(#paint0_linear)"/>
<path d="M83.9075 55.9334C90.357 61.1632 102.08 79.4662 84.9535 91.407C79.3316 95.1115 89.9213 106.835 95.892 100.864C116.592 80.0328 95.369 56.1075 88.0472 47.8708C81.5104 40.6805 75.7144 49.5271 83.9075 55.9334Z" fill="black" stroke="black" stroke-width="0.977"/>
<path d="M74.6248 11.8738C74.407 17.8444 67.8265 23.0311 59.9386 23.5104C52.0507 23.9897 45.8627 19.4575 46.08 13.4869C46.2983 7.51624 52.8788 2.33007 60.7667 1.85075C68.6542 1.41509 74.8427 5.90363 74.6248 11.8738Z" fill="url(#paint1_linear)"/>
<path d="M55.7548 26.0813C55.9731 29.96 54.1427 33.2284 51.6151 33.3589C49.0875 33.4899 46.8646 30.483 46.6467 26.6043C46.4289 22.7255 48.2593 19.4571 50.7869 19.3266C53.3145 19.1956 55.5374 22.2026 55.7548 26.0813Z" fill="url(#paint2_linear)"/>
<path d="M60.3306 26.3862C60.4179 30.8747 63.338 34.4483 66.8242 34.3614C70.3104 34.2741 73.0559 30.5696 72.969 26.0374C72.8817 21.5488 69.9621 17.9753 66.4754 18.0626C62.9891 18.1494 60.2001 21.8972 60.3306 26.3862Z" fill="url(#paint3_linear)"/>
<path d="M63.2069 27.3885C63.1633 29.8724 64.3839 31.877 65.996 31.877C67.565 31.877 68.9161 29.8724 68.9598 27.4321C69.003 24.9482 67.7828 22.9431 66.1702 22.9431C64.5581 22.9431 63.2506 24.9482 63.2069 27.3885Z" fill="black"/>
<path d="M53.1404 27.4323C53.3582 29.4806 52.5737 31.2237 51.4404 31.3978C50.3076 31.5288 49.218 30.0035 49.0001 27.9553C48.7818 25.907 49.5668 24.1634 50.6996 23.9892C51.8329 23.8587 52.9225 25.384 53.1404 27.4323Z" fill="black"/>
<path d="M63.8609 25.9938C63.73 27.3886 64.3839 28.5214 65.2989 28.6087C66.2139 28.696 67.0857 27.6064 67.2162 26.2553C67.3472 24.861 66.6932 23.7277 65.7782 23.6404C64.8633 23.5535 63.9915 24.6431 63.8609 25.9943V25.9938Z" fill="url(#paint4_linear)"/>
<path d="M52.1811 26.3427C52.3121 27.476 51.8328 28.4783 51.1356 28.5651C50.438 28.6525 49.7845 27.7807 49.6535 26.6042C49.523 25.4709 50.0023 24.4686 50.6995 24.3817C51.3971 24.2944 52.0506 25.2094 52.1811 26.3427Z" fill="url(#paint5_linear)"/>
<path d="M38.4535 69.138C41.5477 62.1214 48.1282 49.7885 48.2592 40.2443C48.2592 32.6616 70.9643 30.8311 72.7948 38.4144C74.6247 45.9972 79.2443 57.3277 82.2075 62.819C85.1712 68.2662 93.7563 85.6546 84.6046 100.82C76.3678 114.243 51.3971 124.876 38.0615 98.9902C33.5293 90.0127 34.3569 78.9 38.4535 69.138Z" fill="url(#paint6_linear)"/>
<path d="M35.6645 63.9081C33.0064 68.9197 27.515 82.0811 40.9379 89.2719C55.3627 96.942 55.319 112.674 37.9742 105.178C22.1115 98.4236 29.1276 71.0553 33.573 64.5184C36.4489 59.9426 40.807 54.3208 35.6645 63.9081Z" fill="url(#paint7_linear)"/>
<path d="M37.9306 58.2431C33.7035 65.1288 23.5931 81.3403 37.1466 89.7949C55.3627 100.995 50.2202 112.151 33.573 102.084C10.127 88.0517 30.7398 59.7248 40.1098 48.9172C50.8305 36.8018 42.1581 51.1397 37.9306 58.2427V58.2431Z" fill="black" stroke="black" stroke-width="1.25"/>
<path d="M78.9829 71.7961C78.9829 79.4662 71.618 89.4028 58.9795 89.3155C45.9495 89.4024 40.415 79.4662 40.415 71.7961C40.415 64.1264 49.0438 57.8943 59.6771 57.8943C70.3542 57.9379 78.9829 64.1264 78.9829 71.7961Z" fill="url(#paint8_linear)"/>
<path d="M72.0976 47.6967C71.9666 55.6282 66.7804 57.5023 60.2436 57.5023C53.7063 57.5023 48.9563 56.3254 48.3896 47.6967C48.3896 42.2927 53.7063 39.1552 60.2436 39.1552C66.7804 39.1116 72.0971 42.2495 72.0971 47.6967H72.0976Z" fill="url(#paint9_linear)"/>
<path d="M32.5702 59.899C36.8414 53.4058 45.8621 43.4259 34.2701 61.2937C24.8569 76.0236 30.7839 85.4805 33.8345 88.095C42.6374 95.9397 42.2886 101.212 35.3598 97.0725C20.4989 88.2259 23.5931 73.3214 32.5702 59.899Z" fill="url(#paint10_linear)"/>
<path d="M94.4104 62.5575C90.7059 54.931 78.9392 35.5816 94.9766 58.0685C109.576 78.4202 99.3346 92.5839 97.5042 93.9782C95.6742 95.373 89.5294 98.2058 91.3157 93.2811C93.1466 88.3564 102.211 79.0305 94.4099 62.557L94.4104 62.5575Z" fill="url(#paint11_linear)"/>
<path d="M29.3455 122.698C19.5835 117.512 5.4202 123.7 10.5627 109.667C11.6087 106.486 9.03742 101.692 10.6932 98.5979C12.6546 94.8065 16.8817 95.6346 19.4093 93.107C21.8932 90.4921 23.4622 85.9599 28.1254 86.6575C32.7449 87.3542 35.8391 93.0197 39.0639 99.9926C41.4605 104.96 49.915 111.977 49.3489 117.555C48.6513 126.097 38.9329 127.709 29.3455 122.698Z" fill="url(#paint12_linear)" stroke="#E68C3F" stroke-width="6.25"/>
<path d="M100.424 89.7512C98.9425 92.5403 92.7541 97.0288 88.6139 95.8523C84.4305 94.719 82.5127 88.3564 83.3409 83.519C84.1253 78.1155 88.6139 77.8099 94.2798 80.5121C100.381 83.519 102.211 86.0466 100.424 89.7512Z" fill="url(#paint13_linear)"/>
<path d="M97.0249 120.3C104.172 111.628 120.079 113.415 109.358 101.518C107.092 98.9465 107.789 93.4552 105 91.1022C101.732 88.2258 98.1145 90.5793 94.8024 89.0976C91.4904 87.485 88.0041 84.3908 83.9513 86.5696C79.8984 88.7925 79.4622 94.5448 79.0702 102.128C78.7214 107.575 73.7536 116.683 76.4117 121.695C80.2467 129.452 90.2266 128.406 97.0249 120.301V120.3Z" fill="url(#paint14_linear)" stroke="#E68C3F" stroke-width="6.251"/>
<path d="M93.9305 108.708C105 92.3662 96.7637 92.4967 93.9741 91.2329C91.185 89.9255 88.265 87.3542 84.997 89.141C81.7282 90.9714 81.554 95.6783 81.4667 101.866C81.3362 106.312 77.6321 113.764 79.8545 117.904C82.5563 122.741 89.0931 115.725 93.9305 108.708Z" fill="url(#paint15_linear)"/>
<path d="M27.0794 111.062C10.5191 100.341 18.2761 96.6805 20.7605 94.9806C23.7674 92.8018 23.811 88.6179 27.5151 89.0104C31.2196 89.4024 33.3984 93.9783 35.8824 99.6438C37.7128 103.697 44.0754 109.101 43.5961 113.764C42.9863 119.255 34.2266 115.637 27.0794 111.062Z" fill="url(#paint16_linear)"/>
<path d="M99.4655 89.6203C98.158 91.8869 92.8414 95.4605 89.3115 94.5014C85.6942 93.5864 84.038 88.4875 84.7793 84.6525C85.4327 80.2944 89.3115 80.0766 94.192 82.2559C99.3782 84.6088 100.991 86.6134 99.4655 89.6203Z" fill="black"/>
<path d="M95.8921 88.3566C95.064 89.9255 91.5777 92.4095 89.137 91.756C86.6967 91.1025 85.4766 87.5726 85.8686 84.914C86.2174 81.9071 88.8319 81.7324 92.1439 83.2146C95.7175 84.8708 96.8508 86.2651 95.8921 88.3566Z" fill="url(#paint17_linear)"/>
<path d="M50.8305 31.4852C52.5737 29.8725 56.8007 24.9483 64.8196 30.0904C66.3013 31.049 67.5214 31.1363 70.3541 32.3565C76.0633 34.7104 73.361 40.3754 67.2599 42.2927C64.645 43.1208 62.292 46.3024 57.5852 45.9972C53.5323 45.7789 52.4863 43.1213 50.0024 41.6829C45.6007 39.1989 44.9472 35.8432 47.3438 34.0564C49.7409 32.2696 50.6564 31.6157 50.8305 31.4852Z" fill="url(#paint18_linear)" stroke="#E68C3F" stroke-width="3.75"/>
<path d="M70.4414 36.061C68.0447 36.1915 62.8581 41.3777 57.4109 41.3777C51.9633 41.3777 48.6948 36.3225 47.8672 36.3225" stroke="#E68C3F" stroke-width="2.5"/>
<path d="M53.5323 31.0494C54.4041 30.2649 57.1495 28.1293 60.7667 30.3081C61.5512 30.7442 62.3357 31.2236 63.4685 31.8771C65.7782 33.2282 64.6454 35.1896 61.8559 36.4093C60.5921 36.9322 58.5006 38.0655 56.9317 37.9782C55.1885 37.804 54.0116 36.6707 52.8788 35.9299C50.7432 34.5356 50.8742 33.3587 51.8765 32.4437C52.6168 31.7461 53.4449 31.0926 53.5327 31.0494H53.5323Z" fill="url(#paint19_linear)"/>
</g>
<defs>
<filter id="filter0_f" x="-8.23328" y="90.3916" width="137.564" height="55.8959" filterUnits="userSpaceOnUse" color-interpolation-filters="sRGB">
<feFlood flood-opacity="0" result="BackgroundImageFix"/>
<feBlend mode="normal" in="SourceGraphic" in2="BackgroundImageFix" result="shape"/>
<feGaussianBlur stdDeviation="6.5" result="effect1_foregroundBlur"/>
</filter>
<linearGradient id="paint0_linear" x1="89.4269" y1="106.891" x2="92.2872" y2="74.8134" gradientUnits="userSpaceOnUse">
<stop stop-color="#FFEED7"/>
<stop offset="1" stop-color="#BDBFC2"/>
</linearGradient>
<linearGradient id="paint1_linear" x1="61.6109" y1="2.34377" x2="60.2455" y2="21.5606" gradientUnits="userSpaceOnUse">
<stop stop-color="white" stop-opacity="0.8"/>
<stop offset="1" stop-color="white" stop-opacity="0"/>
</linearGradient>
<linearGradient id="paint2_linear" x1="51.3709" y1="31.713" x2="50.53" y2="20.7282" gradientUnits="userSpaceOnUse">
<stop stop-color="#FFEED7"/>
<stop offset="1" stop-color="#BDBFC2"/>
</linearGradient>
<linearGradient id="paint3_linear" x1="66.6391" y1="31.9976" x2="66.6389" y2="20.3125" gradientUnits="userSpaceOnUse">
<stop stop-color="#FFEED7"/>
<stop offset="1" stop-color="#BDBFC2"/>
</linearGradient>
<linearGradient id="paint4_linear" x1="65.6708" y1="23.7899" x2="65.0948" y2="28.2703" gradientUnits="userSpaceOnUse">
<stop stop-color="white" stop-opacity="0.65"/>
<stop offset="1" stop-color="white" stop-opacity="0"/>
</linearGradient>
<linearGradient id="paint5_linear" x1="50.8041" y1="24.6057" x2="51.424" y2="28.2341" gradientUnits="userSpaceOnUse">
<stop stop-color="white" stop-opacity="0.65"/>
<stop offset="1" stop-color="white" stop-opacity="0"/>
</linearGradient>
<linearGradient id="paint6_linear" x1="61.849" y1="106.573" x2="61.849" y2="66.5798" gradientUnits="userSpaceOnUse">
<stop stop-color="#FFEED7"/>
<stop offset="1" stop-color="#BDBFC2"/>
</linearGradient>
<linearGradient id="paint7_linear" x1="40.5774" y1="107.14" x2="30.3694" y2="72.3399" gradientUnits="userSpaceOnUse">
<stop stop-color="#FFEED7"/>
<stop offset="1" stop-color="#BDBFC2"/>
</linearGradient>
<linearGradient id="paint8_linear" x1="59.6376" y1="62.0511" x2="59.74" y2="87.6425" gradientUnits="userSpaceOnUse">
<stop stop-color="white" stop-opacity="0.8"/>
<stop offset="1" stop-color="white" stop-opacity="0"/>
</linearGradient>
<linearGradient id="paint9_linear" x1="60.2263" y1="46.0034" x2="60.3399" y2="56.1789" gradientUnits="userSpaceOnUse">
<stop stop-color="white" stop-opacity="0.65"/>
<stop offset="1" stop-color="white" stop-opacity="0"/>
</linearGradient>
<linearGradient id="paint10_linear" x1="32.7459" y1="52.2838" x2="32.7459" y2="89.626" gradientUnits="userSpaceOnUse">
<stop stop-color="white" stop-opacity="0.65"/>
<stop offset="1" stop-color="white" stop-opacity="0"/>
</linearGradient>
<linearGradient id="paint11_linear" x1="94.7088" y1="48.6365" x2="94.6955" y2="82.3769" gradientUnits="userSpaceOnUse">
<stop stop-color="white" stop-opacity="0.65"/>
<stop offset="1" stop-color="white" stop-opacity="0"/>
</linearGradient>
<linearGradient id="paint12_linear" x1="30.807" y1="105.635" x2="25.2693" y2="124.859" gradientUnits="userSpaceOnUse">
<stop stop-color="#FFA63F"/>
<stop offset="1" stop-color="#FFFF00"/>
</linearGradient>
<linearGradient id="paint13_linear" x1="92.5396" y1="103.442" x2="91.7485" y2="67.7314" gradientUnits="userSpaceOnUse">
<stop stop-color="#FFEED7"/>
<stop offset="1" stop-color="#BDBFC2"/>
</linearGradient>
<linearGradient id="paint14_linear" x1="87.0492" y1="99.8237" x2="102.128" y2="121.186" gradientUnits="userSpaceOnUse">
<stop stop-color="#FFA63F"/>
<stop offset="1" stop-color="#FFFF00"/>
</linearGradient>
<linearGradient id="paint15_linear" x1="91.2979" y1="83.1972" x2="86.1445" y2="108.424" gradientUnits="userSpaceOnUse">
<stop stop-color="white" stop-opacity="0.65"/>
<stop offset="1" stop-color="white" stop-opacity="0"/>
</linearGradient>
<linearGradient id="paint16_linear" x1="29.5959" y1="89.4158" x2="30.6144" y2="117.719" gradientUnits="userSpaceOnUse">
<stop stop-color="white" stop-opacity="0.65"/>
<stop offset="1" stop-color="white" stop-opacity="0"/>
</linearGradient>
<linearGradient id="paint17_linear" x1="90.3348" y1="82.7394" x2="91.528" y2="91.2087" gradientUnits="userSpaceOnUse">
<stop stop-color="white" stop-opacity="0.65"/>
<stop offset="1" stop-color="white" stop-opacity="0"/>
</linearGradient>
<linearGradient id="paint18_linear" x1="59.6591" y1="31.014" x2="59.7585" y2="45.9066" gradientUnits="userSpaceOnUse">
<stop stop-color="#FFA63F"/>
<stop offset="1" stop-color="#FFFF00"/>
</linearGradient>
<linearGradient id="paint19_linear" x1="57.9663" y1="29.6055" x2="57.9394" y2="37.4802" gradientUnits="userSpaceOnUse">
<stop stop-color="white" stop-opacity="0.65"/>
<stop offset="1" stop-color="white" stop-opacity="0"/>
</linearGradient>
<clipPath id="clip0">
<rect width="121.492" height="140" fill="white"/>
</clipPath>
</defs>
</svg>
