<svg width="266" height="140" viewBox="0 0 266 140" fill="none" xmlns="http://www.w3.org/2000/svg">
<g clip-path="url(#clip0)">
<path d="M132.741 139.585C206.051 139.585 265.481 108.338 265.481 69.7926C265.481 31.2472 206.051 0 132.741 0C59.43 0 0 31.2472 0 69.7926C0 108.338 59.43 139.585 132.741 139.585Z" fill="url(#paint0_radial)"/>
<path d="M132.741 134.4C203.188 134.4 260.296 105.474 260.296 69.7927C260.296 34.111 203.188 5.1853 132.741 5.1853C62.2937 5.1853 5.18518 34.111 5.18518 69.7927C5.18518 105.474 62.2937 134.4 132.741 134.4Z" fill="#6181B6"/>
<path d="M158.563 90.7409L164.889 58.1779C166.341 50.8149 165.096 45.3186 161.363 41.8964C157.733 38.5779 151.511 36.9186 142.385 36.9186H131.393L134.504 20.7408C134.607 20.1186 134.504 19.4964 134.089 18.9779C133.674 18.4594 133.156 18.252 132.533 18.252H117.393C116.356 18.252 115.526 18.9779 115.319 19.9112L108.578 54.4445C107.956 50.5038 106.504 47.1853 104.015 44.489C99.5556 39.4075 92.6074 36.8149 83.1704 36.8149H54.0297C52.9926 36.8149 52.163 37.5408 51.9556 38.4742L38.3704 108.578C38.2667 109.2 38.3704 109.822 38.7852 110.341C39.2 110.859 39.7186 111.067 40.3408 111.067H55.5852C56.6223 111.067 57.4519 110.341 57.6593 109.408L60.9778 92.5038H72.2815C78.1926 92.5038 83.2741 91.8816 87.1112 90.6371C91.1556 89.289 94.7852 87.1112 98 84.1038C100.593 81.7186 102.77 79.0223 104.43 76.1186L101.733 90.1186C101.63 90.7409 101.733 91.3631 102.148 91.8816C102.563 92.4001 103.082 92.6075 103.704 92.6075H118.844C119.882 92.6075 120.711 91.8816 120.919 90.9483L128.385 52.5779H138.756C143.215 52.5779 144.459 53.4075 144.874 53.8223C145.185 54.1334 145.807 55.3779 145.082 59.2149L139.067 90.2223C138.963 90.8446 139.067 91.4668 139.482 91.9853C139.896 92.5038 140.415 92.7112 141.037 92.7112H156.593C157.526 92.4001 158.356 91.6742 158.563 90.7409ZM88.4593 63.7779C87.526 68.652 85.763 72.1779 83.1704 74.1483C80.5778 76.1186 76.326 77.1557 70.726 77.1557H63.9852L68.8593 52.0594H77.5704C84 52.0594 86.5926 53.4075 87.6297 54.5483C88.9778 56.2075 89.2889 59.4223 88.4593 63.7779Z" fill="white"/>
<path d="M223.274 44.489C218.815 39.4075 211.867 36.8149 202.43 36.8149H173.082C172.045 36.8149 171.215 37.5409 171.007 38.4742L157.422 108.474C157.319 109.096 157.422 109.719 157.837 110.237C158.252 110.756 158.77 110.963 159.393 110.963H174.637C175.674 110.963 176.504 110.237 176.711 109.304L180.03 92.4001H191.333C197.245 92.4001 202.326 91.7779 206.163 90.5335C210.207 89.1853 213.837 87.0075 217.052 84.0001C219.748 81.5112 222.03 78.7112 223.689 75.7038C225.348 72.6964 226.593 69.3779 227.319 65.7483C229.082 56.7261 227.733 49.6742 223.274 44.489ZM207.407 63.7779C206.474 68.652 204.711 72.1779 202.119 74.1483C199.526 76.1186 195.274 77.1557 189.674 77.1557H182.933L187.807 52.0594H196.519C202.948 52.0594 205.541 53.4075 206.578 54.5483C208.03 56.2075 208.341 59.4223 207.407 63.7779Z" fill="white"/>
<path d="M77.5704 49.9852C83.3778 49.9852 87.2148 51.0222 89.1852 53.2C91.1556 55.3778 91.5704 59.0074 90.5333 64.1926C89.4963 69.5852 87.4222 73.526 84.4148 75.8074C81.4074 78.0889 76.8445 79.2297 70.7259 79.2297H61.4963L67.2 49.9852H77.5704ZM40.4445 108.889H55.6889L59.3185 90.326H72.3852C78.1926 90.326 82.8593 89.7037 86.5926 88.4593C90.3259 87.2148 93.6445 85.2445 96.7556 82.3408C99.3482 79.9556 101.422 77.363 102.978 74.563C104.533 71.763 105.674 68.6519 106.296 65.2297C107.956 56.9334 106.711 50.5037 102.667 45.8371C98.6222 41.1704 92.1926 38.8889 83.3778 38.8889H54.0296L40.4445 108.889Z" fill="#000004"/>
<path d="M117.496 20.3259H132.637L129.007 38.8889H142.489C150.993 38.8889 156.8 40.3407 160.015 43.3481C163.23 46.3556 164.163 51.1259 162.919 57.763L156.593 90.3259H141.244L147.259 59.3185C147.985 55.7926 147.674 53.4074 146.533 52.163C145.393 50.9185 142.8 50.1926 138.963 50.1926H126.83L119.052 90.3259H103.911L117.496 20.3259Z" fill="#000004"/>
<path d="M196.519 49.9852C202.326 49.9852 206.163 51.0222 208.133 53.2C210.104 55.3778 210.519 59.0074 209.481 64.1926C208.444 69.5852 206.37 73.526 203.363 75.8074C200.356 78.0889 195.793 79.2297 189.674 79.2297H180.444L186.148 49.9852H196.519ZM159.393 108.889H174.637L178.267 90.326H191.333C197.141 90.326 201.807 89.7037 205.541 88.4593C209.274 87.2148 212.593 85.2445 215.704 82.3408C218.296 79.9556 220.37 77.363 221.926 74.563C223.481 71.763 224.622 68.6519 225.244 65.2297C226.904 56.9334 225.659 50.5037 221.615 45.8371C217.57 41.1704 211.141 38.8889 202.326 38.8889H172.978L159.393 108.889Z" fill="#000004"/>
</g>
<defs>
<radialGradient id="paint0_radial" cx="0" cy="0" r="1" gradientUnits="userSpaceOnUse" gradientTransform="translate(79.6979 24.5441) scale(174.321)">
<stop stop-color="white"/>
<stop offset="0.5" stop-color="#4C6B97"/>
<stop offset="1" stop-color="#231F20"/>
</radialGradient>
<clipPath id="clip0">
<rect width="265.481" height="140" fill="white"/>
</clipPath>
</defs>
</svg>
