<svg width="132" height="98" viewBox="0 0 132 98" fill="none" xmlns="http://www.w3.org/2000/svg">
<path d="M113.582 56.4075C108.99 56.431 104.999 57.5258 101.657 59.1443C100.43 56.7403 99.2042 54.5986 98.9881 53.0275C98.7473 51.1951 98.4591 50.0763 98.7473 47.8866C99.0361 45.6969 100.334 42.5788 100.31 42.3409C100.286 42.1031 100.021 40.9842 97.3768 40.9607C94.7321 40.9368 92.4479 41.4604 92.1834 42.1505C91.9189 42.8406 91.4141 44.4117 91.0774 46.0297C90.6206 48.4103 85.7881 56.9067 83.0233 61.3575C82.1334 59.6206 81.3641 58.097 81.1954 56.8832C80.9552 55.0508 80.6664 53.932 80.9552 51.7423C81.2439 49.5526 82.5423 46.435 82.518 46.1966C82.4938 45.9587 82.2293 44.8399 79.5846 44.8164C76.9395 44.7924 74.6553 45.3161 74.3913 46.0062C74.1267 46.6968 73.838 48.3148 73.2852 49.8859C72.732 51.457 66.3124 65.6424 64.6294 69.3072C63.9493 70.7906 63.2359 72.2587 62.4896 73.7106C62.4896 73.7106 62.4654 73.7821 62.3932 73.901C62.1587 74.3562 61.9184 74.8085 61.6723 75.2577V75.2812C61.3114 75.9243 60.9267 76.5189 60.7344 76.5189C60.59 76.5189 60.3255 74.8055 60.7824 72.4728C61.744 67.5463 64.0282 59.8824 64.0045 59.6206C64.0045 59.4776 64.4371 58.1449 62.5138 57.4543C60.638 56.7643 59.9651 57.9066 59.7965 57.9066C59.6284 57.9066 59.5077 58.3113 59.5077 58.3113C59.5077 58.3113 61.6001 49.6955 55.5168 49.6955C51.7182 49.6955 46.4763 53.813 43.8797 57.5258C40.9278 59.116 37.9784 60.7107 35.0315 62.3099C33.6136 63.0955 32.1466 63.881 30.7761 64.6186C30.6797 64.5236 30.5838 64.4042 30.4873 64.3092C23.1299 56.5264 9.52151 51.0282 10.0985 40.58C10.3151 36.7718 11.6371 26.7752 36.234 14.637C56.4784 4.75945 72.5881 7.4963 75.3771 13.5657C79.3681 22.2295 66.7456 38.3188 45.8272 40.6509C37.8448 41.5319 33.661 38.4852 32.6035 37.3429C31.4974 36.1526 31.3288 36.0812 30.9199 36.3195C30.2471 36.6768 30.6797 37.7477 30.9199 38.3663C31.5454 39.9843 34.1179 42.8406 38.4697 44.2453C42.3168 45.4825 51.6697 46.1731 62.9944 41.8412C75.6654 36.9856 85.5716 23.4907 82.6624 12.1855C79.7527 0.713373 60.5179 -3.07086 42.3168 3.3313C31.4974 7.14003 19.7639 13.1374 11.3246 20.9442C1.29832 30.2262 -0.288774 38.2948 0.360398 41.6748C2.69309 53.6701 19.4035 61.4769 26.0875 67.2605C25.7508 67.4509 25.4378 67.6178 25.1738 67.7607C21.8315 69.4027 9.08838 75.9952 5.91471 82.969C2.30843 90.8708 6.49221 96.5359 9.25699 97.297C17.8406 99.6535 26.6645 95.4171 31.401 88.4193C36.1376 81.422 35.5606 72.3299 33.3728 68.1649C33.3485 68.1175 33.3248 68.0695 33.2764 68.022C34.1421 67.5223 35.0315 66.9986 35.8973 66.4989C37.4884 65.5678 39.0998 64.671 40.7302 63.809C39.9124 66.0227 39.3112 68.6646 39.023 72.4728C38.6621 76.9477 40.5131 82.7547 42.9417 85.0393C44.024 86.0397 45.2981 86.0632 46.1159 86.0632C48.9529 86.0632 50.2275 83.7306 51.646 80.9697C53.377 77.5903 54.9398 73.6631 54.9398 73.6631C54.9398 73.6631 52.9923 84.2783 58.2821 84.2783C60.2054 84.2783 62.1529 81.8027 63.0186 80.5415V80.565C63.0186 80.565 63.0666 80.4935 63.163 80.3271C63.3553 80.0178 63.4755 79.8269 63.4755 79.8269V79.78C64.2448 78.4468 65.9763 75.4241 68.5487 70.4021C71.8668 63.9285 75.0647 55.8363 75.0647 55.8363C75.0647 55.8363 75.3534 57.8116 76.3388 61.0962C76.9163 63.024 78.1177 65.1422 79.0798 67.189C78.3105 68.2604 77.8294 68.855 77.8294 68.855L77.8537 68.879C77.2282 69.688 76.5553 70.5685 75.8097 71.426C73.1888 74.5196 70.0636 78.0665 69.6305 79.0894C69.1252 80.3031 69.2458 81.1841 70.208 81.8982C70.9051 82.4219 72.155 82.4928 73.4296 82.4219C75.786 82.255 77.4448 81.6838 78.2621 81.327C79.5367 80.8748 81.0274 80.1842 82.4216 79.1608C84.9946 77.2805 86.5569 74.5911 86.4131 71.0452C86.3409 69.0934 85.6917 67.1415 84.8981 65.3086C85.1389 64.9759 85.355 64.6425 85.5958 64.3092C89.6589 58.4303 92.8089 51.9801 92.8089 51.9801C92.8089 51.9801 93.0976 53.9554 94.083 57.2405C94.5641 58.9065 95.5499 60.7154 96.4151 62.4763C92.5923 65.547 90.2359 69.1169 89.3944 71.4495C87.88 75.7814 89.0577 77.7327 91.294 78.1849C92.3036 78.3993 93.7463 77.9231 94.8043 77.4708C96.1506 77.0426 97.7377 76.3051 99.2526 75.2097C101.826 73.3298 104.302 70.7114 104.157 67.1655C104.085 65.547 103.652 63.952 103.051 62.4049C106.297 61.0727 110.481 60.3346 115.818 60.9533C127.263 62.286 129.523 69.3547 129.09 72.3304C128.658 75.3052 126.253 76.9237 125.46 77.4234C124.666 77.9236 124.402 78.09 124.474 78.4468C124.57 78.9704 124.955 78.947 125.628 78.8515C126.566 78.6851 131.64 76.4475 131.856 70.9732C132.217 63.9759 125.484 56.336 113.582 56.4075ZM25.294 85.8728C21.4948 89.9664 16.2056 91.5134 13.9213 90.2047C11.469 88.8001 12.4307 82.7547 17.095 78.4233C19.932 75.7814 23.5867 73.3293 26.0153 71.8302C26.5681 71.4969 27.3859 71.0212 28.3717 70.4261C28.5398 70.3306 28.6362 70.2832 28.6362 70.2832L29.2132 69.9259C30.9199 76.1142 29.2854 81.5649 25.294 85.8728ZM52.9444 67.2605C51.6218 70.4501 48.857 78.6137 47.174 78.1614C45.7313 77.7807 44.8413 71.5924 46.8852 65.4755C47.9191 62.4049 50.1069 58.7396 51.3815 57.3119C53.4492 55.0268 55.7334 54.2648 56.2861 55.1937C56.9838 56.4075 53.7616 65.2612 52.9444 67.2605ZM75.7618 78.066C75.2085 78.3518 74.68 78.5422 74.4392 78.3993C74.2711 78.3038 74.68 77.9231 74.68 77.9231C74.68 77.9231 77.5412 74.8769 78.6709 73.4962C79.3206 72.6872 80.0894 71.7353 80.9072 70.6639V70.9732C80.9072 74.6151 77.3484 77.0666 75.7613 78.066H75.7618ZM93.3616 74.0914C92.9527 73.8055 93.0249 72.8536 94.3954 69.8784C94.9245 68.7121 96.1744 66.7608 98.3147 64.8804C98.555 65.6419 98.7236 66.38 98.6994 67.0701C98.6751 71.6638 95.3576 73.3773 93.3616 74.0914Z" fill="#CD6799"/>
</svg>
