<svg width="141" height="140" viewBox="0 0 141 140" fill="none" xmlns="http://www.w3.org/2000/svg">
<g clip-path="url(#clip0)">
<path d="M69.6791 0.0390625C34.0851 0.0390625 36.3075 15.4747 36.3075 15.4747L36.347 31.4666H70.3138V36.2678H22.856C22.856 36.2678 0.0793457 33.6846 0.0793457 69.5987C0.0793457 105.514 19.9593 104.24 19.9593 104.24H31.8237V87.5742C31.8237 87.5742 31.1841 67.6942 51.3863 67.6942H85.0753C85.0753 67.6942 104.003 68 104.003 49.4014V18.6497C104.003 18.6497 106.877 0.0390625 69.6791 0.0390625ZM50.9499 10.7933C51.7525 10.7925 52.5474 10.9501 53.2891 11.2569C54.0308 11.5638 54.7048 12.0138 55.2723 12.5814C55.8399 13.149 56.29 13.8229 56.5968 14.5646C56.9036 15.3063 57.0612 16.1012 57.0605 16.9038C57.0612 17.7065 56.9036 18.5014 56.5968 19.2431C56.29 19.9848 55.8399 20.6587 55.2723 21.2263C54.7048 21.7939 54.0308 22.2439 53.2891 22.5508C52.5474 22.8576 51.7525 23.0152 50.9499 23.0144C50.1472 23.0152 49.3523 22.8576 48.6106 22.5508C47.8689 22.2439 47.195 21.7939 46.6274 21.2263C46.0599 20.6587 45.6098 19.9848 45.3029 19.2431C44.9961 18.5014 44.8386 17.7065 44.8393 16.9038C44.8386 16.1012 44.9961 15.3063 45.3029 14.5646C45.6098 13.8229 46.0599 13.149 46.6274 12.5814C47.195 12.0138 47.8689 11.5638 48.6106 11.2569C49.3523 10.9501 50.1472 10.7925 50.9499 10.7933Z" fill="url(#paint0_linear)"/>
<path d="M70.6903 139.519C106.284 139.519 104.062 124.084 104.062 124.084L104.022 108.092H70.0551V103.291H117.513C117.513 103.291 140.29 105.874 140.29 69.959C140.29 34.0444 120.41 35.3181 120.41 35.3181H108.545V51.9836C108.545 51.9836 109.185 71.8636 88.9826 71.8636H55.2936C55.2936 71.8636 36.3662 71.5578 36.3662 90.1569V120.909C36.3662 120.909 33.4921 139.519 70.6898 139.519H70.6903ZM89.4196 128.766C88.6169 128.767 87.822 128.609 87.0803 128.302C86.3386 127.996 85.6647 127.546 85.0972 126.978C84.5296 126.41 84.0795 125.737 83.7727 124.995C83.4659 124.253 83.3083 123.458 83.309 122.656C83.3082 121.853 83.4657 121.058 83.7725 120.316C84.0793 119.574 84.5294 118.9 85.097 118.333C85.6645 117.765 86.3385 117.315 87.0802 117.008C87.8219 116.701 88.6169 116.544 89.4196 116.544C90.2223 116.544 91.0172 116.701 91.7589 117.008C92.5006 117.315 93.1745 117.765 93.7421 118.333C94.3096 118.9 94.7597 119.574 95.0665 120.316C95.3734 121.057 95.5309 121.852 95.5302 122.655C95.5309 123.458 95.3734 124.253 95.0665 124.994C94.7597 125.736 94.3096 126.41 93.7421 126.977C93.1745 127.545 92.5006 127.995 91.7589 128.302C91.0172 128.609 90.2223 128.766 89.4196 128.766V128.766Z" fill="url(#paint1_linear)"/>
</g>
<defs>
<linearGradient id="paint0_linear" x1="13.5535" y1="12.5845" x2="83.0371" y2="81.375" gradientUnits="userSpaceOnUse">
<stop stop-color="#387EB8"/>
<stop offset="1" stop-color="#366994"/>
</linearGradient>
<linearGradient id="paint1_linear" x1="56.203" y1="56.7572" x2="130.82" y2="127.296" gradientUnits="userSpaceOnUse">
<stop stop-color="#FFE052"/>
<stop offset="1" stop-color="#FFC331"/>
</linearGradient>
<clipPath id="clip0">
<rect width="140.549" height="140" fill="white"/>
</clipPath>
</defs>
</svg>
