<svg width="92" height="98" viewBox="0 0 92 98" fill="none" xmlns="http://www.w3.org/2000/svg">
<path d="M0 0H92V98H0V0Z" fill="#F7DF1E"/>
<path d="M24.1902 81.8959L31.2303 77.3572C32.5888 79.9225 33.8243 82.093 36.7881 82.093C39.6289 82.093 41.4204 80.9093 41.4204 76.3049V44.9916H50.0659V76.435C50.0659 85.9736 44.8169 90.3154 37.1586 90.3154C30.2424 90.3154 26.2278 86.4999 24.1898 81.8951" fill="black"/>
<path d="M54.762 80.909L61.8014 76.5675C63.6547 79.7912 66.0632 82.1592 70.324 82.1592C73.9066 82.1592 76.1908 80.2513 76.1908 77.6198C76.1908 74.4624 73.844 73.3438 69.8916 71.5025L67.7307 70.5148C61.493 67.687 57.3556 64.1345 57.3556 56.6352C57.3556 49.7278 62.2959 44.4648 70.0156 44.4648C75.5119 44.4648 79.4643 46.5045 82.3048 51.8328L75.573 56.4381C74.0906 53.6095 72.4856 52.4913 70.0153 52.4913C67.4831 52.4913 65.8774 54.2017 65.8774 56.4381C65.8774 59.2008 67.4831 60.3198 71.1883 62.0302L73.3495 63.0167C80.6988 66.3721 84.8362 69.7925 84.8362 77.4885C84.8362 85.778 78.7226 90.3166 70.509 90.3166C62.481 90.3166 57.2934 86.2381 54.7616 80.9093" fill="black"/>
</svg>
