<svg width="74" height="103" viewBox="0 0 74 103" fill="none" xmlns="http://www.w3.org/2000/svg">
<path d="M73.8714 20.1908L67.1533 94.4763L36.9549 102.74L6.83983 94.4877L0.128662 20.1908H73.8714Z" fill="#E44D26"/>
<path d="M37 96.4233L61.4018 89.746L67.1426 26.2655H37V96.4233Z" fill="#F16529"/>
<path d="M23.9402 44.4903H37.0001V35.3781H13.8511L14.0719 37.8227L16.3411 62.9336H37.0001V53.8213H24.784L23.9402 44.4903Z" fill="#EBEBEB"/>
<path d="M26.0208 67.4899H16.7534L18.0467 81.7975L36.9574 86.9788L36.9999 86.9674V77.4869L36.9595 77.4974L26.6781 74.7572L26.0208 67.4899Z" fill="#EBEBEB"/>
<path d="M6.9895 0H11.681V4.57508H15.9727V0H20.6645V13.8545H15.973V9.21522H11.6813V13.8545H6.98979V0H6.9895Z" fill="black"/>
<path d="M26.8337 4.59448H22.7041V0H35.6582V4.59448H31.526V13.8545H26.8345V4.59448H26.8342H26.8337Z" fill="black"/>
<path d="M37.714 0H42.6058L45.6149 4.8681L48.6212 0H53.515V13.8545H48.8426V6.98745L45.6149 11.9135H45.534L42.3043 6.98745V13.8545H37.714V0Z" fill="black"/>
<path d="M55.8498 0H60.5427V9.27513H67.1403V13.8545H55.8495V0H55.8498Z" fill="black"/>
<path d="M36.9682 62.9336H48.3361L47.2643 74.7515L36.9679 77.4946V86.9746L55.8937 81.7974L56.0324 80.2579L58.2021 56.2683L58.4273 53.8214H36.9682V62.9336Z" fill="white"/>
<path d="M36.9681 44.468V44.4903H59.2673L59.4523 42.4422L59.8732 37.8227L60.0937 35.3781H36.9681V44.4683V44.468Z" fill="white"/>
</svg>
