<svg width="130" height="140" viewBox="0 0 130 140" fill="none" xmlns="http://www.w3.org/2000/svg">
<g clip-path="url(#clip0)">
<path d="M129.927 31.6155C129.975 31.8016 130 31.9936 130 32.1866V62.1848C130 62.9686 129.599 63.6925 128.947 64.0822L104.838 78.5791V107.311C104.838 107.695 104.741 108.073 104.558 108.406C104.374 108.739 104.109 109.016 103.791 109.209L53.4625 139.464C53.3472 139.532 53.2218 139.576 53.0959 139.623C53.0486 139.639 53.0045 139.669 52.9547 139.683C52.6028 139.78 52.233 139.78 51.8812 139.683C51.8233 139.667 51.771 139.633 51.7161 139.612C51.6009 139.568 51.4805 139.53 51.3708 139.464L1.0527 109.208C0.732947 109.017 0.467259 108.74 0.282435 108.407C0.0976119 108.074 0.000190614 107.696 0 107.311L0 17.3164C0 17.1191 0.0264062 16.9277 0.073125 16.7421C0.0888672 16.679 0.12543 16.6217 0.146758 16.5586C0.185859 16.4441 0.22293 16.3263 0.280312 16.2197C0.319414 16.1487 0.376797 16.0914 0.424023 16.0257C0.484453 15.9382 0.539297 15.848 0.609883 15.7711C0.670312 15.7085 0.749023 15.6619 0.81707 15.6072C0.893242 15.5415 0.960781 15.4704 1.04711 15.4185H1.04965L26.2097 0.291031C26.5283 0.0995552 26.8895 -0.0012207 27.2571 -0.0012207C27.6247 -0.0012207 27.9858 0.0995552 28.3045 0.291031L53.4645 15.4185H53.4696C53.5534 15.4736 53.6245 15.5415 53.7002 15.6046C53.7682 15.6592 53.8444 15.7085 53.9043 15.769C53.9779 15.848 54.0302 15.9387 54.0927 16.0257C54.1374 16.0914 54.1978 16.1487 54.2344 16.2197C54.2943 16.329 54.3283 16.4441 54.3705 16.5591C54.3913 16.6217 54.4278 16.679 54.4436 16.7447C54.4918 16.9309 54.5167 17.1234 54.5172 17.3164V73.5254L75.4828 60.9185V32.184C75.4828 31.9931 75.5092 31.7985 75.5564 31.6155C75.5747 31.5497 75.6087 31.4925 75.6295 31.4299C75.6717 31.3148 75.7082 31.1966 75.7656 31.0905C75.8047 31.0194 75.8621 30.9622 75.9073 30.8964C75.9698 30.8089 76.0221 30.7188 76.0952 30.6419C76.1561 30.5793 76.2318 30.5326 76.2998 30.478C76.3786 30.4122 76.4466 30.3412 76.5304 30.2892H76.5329L101.696 15.1618C102.014 14.9701 102.375 14.8691 102.743 14.8691C103.111 14.8691 103.472 14.9701 103.79 15.1618L128.95 30.2892C129.039 30.3438 129.107 30.4122 129.186 30.4748C129.251 30.53 129.327 30.5793 129.388 30.6392C129.461 30.7188 129.513 30.8089 129.575 30.8964C129.623 30.9622 129.681 31.0194 129.718 31.0905C129.778 31.1966 129.812 31.3148 129.853 31.4299C129.877 31.4925 129.911 31.5497 129.927 31.6155ZM125.806 60.919V35.9735L117.001 41.2665L104.837 48.5804V73.5259L125.809 60.919H125.806ZM100.646 106.045V81.0822L88.6808 88.2185L54.5147 108.582V133.779L100.646 106.044V106.045ZM4.19402 21.1028V106.045L50.3202 133.777V108.585L26.2234 94.3429L26.2158 94.3376L26.2057 94.3323C26.1244 94.283 26.0559 94.212 25.9802 94.152C25.9142 94.0969 25.8385 94.0534 25.7811 93.9929L25.7761 93.985C25.708 93.9166 25.6608 93.8317 25.6034 93.7554C25.5506 93.6811 25.4881 93.6185 25.446 93.5422L25.4434 93.5337C25.3962 93.452 25.3673 93.3534 25.3332 93.2606C25.2992 93.1784 25.255 93.1015 25.2337 93.0145V93.0119C25.2078 92.9079 25.2027 92.7982 25.1921 92.6916C25.1819 92.6099 25.1606 92.5277 25.1606 92.4455V33.7102L12.999 26.3931L4.19402 21.106V21.1028ZM27.2599 4.71482L6.29637 17.3164L27.2548 29.9175L48.2153 17.3132L27.2548 4.71482H27.2599ZM38.1616 83.3577L50.3227 76.0469V21.1028L41.5187 26.3963L29.3541 33.7097V88.6533L38.1616 83.3577ZM102.743 19.5856L81.7822 32.1866L102.743 44.7882L123.701 32.184L102.743 19.5856H102.743ZM100.645 48.5804L88.4818 41.2665L79.6773 35.9735V60.919L91.8384 68.2303L100.646 73.5259V48.5804H100.645ZM52.4149 104.796L83.1594 86.4663L98.5278 77.3069L77.5826 64.7138L53.4671 79.2123L31.4879 92.4264L52.4149 104.796Z" fill="#FF2D20"/>
</g>
<defs>
<clipPath id="clip0">
<rect width="130" height="140" fill="white"/>
</clipPath>
</defs>
</svg>
