<?xml version="1.0" encoding="utf-8"?><svg xmlns="http://www.w3.org/2000/svg" xmlns:xlink="http://www.w3.org/1999/xlink"><symbol fill="none" viewBox="0 0 40 40" id="ant-design_facebook-filled" xmlns="http://www.w3.org/2000/svg"><path d="M34.375 4.375H5.625c-.691 0-1.25.559-1.25 1.25v28.75c0 .691.559 1.25 1.25 1.25h28.75c.691 0 1.25-.559 1.25-1.25V5.625c0-.691-.559-1.25-1.25-1.25zm-3.61 9.121H28.27c-1.957 0-2.336.93-2.336 2.297v3.012h4.671l-.609 4.715h-4.062v12.105h-4.872V23.523h-4.074v-4.718h4.075v-3.477c0-4.035 2.464-6.234 6.066-6.234 1.726 0 3.207.129 3.64.187v4.215h-.003z" fill="#3B5998"/></symbol><symbol fill="none" viewBox="0 0 40 40" id="ant-design_linkedin-filled" xmlns="http://www.w3.org/2000/svg"><path d="M34.375 4.375H5.625c-.691 0-1.25.559-1.25 1.25v28.75c0 .691.559 1.25 1.25 1.25h28.75c.691 0 1.25-.559 1.25-1.25V5.625c0-.691-.559-1.25-1.25-1.25zm-20.73 26.629H9.008V16.09h4.637v14.914zM11.328 14.05a2.688 2.688 0 110-5.375 2.688 2.688 0 010 5.375zm19.676 16.953H26.37V23.75c0-1.73-.031-3.953-2.41-3.953-2.41 0-2.781 1.883-2.781 3.828v7.379h-4.63V16.09h4.446v2.039h.063c.617-1.172 2.128-2.41 4.386-2.41 4.696 0 5.559 3.09 5.559 7.105v8.18z" fill="#0E76A8"/></symbol><symbol fill="none" viewBox="0 0 30 30" id="bi_file-person-fill" xmlns="http://www.w3.org/2000/svg"><path fill-rule="evenodd" clip-rule="evenodd" d="M3.75 5.625a3.75 3.75 0 013.75-3.75h15a3.75 3.75 0 013.75 3.75v18.75a3.75 3.75 0 01-3.75 3.75h-15a3.75 3.75 0 01-3.75-3.75V5.625zM15 18.75A5.625 5.625 0 1015 7.5a5.625 5.625 0 000 11.25zm9.375 5.166c-1.601-1.744-4.457-3.291-9.375-3.291s-7.774 1.549-9.375 3.29v.46A1.875 1.875 0 007.5 26.25h15a1.875 1.875 0 001.875-1.875v-.46z" fill="#ECC313"/></symbol><symbol fill="none" viewBox="0 0 140 140" id="dashicons_database" xmlns="http://www.w3.org/2000/svg"><path d="M70 42c27.3 0 49-6.3 49-14S97.3 14 70 14s-49 6.3-49 14 21.7 14 49 14zm0 63c-27.3 0-49-6.3-49-14v21c0 7.7 21.7 14 49 14s49-6.3 49-14V91c0 7.7-21.7 14-49 14zm0-28c-27.3 0-49-6.3-49-14v21c0 7.7 21.7 14 49 14s49-6.3 49-14V63c0 7.7-21.7 14-49 14zm0-28c-27.3 0-49-6.3-49-14v21c0 7.7 21.7 14 49 14s49-6.3 49-14V35c0 7.7-21.7 14-49 14z" fill="#F1F3F4"/></symbol><symbol fill="none" viewBox="0 0 285 186" id="digital-wave" xmlns="http://www.w3.org/2000/svg"><path d="M5.44 76.821c-3.005 0-5.44 2.665-5.44 5.951v19.678c0 3.287 2.435 5.952 5.44 5.952 3.004 0 5.439-2.665 5.439-5.952V82.772c0-3.287-2.435-5.95-5.44-5.95zM30.319 76.821c-3.005 0-5.44 2.665-5.44 5.951v19.678c0 3.287 2.435 5.952 5.44 5.952 3.004 0 5.439-2.665 5.439-5.952V82.772c0-3.287-2.435-5.95-5.44-5.95zM55.197 68.495c-3.004 0-5.44 2.665-5.44 5.951v36.329c0 3.287 2.436 5.952 5.44 5.952 3.005 0 5.44-2.665 5.44-5.952V74.446c0-3.286-2.435-5.95-5.44-5.95zM80.076 58.657c-3.004 0-5.44 2.664-5.44 5.951v56.007c0 3.286 2.436 5.951 5.44 5.951 3.005 0 5.44-2.665 5.44-5.951V64.608c0-3.288-2.435-5.951-5.44-5.951zM104.955 41.249c-3.004 0-5.44 2.664-5.44 5.951v90.821c0 3.287 2.436 5.952 5.44 5.952 3.005 0 5.44-2.665 5.44-5.952v-90.82c0-3.288-2.435-5.952-5.44-5.952zM129.834 0c-3.004 0-5.439 2.665-5.439 5.951V179.27c0 3.286 2.435 5.951 5.439 5.951 3.005 0 5.44-2.665 5.44-5.951V5.951c0-3.286-2.435-5.951-5.44-5.951zM154.713 14.758c-3.004 0-5.439 2.665-5.439 5.952v143.802c0 3.287 2.435 5.951 5.439 5.951 3.005 0 5.44-2.664 5.44-5.951V20.71c0-3.288-2.435-5.952-5.44-5.952zM179.592 44.276c-3.004 0-5.439 2.664-5.439 5.951v84.767c0 3.287 2.435 5.951 5.439 5.951s5.44-2.664 5.44-5.951V50.227c0-3.287-2.436-5.951-5.44-5.951zM204.471 62.06c-3.004 0-5.439 2.665-5.439 5.952v49.196c0 3.287 2.435 5.951 5.439 5.951s5.44-2.664 5.44-5.951V68.012c0-3.287-2.436-5.951-5.44-5.951zM229.35 69.63c-3.004 0-5.439 2.665-5.439 5.952v34.058c0 3.287 2.435 5.952 5.439 5.952 3.005 0 5.44-2.665 5.44-5.952V75.582c0-3.287-2.435-5.951-5.44-5.951zM254.229 76.821c-3.004 0-5.439 2.665-5.439 5.951v19.678c0 3.287 2.435 5.952 5.439 5.952 3.005 0 5.44-2.665 5.44-5.952V82.772c0-3.287-2.435-5.95-5.44-5.95zM279.108 76.821c-3.004 0-5.439 2.665-5.439 5.951v19.678c0 3.287 2.435 5.952 5.439 5.952 3.005 0 5.44-2.665 5.44-5.952V82.772c0-3.287-2.435-5.95-5.44-5.95z" fill="#383B3D"/></symbol><symbol fill="none" viewBox="0 0 127 127" id="eva_arrow-up-fill" xmlns="http://www.w3.org/2000/svg"><path d="M85.778 84.666H41.222a9.314 9.314 0 01-8.414-5.292 11.112 11.112 0 011.376-11.694l22.278-26.988a9.314 9.314 0 0114.076 0L92.816 67.68a11.113 11.113 0 011.376 11.694 9.314 9.314 0 01-8.414 5.292z" fill="#000"/></symbol><symbol fill="none" viewBox="0 0 30 30" id="eva_pin-fill" xmlns="http://www.w3.org/2000/svg"><path d="M15 13.75A1.875 1.875 0 1015 10a1.875 1.875 0 000 3.75z" fill="#ECC313"/><path d="M15 2.5a10 10 0 00-10 9.9c0 6.85 8.813 14.475 9.188 14.8a1.25 1.25 0 001.624 0C16.25 26.875 25 19.25 25 12.4a10 10 0 00-10-9.9zm0 13.75a4.375 4.375 0 110-8.75 4.375 4.375 0 010 8.75z" fill="#ECC313"/></symbol><symbol fill="none" viewBox="0 0 100 112" id="fa-brands_git-alt" xmlns="http://www.w3.org/2000/svg"><g clip-path="url(#hclip0)"><path d="M98.114 51.636L54.464 8.848a6.512 6.512 0 00-4.554-1.847 6.512 6.512 0 00-4.555 1.847l-9.076 8.888 11.5 11.27c6.04-2 11.759 3.669 9.685 9.555L68.55 49.424c7.64-2.58 13.656 6.782 7.917 12.401-5.912 5.795-15.671-.628-12.5-8.168L53.62 43.531v26.655c5.648 2.743 4.97 9.155 2.027 12.031a7.745 7.745 0 01-5.418 2.199 7.745 7.745 0 01-5.419-2.199c-3.922-3.85-2.47-10.261 2.511-12.25V43.061c-4.642-1.862-5.49-6.724-4.16-9.844L31.824 22.094 1.886 51.437A6.25 6.25 0 000 55.9a6.25 6.25 0 001.886 4.463l43.663 42.788a6.509 6.509 0 004.554 1.847 6.509 6.509 0 004.553-1.847l43.458-42.589A6.25 6.25 0 00100 56.1a6.25 6.25 0 00-1.886-4.463z" fill="#FB4F28"/></g><defs><clipPath id="hclip0"><path fill="#fff" d="M0 0h100v112H0z"/></clipPath></defs></symbol><symbol fill="none" viewBox="0 0 100 100" id="grommet-icons_figma" xmlns="http://www.w3.org/2000/svg"><path d="M66.667 66.667c9.204 0 16.666-7.462 16.666-16.667 0-9.205-7.462-16.667-16.666-16.667C57.462 33.333 50 40.795 50 50c0 9.205 7.462 16.667 16.667 16.667z" fill="#19BCFE"/><path fill-rule="evenodd" clip-rule="evenodd" d="M33.333 100A16.667 16.667 0 0050 83.333V66.667H33.333a16.667 16.667 0 000 33.333z" fill="#09CF83"/><path fill-rule="evenodd" clip-rule="evenodd" d="M33.333 66.667H50V33.333H33.333a16.667 16.667 0 100 33.334z" fill="#A259FF"/><path fill-rule="evenodd" clip-rule="evenodd" d="M33.333 33.333H50V0H33.333a16.667 16.667 0 100 33.333z" fill="#F24E1E"/><path fill-rule="evenodd" clip-rule="evenodd" d="M66.667 33.333H50V0h16.667a16.667 16.667 0 010 33.333z" fill="#FF7262"/></symbol><symbol fill="none" viewBox="0 0 161 161" id="icomoon-free_wordpress" xmlns="http://www.w3.org/2000/svg"><g clip-path="url(#jclip0)"><path d="M20.125 80.5c0 23.275 13.886 43.389 34.031 52.919L25.358 56.571A57.286 57.286 0 0020.125 80.5zm101.128-2.968c0-7.266-2.677-12.297-4.981-16.221-3.059-4.85-5.927-8.946-5.927-13.796 0-5.403 4.206-10.435 10.143-10.435.272 0 .524.03.785.05A61.018 61.018 0 0080.5 21.696a60.737 60.737 0 00-50.443 26.504c1.419.04 2.757.07 3.884.07 6.309 0 16.09-.744 16.09-.744 3.25-.18 3.632 4.468.382 4.85 0 0-3.27.373-6.913.554l21.987 63.695 13.212-38.59L69.29 52.93c-2.114-.13-4.224-.315-6.329-.554-3.25-.19-2.868-5.03.382-4.85 0 0 9.972.745 15.9.745 6.308 0 16.09-.745 16.09-.745 3.25-.18 3.642 4.468.382 4.85 0 0-3.28.373-6.913.554l21.815 63.212 6.028-19.591c2.606-8.14 4.598-13.977 4.598-19.008l.01-.01zm-39.696 8.11L63.444 136.91a61.86 61.86 0 0037.1-.935 5.385 5.385 0 01-.432-.815L81.557 85.642zm51.922-33.357c.262 1.871.403 3.884.403 6.047 0 5.967-1.148 12.669-4.589 21.061l-18.445 51.923c17.952-10.194 30.017-29.131 30.017-50.826a57.327 57.327 0 00-7.396-28.205h.01zM80.5 0a80.5 80.5 0 100 161 80.5 80.5 0 000-161zm0 150.938A70.44 70.44 0 0110.062 80.5 70.437 70.437 0 1180.5 150.938z" fill="#E3DBDB"/></g><defs><clipPath id="jclip0"><path fill="#fff" d="M0 0h161v161H0z"/></clipPath></defs></symbol><symbol fill="none" viewBox="0 0 130 140" id="logos_angular-icon" xmlns="http://www.w3.org/2000/svg"><path d="M.05 23.43L63.939.36l65.607 22.661-10.623 85.673-54.984 30.865-54.125-30.455L.051 23.43z" fill="#E23237"/><path d="M129.545 23.02L63.938.36v139.199l54.984-30.814 10.623-85.724z" fill="#B52E31"/><path d="M64.039 16.612l-39.81 89.774 14.872-.256 7.992-20.252h35.712l8.751 20.508 14.214.256-41.731-90.03zm.101 28.762L77.595 73.88H52.303L64.14 45.374z" fill="#fff"/></symbol><symbol fill="none" viewBox="0 0 73 105" id="logos_css-3" xmlns="http://www.w3.org/2000/svg"><path d="M36.456 104.735L6.747 96.323l-6.62-75.74h72.746L66.246 96.31l-29.79 8.424z" fill="#264DE4"/><path d="M60.572 91.489l5.663-64.713H36.5v71.52l24.072-6.807z" fill="#2965F1"/><path d="M15.304 54.867l.816 9.289H36.5v-9.29H15.304zM13.664 36.065l.828 9.29H36.5v-9.29H13.664zM36.5 78.991l-.04.011-10.142-2.793-.649-7.409h-9.142l1.276 14.586 18.655 5.282.042-.012v-9.665z" fill="#EBEBEB"/><path d="M17.247 0h11.03v4.705H21.86V9.41h6.418v4.704h-11.03V0zM30.483 0h11.03v4.091h-6.417v.818h6.418v9.41h-11.03v-4.296H36.9v-.818h-6.418V0zM43.72 0h11.03v4.091h-6.417v.818h6.417v9.41H43.72v-4.296h6.417v-.818H43.72V0z" fill="#000"/><path d="M57.638 54.867l1.644-18.802H36.469v9.29H49.3l-.828 9.512H36.469v9.289h11.214l-1.057 12.047-10.158 2.796v9.664l18.67-5.277.137-1.57 2.14-24.455.223-2.494z" fill="#fff"/></symbol><symbol fill="none" viewBox="0 0 110 140" id="logos_django" xmlns="http://www.w3.org/2000/svg"><g clip-path="url(#mclip0)" fill="#2BA977"><path d="M49.294 0h22.88v104.867c-11.72 2.217-20.347 3.089-29.682 3.089C14.547 107.927 0 95.443 0 71.466 0 48.362 15.43 33.37 39.34 33.37c3.711 0 6.538.292 9.954 1.167V0zm.802 53.435c-2.68-.875-4.888-1.167-7.715-1.167-11.573 0-18.257 7.059-18.257 19.43 0 12.044 6.39 18.694 18.11 18.694 2.532 0 4.593-.142 7.861-.58V53.435z"/><path d="M109.59 36.185v52.506c0 18.082-1.355 26.777-5.33 34.274-3.711 7.208-8.599 11.752-18.699 16.772l-21.23-10.005c10.1-4.694 14.987-8.841 18.109-15.171 3.268-6.472 4.299-13.969 4.299-33.688V36.186h22.851zM84.433 0h22.88v23.248h-22.88V0z"/></g><defs><clipPath id="mclip0"><path fill="#fff" d="M0 0h109.939v140H0z"/></clipPath></defs></symbol><symbol fill="none" viewBox="0 0 74 103" id="logos_html-5" xmlns="http://www.w3.org/2000/svg"><path d="M73.871 20.19l-6.718 74.286-30.198 8.264L6.84 94.488.129 20.19H73.87z" fill="#E44D26"/><path d="M37 96.423l24.402-6.677 5.74-63.48H37v70.157z" fill="#F16529"/><path d="M23.94 44.49H37v-9.112H13.851l.22 2.445 2.27 25.11h20.66v-9.112H24.783l-.844-9.33zM26.02 67.49h-9.267l1.294 14.308 18.91 5.18.043-.01v-9.481l-.04.01-10.282-2.74-.657-7.267z" fill="#EBEBEB"/><path d="M6.99 0h4.691v4.575h4.292V0h4.691v13.854h-4.691V9.215h-4.292v4.64H6.99V0zM26.834 4.594h-4.13V0h12.954v4.594h-4.132v9.26h-4.692v-9.26zM37.714 0h4.892l3.009 4.868L48.62 0h4.894v13.854h-4.672V6.987l-3.228 4.927h-.081l-3.23-4.927v6.867h-4.59V0zM55.85 0h4.693v9.275h6.597v4.58H55.85V0z" fill="#000"/><path d="M36.968 62.934h11.368L47.264 74.75l-10.296 2.744v9.48l18.926-5.178.138-1.54 2.17-23.989.225-2.447H36.968v9.113zM36.968 44.468v.022h22.3l.184-2.048.421-4.62.22-2.444H36.969v9.09z" fill="#fff"/></symbol><symbol fill="none" viewBox="0 0 92 98" id="logos_javascript" xmlns="http://www.w3.org/2000/svg"><path d="M0 0h92v98H0V0z" fill="#F7DF1E"/><path d="M24.19 81.896l7.04-4.539c1.359 2.566 2.594 4.736 5.558 4.736 2.84 0 4.632-1.184 4.632-5.788V44.992h8.646v31.443c0 9.539-5.25 13.88-12.907 13.88-6.917 0-10.931-3.815-12.97-8.42M54.762 80.909l7.04-4.342c1.853 3.224 4.261 5.592 8.522 5.592 3.583 0 5.867-1.908 5.867-4.54 0-3.157-2.347-4.275-6.3-6.117l-2.16-.987c-6.238-2.828-10.375-6.38-10.375-13.88 0-6.907 4.94-12.17 12.66-12.17 5.496 0 9.448 2.04 12.289 7.368l-6.732 4.605c-1.482-2.829-3.087-3.947-5.558-3.947-2.532 0-4.138 1.71-4.138 3.947 0 2.763 1.606 3.882 5.311 5.592l2.162.987c7.349 3.355 11.486 6.776 11.486 14.471 0 8.29-6.113 12.829-14.327 12.829-8.028 0-13.216-4.079-15.747-9.408" fill="#000"/></symbol><symbol fill="none" viewBox="0 0 130 140" id="logos_laravel" xmlns="http://www.w3.org/2000/svg"><g clip-path="url(#pclip0)"><path d="M129.927 31.616c.048.186.073.378.073.57v29.999c0 .784-.401 1.508-1.053 1.897L104.838 78.58v28.732c0 .384-.097.762-.28 1.095a2.16 2.16 0 01-.767.803l-50.328 30.255c-.116.068-.241.112-.367.159-.047.016-.091.046-.141.06a2.016 2.016 0 01-1.074 0c-.058-.016-.11-.05-.165-.071-.115-.044-.236-.082-.345-.148L1.053 109.208a2.14 2.14 0 01-.77-.801A2.263 2.263 0 010 107.311V17.316c0-.197.026-.388.073-.574.016-.063.052-.12.074-.183.039-.115.076-.233.133-.34.04-.07.097-.128.144-.193.06-.088.115-.178.186-.255.06-.063.139-.11.207-.164.076-.066.144-.137.23-.188h.003L26.21.29c.318-.191.68-.292 1.047-.292.368 0 .729.1 1.047.292l25.16 15.127h.006c.083.056.154.123.23.187.068.054.144.104.204.164.074.079.126.17.189.257.044.065.105.123.141.194.06.109.094.224.136.34.021.062.058.119.074.185.048.186.073.378.073.571v56.21l20.966-12.607V32.184c0-.19.026-.385.073-.568.019-.066.053-.123.073-.186.043-.115.08-.233.137-.34.039-.07.096-.128.141-.194.063-.087.115-.177.188-.254.061-.063.137-.11.205-.164.079-.066.147-.137.23-.189h.003l25.163-15.127a2.026 2.026 0 012.094 0l25.16 15.127c.089.055.157.123.236.186.065.055.141.104.202.164.073.08.125.17.187.257.048.066.106.123.143.194.06.107.094.225.135.34.024.063.058.12.074.186zm-4.121 29.303V35.974l-8.805 5.293-12.164 7.313v24.946l20.972-12.607h-.003zm-25.16 45.126V81.082L88.681 88.22l-34.166 20.363v25.197l46.131-27.735v.001zM4.194 21.103v84.942l46.126 27.732v-25.192L26.223 94.343l-.007-.005-.01-.006c-.082-.049-.15-.12-.226-.18-.066-.055-.142-.099-.199-.16l-.005-.007c-.068-.068-.115-.153-.173-.23-.052-.074-.115-.136-.157-.213l-.003-.008c-.047-.082-.076-.18-.11-.273-.034-.083-.078-.16-.1-.246v-.003c-.025-.104-.03-.214-.04-.32-.011-.082-.032-.164-.032-.246V33.71l-12.162-7.317-8.805-5.287v-.003zM27.26 4.715L6.296 17.316l20.959 12.602 20.96-12.605-20.96-12.598h.005zm10.902 78.643l12.16-7.311V21.103l-8.803 5.293-12.165 7.314v54.943l8.808-5.295zm64.581-63.772l-20.96 12.6 20.96 12.602 20.958-12.604-20.958-12.598zm-2.098 28.994l-12.163-7.313-8.805-5.294V60.92l12.161 7.311 8.808 5.296V48.58h-.001zm-48.23 56.216l30.744-18.33 15.369-9.16-20.945-12.592-24.116 14.498-21.98 13.214 20.928 12.37z" fill="#FF2D20"/></g><defs><clipPath id="pclip0"><path fill="#fff" d="M0 0h130v140H0z"/></clipPath></defs></symbol><symbol fill="none" viewBox="0 0 122 140" id="logos_linux-tux" xmlns="http://www.w3.org/2000/svg"><g clip-path="url(#qclip0)"><g filter="url(#qfilter0_f)"><path d="M116.331 118.34c0 8.236-24.971 14.948-55.782 14.948-30.811 0-55.782-6.668-55.782-14.948 0-8.237 24.971-14.948 55.781-14.948 30.812 0 55.739 6.711 55.783 14.948z" fill="#000" fill-opacity=".2"/></g><path d="M30 102.259c-5.404-7.758-6.45-33.034 6.144-48.592 6.232-7.452 7.845-12.638 8.324-19.654C44.816 26.038 38.846 2.287 61.333.5c22.792-1.83 21.529 20.657 21.398 32.554-.087 10.023 7.365 15.732 12.507 23.577 9.457 14.381 8.673 39.134-1.787 52.557-13.248 16.778-24.578 9.5-32.118 10.11-14.12.828-14.599 8.324-31.333-17.039z" fill="#000"/><path d="M84.997 58.112c3.922 3.617 14.076 19.785-2.005 29.896-5.665 3.53 5.056 16.952 10.198 10.46 9.108-11.68 3.312-30.332-2.18-37-3.66-4.707-9.325-6.537-6.013-3.356z" fill="url(#qpaint0_linear)"/><path d="M83.907 55.933c6.45 5.23 18.173 23.533 1.047 35.474-5.622 3.705 4.967 15.428 10.938 9.457 20.7-20.831-.523-44.757-7.845-52.993-6.537-7.19-12.333 1.656-4.14 8.062z" fill="#000" stroke="#000" stroke-width=".977"/><path d="M74.625 11.874c-.218 5.97-6.799 11.157-14.686 11.636-7.888.48-14.076-4.053-13.859-10.023.218-5.97 6.799-11.157 14.687-11.636 7.887-.436 14.076 4.053 13.858 10.023z" fill="url(#qpaint1_linear)"/><path d="M55.755 26.081c.218 3.879-1.612 7.147-4.14 7.278-2.528.13-4.75-2.876-4.968-6.755-.218-3.878 1.612-7.147 4.14-7.277 2.528-.131 4.75 2.876 4.968 6.754z" fill="url(#qpaint2_linear)"/><path d="M60.33 26.386c.088 4.489 3.008 8.062 6.494 7.975 3.486-.087 6.232-3.791 6.145-8.324-.087-4.488-3.007-8.062-6.494-7.974-3.486.086-6.275 3.834-6.144 8.323z" fill="url(#qpaint3_linear)"/><path d="M63.207 27.389c-.044 2.483 1.177 4.488 2.789 4.488 1.569 0 2.92-2.005 2.964-4.445.043-2.484-1.177-4.489-2.79-4.489-1.612 0-2.92 2.005-2.963 4.445zM53.14 27.432c.218 2.049-.566 3.792-1.7 3.966-1.132.13-2.222-1.395-2.44-3.443-.218-2.048.567-3.792 1.7-3.966 1.133-.13 2.222 1.395 2.44 3.443z" fill="#000"/><path d="M63.86 25.994c-.13 1.395.524 2.527 1.439 2.615.915.087 1.787-1.003 1.917-2.354.131-1.394-.523-2.527-1.438-2.615-.915-.087-1.787 1.003-1.917 2.354z" fill="url(#qpaint4_linear)"/><path d="M52.181 26.343c.131 1.133-.348 2.135-1.045 2.222-.698.087-1.352-.784-1.483-1.96-.13-1.134.35-2.136 1.047-2.223.697-.088 1.35.827 1.481 1.96z" fill="url(#qpaint5_linear)"/><path d="M38.453 69.138c3.095-7.017 9.675-19.35 9.806-28.894 0-7.582 22.705-9.413 24.536-1.83 1.83 7.583 6.45 18.914 9.412 24.405 2.964 5.447 11.55 22.836 2.398 38.001-8.237 13.423-33.208 24.056-46.544-1.83-4.532-8.977-3.704-20.09.392-29.852z" fill="url(#qpaint6_linear)"/><path d="M35.664 63.908c-2.658 5.012-8.149 18.173 5.274 25.364 14.425 7.67 14.381 23.402-2.964 15.906-15.862-6.754-8.846-34.123-4.401-40.66 2.876-4.575 7.234-10.197 2.091-.61z" fill="url(#qpaint7_linear)"/><path d="M37.93 58.243c-4.227 6.886-14.337 23.097-.783 31.552 18.216 11.2 13.073 22.356-3.574 12.289-23.446-14.032-2.833-42.36 6.537-53.167 10.72-12.115 2.048 2.223-2.18 9.326v0z" fill="#000" stroke="#000" stroke-width="1.25"/><path d="M78.983 71.796c0 7.67-7.365 17.607-20.004 17.52-13.03.086-18.564-9.85-18.564-17.52s8.629-13.902 19.262-13.902c10.677.044 19.306 6.232 19.306 13.902z" fill="url(#qpaint8_linear)"/><path d="M72.098 47.697c-.131 7.931-5.318 9.805-11.854 9.805-6.538 0-11.288-1.177-11.854-9.805 0-5.404 5.316-8.542 11.854-8.542 6.536-.043 11.853 3.094 11.853 8.542z" fill="url(#qpaint9_linear)"/><path d="M32.57 59.899c4.271-6.493 13.292-16.473 1.7 1.395-9.413 14.73-3.486 24.187-.436 26.801 8.803 7.845 8.455 13.117 1.526 8.978-14.861-8.847-11.767-23.752-2.79-37.174z" fill="url(#qpaint10_linear)"/><path d="M94.41 62.557c-3.704-7.626-15.47-26.975.567-4.489 14.599 20.352 4.358 34.516 2.527 35.91-1.83 1.395-7.975 4.228-6.188-.697 1.83-4.925 10.895-14.25 3.094-30.724z" fill="url(#qpaint11_linear)"/><path d="M29.346 122.698c-9.762-5.186-23.926 1.002-18.783-13.031 1.046-3.181-1.526-7.975.13-11.07 1.962-3.79 6.189-2.962 8.716-5.49 2.484-2.615 4.053-7.147 8.716-6.45 4.62.697 7.714 6.363 10.939 13.336 2.397 4.967 10.851 11.984 10.285 17.562-.698 8.542-10.416 10.154-20.003 5.143z" fill="url(#qpaint12_linear)" stroke="#E68C3F" stroke-width="6.25"/><path d="M100.424 89.751c-1.482 2.79-7.67 7.278-11.81 6.101-4.184-1.133-6.101-7.496-5.273-12.333.784-5.404 5.273-5.71 10.939-3.007 6.101 3.007 7.931 5.535 6.144 9.24z" fill="url(#qpaint13_linear)"/><path d="M97.025 120.3c7.147-8.672 23.054-6.885 12.333-18.782-2.266-2.572-1.569-8.063-4.358-10.416-3.268-2.876-6.885-.523-10.198-2.004-3.312-1.613-6.798-4.707-10.85-2.528-4.054 2.223-4.49 7.975-4.882 15.558-.349 5.447-5.316 14.555-2.658 19.567 3.835 7.757 13.815 6.711 20.613-1.394v-.001z" fill="url(#qpaint14_linear)" stroke="#E68C3F" stroke-width="6.251"/><path d="M93.93 108.708c11.07-16.342 2.834-16.211.044-17.475-2.789-1.308-5.709-3.879-8.977-2.092-3.269 1.83-3.443 6.537-3.53 12.725-.13 4.446-3.835 11.898-1.612 16.038 2.701 4.837 9.238-2.179 14.075-9.196z" fill="url(#qpaint15_linear)"/><path d="M27.08 111.062c-16.56-10.721-8.804-14.382-6.32-16.081 3.007-2.18 3.051-6.363 6.755-5.97 3.705.391 5.883 4.967 8.367 10.633 1.83 4.053 8.193 9.457 7.714 14.12-.61 5.491-9.37 1.873-16.517-2.702z" fill="url(#qpaint16_linear)"/><path d="M99.466 89.62c-1.308 2.267-6.625 5.84-10.154 4.881-3.618-.915-5.274-6.014-4.533-9.849.654-4.358 4.532-4.575 9.413-2.396 5.186 2.353 6.799 4.357 5.274 7.364z" fill="#000"/><path d="M95.892 88.357c-.828 1.569-4.314 4.052-6.755 3.399-2.44-.653-3.66-4.183-3.268-6.842.348-3.007 2.963-3.182 6.275-1.7 3.573 1.657 4.707 3.051 3.748 5.143z" fill="url(#qpaint17_linear)"/><path d="M50.83 31.485c1.744-1.613 5.97-6.537 13.99-1.395 1.481.959 2.701 1.046 5.534 2.266 5.71 2.354 3.007 8.02-3.094 9.937-2.615.828-4.968 4.01-9.675 3.704-4.053-.218-5.099-2.876-7.583-4.314-4.401-2.484-5.055-5.84-2.658-7.627 2.397-1.786 3.312-2.44 3.486-2.57z" fill="url(#qpaint18_linear)" stroke="#E68C3F" stroke-width="3.75"/><path d="M70.441 36.061c-2.396.13-7.583 5.317-13.03 5.317-5.448 0-8.716-5.056-9.544-5.056" stroke="#E68C3F" stroke-width="2.5"/><path d="M53.532 31.05c.872-.785 3.618-2.92 7.235-.742.784.436 1.569.916 2.701 1.57 2.31 1.35 1.177 3.312-1.612 4.531-1.264.523-3.355 1.657-4.924 1.57-1.744-.175-2.92-1.308-4.053-2.05-2.136-1.393-2.005-2.57-1.002-3.485.74-.698 1.568-1.351 1.656-1.395z" fill="url(#qpaint19_linear)"/></g><defs><linearGradient id="qpaint0_linear" x1="89.427" y1="106.891" x2="92.287" y2="74.813" gradientUnits="userSpaceOnUse"><stop stop-color="#FFEED7"/><stop offset="1" stop-color="#BDBFC2"/></linearGradient><linearGradient id="qpaint1_linear" x1="61.611" y1="2.344" x2="60.245" y2="21.561" gradientUnits="userSpaceOnUse"><stop stop-color="#fff" stop-opacity=".8"/><stop offset="1" stop-color="#fff" stop-opacity="0"/></linearGradient><linearGradient id="qpaint2_linear" x1="51.371" y1="31.713" x2="50.53" y2="20.728" gradientUnits="userSpaceOnUse"><stop stop-color="#FFEED7"/><stop offset="1" stop-color="#BDBFC2"/></linearGradient><linearGradient id="qpaint3_linear" x1="66.639" y1="31.998" x2="66.639" y2="20.313" gradientUnits="userSpaceOnUse"><stop stop-color="#FFEED7"/><stop offset="1" stop-color="#BDBFC2"/></linearGradient><linearGradient id="qpaint4_linear" x1="65.671" y1="23.79" x2="65.095" y2="28.27" gradientUnits="userSpaceOnUse"><stop stop-color="#fff" stop-opacity=".65"/><stop offset="1" stop-color="#fff" stop-opacity="0"/></linearGradient><linearGradient id="qpaint5_linear" x1="50.804" y1="24.606" x2="51.424" y2="28.234" gradientUnits="userSpaceOnUse"><stop stop-color="#fff" stop-opacity=".65"/><stop offset="1" stop-color="#fff" stop-opacity="0"/></linearGradient><linearGradient id="qpaint6_linear" x1="61.849" y1="106.573" x2="61.849" y2="66.58" gradientUnits="userSpaceOnUse"><stop stop-color="#FFEED7"/><stop offset="1" stop-color="#BDBFC2"/></linearGradient><linearGradient id="qpaint7_linear" x1="40.577" y1="107.14" x2="30.369" y2="72.34" gradientUnits="userSpaceOnUse"><stop stop-color="#FFEED7"/><stop offset="1" stop-color="#BDBFC2"/></linearGradient><linearGradient id="qpaint8_linear" x1="59.638" y1="62.051" x2="59.74" y2="87.642" gradientUnits="userSpaceOnUse"><stop stop-color="#fff" stop-opacity=".8"/><stop offset="1" stop-color="#fff" stop-opacity="0"/></linearGradient><linearGradient id="qpaint9_linear" x1="60.226" y1="46.003" x2="60.34" y2="56.179" gradientUnits="userSpaceOnUse"><stop stop-color="#fff" stop-opacity=".65"/><stop offset="1" stop-color="#fff" stop-opacity="0"/></linearGradient><linearGradient id="qpaint10_linear" x1="32.746" y1="52.284" x2="32.746" y2="89.626" gradientUnits="userSpaceOnUse"><stop stop-color="#fff" stop-opacity=".65"/><stop offset="1" stop-color="#fff" stop-opacity="0"/></linearGradient><linearGradient id="qpaint11_linear" x1="94.709" y1="48.636" x2="94.695" y2="82.377" gradientUnits="userSpaceOnUse"><stop stop-color="#fff" stop-opacity=".65"/><stop offset="1" stop-color="#fff" stop-opacity="0"/></linearGradient><linearGradient id="qpaint12_linear" x1="30.807" y1="105.635" x2="25.269" y2="124.859" gradientUnits="userSpaceOnUse"><stop stop-color="#FFA63F"/><stop offset="1" stop-color="#FF0"/></linearGradient><linearGradient id="qpaint13_linear" x1="92.54" y1="103.442" x2="91.749" y2="67.731" gradientUnits="userSpaceOnUse"><stop stop-color="#FFEED7"/><stop offset="1" stop-color="#BDBFC2"/></linearGradient><linearGradient id="qpaint14_linear" x1="87.049" y1="99.824" x2="102.128" y2="121.186" gradientUnits="userSpaceOnUse"><stop stop-color="#FFA63F"/><stop offset="1" stop-color="#FF0"/></linearGradient><linearGradient id="qpaint15_linear" x1="91.298" y1="83.197" x2="86.144" y2="108.424" gradientUnits="userSpaceOnUse"><stop stop-color="#fff" stop-opacity=".65"/><stop offset="1" stop-color="#fff" stop-opacity="0"/></linearGradient><linearGradient id="qpaint16_linear" x1="29.596" y1="89.416" x2="30.614" y2="117.719" gradientUnits="userSpaceOnUse"><stop stop-color="#fff" stop-opacity=".65"/><stop offset="1" stop-color="#fff" stop-opacity="0"/></linearGradient><linearGradient id="qpaint17_linear" x1="90.335" y1="82.739" x2="91.528" y2="91.209" gradientUnits="userSpaceOnUse"><stop stop-color="#fff" stop-opacity=".65"/><stop offset="1" stop-color="#fff" stop-opacity="0"/></linearGradient><linearGradient id="qpaint18_linear" x1="59.659" y1="31.014" x2="59.758" y2="45.907" gradientUnits="userSpaceOnUse"><stop stop-color="#FFA63F"/><stop offset="1" stop-color="#FF0"/></linearGradient><linearGradient id="qpaint19_linear" x1="57.966" y1="29.605" x2="57.939" y2="37.48" gradientUnits="userSpaceOnUse"><stop stop-color="#fff" stop-opacity=".65"/><stop offset="1" stop-color="#fff" stop-opacity="0"/></linearGradient><clipPath id="qclip0"><path fill="#fff" d="M0 0h121.492v140H0z"/></clipPath><filter id="qfilter0_f" x="-8.233" y="90.392" width="137.564" height="55.896" filterUnits="userSpaceOnUse" color-interpolation-filters="sRGB"><feFlood flood-opacity="0" result="BackgroundImageFix"/><feBlend in="SourceGraphic" in2="BackgroundImageFix" result="shape"/><feGaussianBlur stdDeviation="6.5" result="effect1_foregroundBlur"/></filter></defs></symbol><symbol fill="none" viewBox="0 0 266 140" id="logos_php" xmlns="http://www.w3.org/2000/svg"><g clip-path="url(#rclip0)"><path d="M132.741 139.585c73.31 0 132.74-31.247 132.74-69.792C265.481 31.247 206.051 0 132.741 0 59.43 0 0 31.247 0 69.793c0 38.545 59.43 69.792 132.741 69.792z" fill="url(#rpaint0_radial)"/><path d="M132.741 134.4c70.447 0 127.555-28.926 127.555-64.607 0-35.682-57.108-64.608-127.555-64.608S5.185 34.111 5.185 69.793c0 35.681 57.109 64.607 127.556 64.607z" fill="#6181B6"/><path d="M158.563 90.74l6.326-32.562c1.452-7.363.207-12.86-3.526-16.282-3.63-3.318-9.852-4.977-18.978-4.977h-10.992l3.111-16.178c.103-.622 0-1.245-.415-1.763-.415-.519-.933-.726-1.556-.726h-15.14a2.119 2.119 0 00-2.074 1.66l-6.741 34.532c-.622-3.94-2.074-7.259-4.563-9.955-4.46-5.081-11.408-7.674-20.845-7.674H54.03a2.119 2.119 0 00-2.074 1.66L38.37 108.577c-.103.622 0 1.244.415 1.763.415.518.934.726 1.556.726h15.244a2.12 2.12 0 002.074-1.659l3.319-16.904H72.28c5.912 0 10.993-.622 14.83-1.867 4.045-1.348 7.674-3.526 10.889-6.533 2.593-2.385 4.77-5.082 6.43-7.985l-2.697 14c-.103.622 0 1.244.415 1.763.415.518.934.725 1.556.725h15.14a2.12 2.12 0 002.075-1.659l7.466-38.37h10.371c4.459 0 5.703.83 6.118 1.244.311.311.933 1.556.208 5.393l-6.015 31.007c-.104.623 0 1.245.415 1.763.414.519.933.726 1.555.726h15.556c.933-.31 1.763-1.037 1.97-1.97zM88.459 63.779c-.933 4.874-2.696 8.4-5.289 10.37-2.592 1.97-6.844 3.008-12.444 3.008h-6.74l4.873-25.097h8.711c6.43 0 9.023 1.349 10.06 2.49 1.348 1.659 1.659 4.873.83 9.229zM223.274 44.489c-4.459-5.081-11.407-7.674-20.844-7.674h-29.348a2.12 2.12 0 00-2.075 1.66l-13.585 69.999c-.103.622 0 1.245.415 1.763.415.519.933.726 1.556.726h15.244a2.119 2.119 0 002.074-1.659L180.03 92.4h11.303c5.912 0 10.993-.622 14.83-1.867 4.044-1.348 7.674-3.526 10.889-6.533 2.696-2.489 4.978-5.289 6.637-8.296a34.541 34.541 0 003.63-9.956c1.763-9.022.414-16.074-4.045-21.259zm-15.867 19.289c-.933 4.874-2.696 8.4-5.288 10.37-2.593 1.97-6.845 3.008-12.445 3.008h-6.741l4.874-25.097h8.712c6.429 0 9.022 1.349 10.059 2.49 1.452 1.659 1.763 4.873.829 9.229z" fill="#fff"/><path d="M77.57 49.985c5.808 0 9.645 1.037 11.615 3.215 1.97 2.178 2.385 5.807 1.348 10.993-1.037 5.392-3.11 9.333-6.118 11.614-3.008 2.282-7.57 3.423-13.69 3.423h-9.229L67.2 49.985h10.37zM40.445 108.89h15.244l3.63-18.563h13.066c5.808 0 10.474-.622 14.208-1.867 3.733-1.244 7.051-3.215 10.163-6.118 2.592-2.385 4.666-4.978 6.222-7.778a30.266 30.266 0 003.318-9.333c1.66-8.297.415-14.726-3.629-19.393-4.045-4.667-10.474-6.948-19.29-6.948H54.03l-13.586 70zM117.496 20.326h15.141l-3.63 18.563h13.482c8.504 0 14.311 1.452 17.526 4.46 3.215 3.007 4.148 7.777 2.904 14.414l-6.326 32.563h-15.349l6.015-31.007c.726-3.526.415-5.912-.726-7.156-1.14-1.244-3.733-1.97-7.57-1.97H126.83l-7.778 40.133h-15.141l13.585-70zM196.519 49.985c5.807 0 9.644 1.037 11.614 3.215 1.971 2.178 2.386 5.807 1.348 10.993-1.037 5.392-3.111 9.333-6.118 11.614-3.007 2.282-7.57 3.423-13.689 3.423h-9.23l5.704-29.245h10.371zm-37.126 58.904h15.244l3.63-18.563h13.066c5.808 0 10.474-.622 14.208-1.867 3.733-1.244 7.052-3.215 10.163-6.118 2.592-2.385 4.666-4.978 6.222-7.778a30.266 30.266 0 003.318-9.333c1.66-8.297.415-14.726-3.629-19.393-4.045-4.667-10.474-6.948-19.289-6.948h-29.348l-13.585 70z" fill="#000004"/></g><defs><radialGradient id="rpaint0_radial" cx="0" cy="0" r="1" gradientUnits="userSpaceOnUse" gradientTransform="translate(79.698 24.544) scale(174.321)"><stop stop-color="#fff"/><stop offset=".5" stop-color="#4C6B97"/><stop offset="1" stop-color="#231F20"/></radialGradient><clipPath id="rclip0"><path fill="#fff" d="M0 0h265.481v140H0z"/></clipPath></defs></symbol><symbol fill="none" viewBox="0 0 141 140" id="logos_python" xmlns="http://www.w3.org/2000/svg"><g clip-path="url(#sclip0)"><path d="M69.68.04c-35.595 0-33.373 15.435-33.373 15.435l.04 15.992h33.967v4.8H22.856S.079 33.686.079 69.6c0 35.915 19.88 34.641 19.88 34.641h11.865V87.574s-.64-19.88 19.562-19.88h33.69s18.927.306 18.927-18.293V18.65S106.877.04 69.679.04zM50.95 10.792a6.104 6.104 0 016.11 6.11 6.106 6.106 0 01-6.11 6.111 6.104 6.104 0 01-6.11-6.11 6.106 6.106 0 016.11-6.11z" fill="url(#spaint0_linear)"/><path d="M70.69 139.519c35.594 0 33.372-15.435 33.372-15.435l-.04-15.992H70.055v-4.801h47.458s22.777 2.583 22.777-33.332-19.88-34.64-19.88-34.64h-11.865v16.665s.64 19.88-19.562 19.88h-33.69s-18.927-.306-18.927 18.293v30.752s-2.874 18.61 34.324 18.61zm18.73-10.753a6.097 6.097 0 01-4.323-1.788 6.105 6.105 0 01-1.788-4.322 6.107 6.107 0 018.45-5.648 6.103 6.103 0 013.771 5.647 6.099 6.099 0 01-1.788 4.322 6.103 6.103 0 01-4.322 1.789z" fill="url(#spaint1_linear)"/></g><defs><linearGradient id="spaint0_linear" x1="13.553" y1="12.585" x2="83.037" y2="81.375" gradientUnits="userSpaceOnUse"><stop stop-color="#387EB8"/><stop offset="1" stop-color="#366994"/></linearGradient><linearGradient id="spaint1_linear" x1="56.203" y1="56.757" x2="130.82" y2="127.296" gradientUnits="userSpaceOnUse"><stop stop-color="#FFE052"/><stop offset="1" stop-color="#FFC331"/></linearGradient><clipPath id="sclip0"><path fill="#fff" d="M0 0h140.549v140H0z"/></clipPath></defs></symbol><symbol fill="none" viewBox="0 0 132 98" id="logos_sass" xmlns="http://www.w3.org/2000/svg"><path d="M113.582 56.407c-4.592.024-8.583 1.119-11.925 2.737-1.227-2.404-2.453-4.545-2.669-6.116-.24-1.833-.529-2.952-.24-5.141.288-2.19 1.586-5.308 1.562-5.546-.024-.238-.289-1.357-2.933-1.38-2.645-.024-4.93.5-5.194 1.19-.264.69-.769 2.26-1.106 3.879-.456 2.38-5.289 10.877-8.054 15.328-.89-1.737-1.659-3.261-1.828-4.475-.24-1.832-.529-2.951-.24-5.14.289-2.19 1.587-5.308 1.563-5.546-.024-.238-.289-1.357-2.933-1.38-2.645-.025-4.93.5-5.194 1.19-.264.69-.553 2.308-1.106 3.879-.553 1.571-6.973 15.756-8.656 19.421a108.997 108.997 0 01-2.14 4.404s-.024.071-.096.19a60.25 60.25 0 01-.72 1.357v.023c-.362.643-.746 1.238-.939 1.238-.144 0-.409-1.714.048-4.046.962-4.927 3.246-12.59 3.222-12.852 0-.143.433-1.476-1.49-2.167-1.876-.69-2.549.453-2.718.453-.168 0-.288.404-.288.404s2.092-8.615-3.991-8.615c-3.799 0-9.04 4.117-11.637 7.83-2.952 1.59-5.902 3.185-8.849 4.784-1.417.785-2.884 1.571-4.255 2.309-.096-.095-.192-.215-.289-.31C23.13 56.526 9.522 51.03 10.098 40.58c.217-3.808 1.54-13.805 26.136-25.943 20.244-9.878 36.354-7.14 39.143-1.071 3.991 8.664-8.631 24.753-29.55 27.085-7.982.88-12.166-2.166-13.224-3.308-1.106-1.19-1.274-1.262-1.683-1.024-.673.358-.24 1.429 0 2.047.625 1.618 3.198 4.475 7.55 5.88 3.847 1.236 13.2 1.927 24.524-2.405 12.671-4.855 22.578-18.35 19.668-29.656C79.752.713 60.518-3.07 42.317 3.331c-10.82 3.809-22.553 9.806-30.992 17.613C1.298 30.226-.29 38.294.36 41.674 2.693 53.67 19.404 61.478 26.087 67.26c-.336.19-.65.358-.913.5-3.343 1.643-16.086 8.235-19.26 15.209-3.606 7.902.578 13.567 3.343 14.328 8.584 2.356 17.408-1.88 22.144-8.878 4.737-6.997 4.16-16.09 1.972-20.254-.024-.047-.048-.096-.097-.143.866-.5 1.755-1.023 2.621-1.523a128.3 128.3 0 014.833-2.69c-.818 2.214-1.419 4.856-1.707 8.664-.36 4.475 1.49 10.282 3.919 12.566 1.082 1 2.356 1.024 3.174 1.024 2.837 0 4.111-2.332 5.53-5.093 1.731-3.38 3.294-7.307 3.294-7.307s-1.948 10.615 3.342 10.615c1.923 0 3.87-2.475 4.737-3.737v.024s.048-.072.144-.238c.192-.31.313-.5.313-.5v-.047c.769-1.333 2.5-4.356 5.073-9.378 3.318-6.474 6.516-14.566 6.516-14.566s.288 1.976 1.274 5.26c.577 1.928 1.779 4.046 2.74 6.093-.768 1.071-1.25 1.666-1.25 1.666l.025.024c-.626.809-1.299 1.69-2.044 2.547-2.621 3.094-5.746 6.64-6.18 7.663-.505 1.214-.384 2.095.578 2.81.697.523 1.947.594 3.222.523 2.356-.167 4.015-.738 4.832-1.095 1.275-.452 2.765-1.143 4.16-2.166 2.573-1.88 4.135-4.57 3.991-8.116-.072-1.952-.721-3.904-1.515-5.736.24-.333.457-.666.698-1 4.063-5.879 7.213-12.329 7.213-12.329s.289 1.975 1.274 5.26c.481 1.666 1.467 3.475 2.332 5.236-3.823 3.071-6.18 6.64-7.02 8.974-1.515 4.331-.337 6.283 1.899 6.735 1.01.214 2.452-.262 3.51-.714a16.036 16.036 0 004.449-2.261c2.573-1.88 5.049-4.499 4.904-8.044-.072-1.619-.505-3.214-1.106-4.761 3.246-1.332 7.43-2.07 12.767-1.452 11.445 1.333 13.705 8.402 13.272 11.377-.432 2.975-2.837 4.594-3.63 5.093-.794.5-1.058.667-.986 1.024.096.523.481.5 1.154.404.938-.166 6.012-2.403 6.228-7.878.361-6.997-6.372-14.637-18.274-14.566zM25.294 85.874c-3.8 4.093-9.088 5.64-11.373 4.332-2.452-1.405-1.49-7.45 3.174-11.782 2.837-2.642 6.492-5.094 8.92-6.593.553-.333 1.37-.809 2.357-1.404.168-.095.264-.143.264-.143l.577-.357c1.707 6.188.072 11.639-3.919 15.947zm27.65-18.613c-1.322 3.19-4.087 11.354-5.77 10.901-1.443-.38-2.333-6.569-.289-12.686 1.034-3.07 3.222-6.735 4.497-8.163 2.067-2.285 4.351-3.047 4.904-2.118.698 1.213-2.524 10.067-3.342 12.066zm22.818 10.806c-.553.286-1.082.476-1.323.333-.168-.095.241-.476.241-.476s2.861-3.046 3.99-4.427c.65-.809 1.42-1.76 2.237-2.832v.31c0 3.641-3.559 6.093-5.146 7.092zm17.6-3.975c-.41-.285-.337-1.237 1.033-4.213.53-1.166 1.78-3.117 3.92-4.998.24.762.409 1.5.384 2.19-.024 4.594-3.341 6.307-5.337 7.021z" fill="#CD6799"/></symbol><symbol fill="none" viewBox="0 0 94 105" id="logos_webpack" xmlns="http://www.w3.org/2000/svg"><path d="M47 .018l47 26.215v52.449l-47 26.215L0 78.682V26.233L47 .018z" fill="#fff"/><path d="M85.61 76.862l-37.05 20.69v-16.09l23.093-12.54 13.958 7.94zm2.537-2.256V31.375l-13.55 7.712v27.807l13.55 7.712zm-79.9 2.256l37.05 20.672v-16.09L22.205 68.924l-13.958 7.94zm-2.536-2.256V31.375l13.55 7.712v27.807l-13.55 7.712zm1.579-46.03L45.297 7.38v15.565L20.947 36.15l-.196.105L7.29 28.576zm79.26 0L48.56 7.38v15.565l24.334 13.22.195.106 13.462-7.695z" fill="#8ED6FB"/><path d="M45.297 77.79L22.524 65.424V40.958l22.773 12.96v23.871zm3.264 0l22.773-12.348V40.958L48.56 53.918v23.871zM24.05 38.124l22.88-12.4 22.86 12.4-22.86 13.012-22.88-13.012z" fill="#1C78C0"/></symbol><symbol fill="none" viewBox="0 0 140 140" id="ri_vuejs-fill" xmlns="http://www.w3.org/2000/svg"><path d="M5.833 17.5h23.334L70 87.5l40.833-70h23.334L70 128.333 5.833 17.5zm50.558 0L70 40.833 83.61 17.5h23.537L70 81.667 32.853 17.5h23.538z" fill="#43C267"/></symbol><symbol fill="none" viewBox="0 0 378 209" id="undraw_advanced_customization" xmlns="http://www.w3.org/2000/svg"><g clip-path="url(#wclip0)"><path d="M378 207.26H133.999v.806H378v-.806z" fill="#E6E6E6"/><path d="M318.248 142.138c5.334 7.557 6.743 50.569 7.057 64.356.008.311.016.606.02.884h13.503c.165-.294.318-.585.462-.884 8.004-15.833 3.563-34.817 3.33-35.777.608 3.018-2.142 11.766-5.25 20.239-1.896-26.053-18.108-47.503-19.122-48.818zM19.53 39.148a19.508 19.508 0 01-13.81-5.733A19.597 19.597 0 010 19.574c0-5.191 2.058-10.17 5.72-13.84A19.507 19.507 0 0119.53 0h177.749c5.18 0 10.147 2.062 13.81 5.733a19.599 19.599 0 015.72 13.841c0 5.191-2.058 10.17-5.72 13.841a19.509 19.509 0 01-13.81 5.733H19.529z" fill="#E6E6E6"/><path d="M72.883 2.553H38.116v34.042h34.767V2.553zM197.279 2.553h-17.973v34.042h17.973c4.504 0 8.823-1.794 12.008-4.985a17.04 17.04 0 004.974-12.036 17.04 17.04 0 00-4.974-12.036 16.962 16.962 0 00-12.008-4.985zM143.36 2.553h-34.531v34.042h34.531V2.553z" fill="#fff"/><path d="M108.263 2.553H73.449v34.042h34.814V2.553z" fill="#0F3057"/><path d="M178.74 2.553h-34.814v34.042h34.814V2.553z" fill="#E6E6E6"/><path d="M37.55 2.553H19.53A16.963 16.963 0 007.52 7.538a17.04 17.04 0 00-4.974 12.036 17.04 17.04 0 004.974 12.035 16.963 16.963 0 0012.009 4.986h18.02V2.553z" fill="#0F3057"/><path d="M18.28 26.12l-4.728-6.092 2.75-2.144 2.238 2.885 7.563-8 2.528 2.4-10.35 10.951zM87.908 26.12l-4.728-6.092 2.75-2.144 2.238 2.885 7.563-8 2.528 2.4L87.91 26.12zM156.572 13.508l-1.569 1.572 10.536 10.56 1.569-1.572-10.536-10.56z" fill="#fff"/><path d="M166.094 13.508l-10.536 10.56 1.568 1.572 10.536-10.56-1.568-1.572z" fill="#fff"/><path d="M55.431 29.78c-2.015 0-3.985-.599-5.66-1.721a10.208 10.208 0 01-3.754-4.583 10.234 10.234 0 012.21-11.13 10.168 10.168 0 0111.104-2.214 10.194 10.194 0 014.573 3.762 10.23 10.23 0 011.717 5.673 10.235 10.235 0 01-2.988 7.218 10.19 10.19 0 01-7.202 2.995zm0-18.156c-1.567 0-3.1.466-4.403 1.34a7.939 7.939 0 00-2.919 3.564 7.96 7.96 0 001.718 8.656 7.92 7.92 0 008.637 1.722 7.93 7.93 0 003.557-2.925 7.956 7.956 0 001.335-4.414 7.961 7.961 0 00-2.323-5.614 7.925 7.925 0 00-5.602-2.329zM126.191 29.78c-2.015 0-3.985-.599-5.661-1.721a10.229 10.229 0 01-1.544-15.713 10.17 10.17 0 0111.105-2.214 10.196 10.196 0 014.573 3.762 10.234 10.234 0 011.717 5.673 10.237 10.237 0 01-2.988 7.218 10.189 10.189 0 01-7.202 2.995zm0-18.156a7.915 7.915 0 00-4.403 1.34 7.942 7.942 0 00-2.919 3.564 7.953 7.953 0 001.718 8.656 7.908 7.908 0 008.637 1.722 7.932 7.932 0 003.557-2.925 7.954 7.954 0 00-.988-10.028 7.926 7.926 0 00-5.602-2.329zM196.668 29.78c-2.015 0-3.985-.599-5.661-1.721a10.217 10.217 0 01-4.332-10.484 10.217 10.217 0 012.788-5.229 10.17 10.17 0 0111.105-2.214 10.193 10.193 0 014.572 3.762 10.227 10.227 0 011.718 5.673 10.237 10.237 0 01-2.988 7.218 10.189 10.189 0 01-7.202 2.995zm0-18.156a7.915 7.915 0 00-4.403 1.34 7.942 7.942 0 00-2.919 3.564 7.953 7.953 0 001.718 8.656 7.909 7.909 0 008.637 1.722 7.932 7.932 0 003.557-2.925 7.954 7.954 0 00-.988-10.028 7.927 7.927 0 00-5.602-2.329z" fill="#E6E6E6"/><path d="M290.201 110.331l-4.277 11.96a4.181 4.181 0 001.762 4.979 4.155 4.155 0 005.567-1.169 4.193 4.193 0 00.732-1.935l1.357-12.117 10.282-34.063-8.854-4.294-6.569 36.639zM286.632 200.642h6.283v-61.257l-14.28-.286 7.997 61.543zM258.643 200.642h6.283v-61.257l-14.28-.286 7.997 61.543z" fill="#A0616A"/><path d="M293.914 145.826l-16.279-1.718-3.427-18.033-6.283 18.32-19.421-2.004 7.997-30.342c14.617-9.955 28.501-9.738 41.697 0l-4.284 33.777zM266.313 203.251a5.115 5.115 0 01-3.444 5.484 5.103 5.103 0 01-2.304.218l-11.575-1.574a3.958 3.958 0 01-3.3-4.52 3.967 3.967 0 011.334-2.406 3.95 3.95 0 012.576-.956h1.908l6.279-5.734c.062 3.906 2.932 3.038 7.675 2.657l.851 6.831zM294.302 203.251a5.13 5.13 0 01-1.474 4.269 5.093 5.093 0 01-4.275 1.433l-11.574-1.574a3.966 3.966 0 01-3.3-4.52 3.962 3.962 0 013.91-3.362h1.908l6.279-5.734c.062 3.906 2.931 3.038 7.674 2.657l.852 6.831z" fill="#2F2E41"/><path d="M271.995 41.632c5.56 0 10.067-4.517 10.067-10.09 0-5.572-4.507-10.09-10.067-10.09-5.56 0-10.068 4.518-10.068 10.09 0 5.573 4.508 10.09 10.068 10.09z" fill="#A0616A"/><path d="M284.775 48.502l-12.566 1.145V38.484l6.568-4.008 5.998 14.026z" fill="#A0616A"/><path d="M299.626 116.343c-12.642-9.278-27.822-8.336-44.553-1.145 7.58-21.508 10.809-41.554 4.855-58.511 0-2.996.995-5.907 2.828-8.273a13.455 13.455 0 017.297-4.797l2.156-.553 10.567.572 9.923 5.83a13.53 13.53 0 014.874 4.923 13.552 13.552 0 011.802 6.696l.251 55.258z" fill="#0F3057"/><path d="M250.789 108.041l-4.278 11.96a4.182 4.182 0 001.762 4.98 4.165 4.165 0 003.998.176 4.172 4.172 0 002.301-3.281l1.358-12.117 10.281-34.063-8.853-4.294-6.569 36.639z" fill="#A0616A"/><path d="M307.908 84.57h-13.994V50.22a19.328 19.328 0 016.166 5.435 19.383 19.383 0 013.354 7.512l4.474 21.402z" fill="#0F3057"/><path d="M264.319 26.08a4.09 4.09 0 01-3.891-.212 3.109 3.109 0 01-1.237-3.564c.424-1.094 1.498-1.779 2.541-2.314a25.599 25.599 0 017.307-2.447c1.214-.21 2.499-.326 3.646.124.567.222 1.076.575 1.639.807 1.036.429 2.191.43 3.287.663a8.013 8.013 0 015.328 4.001c.361.688.638 1.416.825 2.17a12.515 12.515 0 01-.02 6.284c-.862 3.261-3.056 6.258-2.859 9.626-1.622-.947-2.382-2.874-3.736-4.177a6.143 6.143 0 00-3.696-1.677 1.95 1.95 0 01-1.079-.276 1.683 1.683 0 01-.469-.85l-1.526-4.791c-.311-.975-.686-2.034-1.564-2.557a3.926 3.926 0 00-1.746-.425 26.524 26.524 0 00-4.358.04" fill="#2F2E41"/><path d="M267.639 78.272l-16.279-6.297 7.393-19.965a12.89 12.89 0 014.354-5.837 12.846 12.846 0 016.817-2.537l-2.285 34.636z" fill="#0F3057"/></g><defs><clipPath id="wclip0"><path fill="#fff" d="M0 0h378v209H0z"/></clipPath></defs></symbol><symbol fill="none" viewBox="0 0 274 208" id="undraw_code_typing" xmlns="http://www.w3.org/2000/svg"><path d="M235.465 82.916C223.423 35.58 181.81 1.412 132.967.042c-25.822-.725-52.994 7.835-72.778 37.79-35.364 53.55 2.174 90.553 28.344 108.137a163.745 163.745 0 0133.848 30.408c17.677 20.968 51.684 47.023 92.185 6.199 29.355-29.59 28.921-68.131 20.899-99.66z" fill="#F2F2F2"/><path opacity=".1" d="M181.223 127.724l24.781-24.694-24.781-24.694 7.555-7.527 32.336 32.221-32.336 32.221-7.555-7.527zM110.456 104.792h10.074V94.723h-10.074v10.069zm50.569-10.069h-10.073v10.069h10.073V94.723zm-30.321 10.069h10.074V94.723h-10.074v10.069zM96.807 127.473L72 102.778l24.78-24.694-7.555-7.527-32.31 32.221 32.335 32.221 7.556-7.526z" fill="#000"/><path d="M274 189.372C274 193.543 212.663 208 137 208S0 193.543 0 189.372c0-4.171 61.337 3.524 137 3.524s137-7.695 137-3.524z" fill="#3F3D56"/><path opacity=".1" d="M274 189.372C274 193.543 212.663 208 137 208S0 193.543 0 189.372c0-4.171 61.337 3.524 137 3.524s137-7.695 137-3.524z" fill="#000"/><path d="M137 196.924c75.663 0 137-3.381 137-7.552 0-4.171-61.337-7.552-137-7.552S0 185.201 0 189.372c0 4.171 61.337 7.552 137 7.552z" fill="#3F3D56"/><path d="M159.337 153.038c0 16.114 10.114 29.154 22.613 29.154z" fill="#3F3D56"/><path d="M181.95 182.192c0-16.296 11.286-29.482 25.234-29.482zM167.53 154.499c0 15.307 6.449 27.693 14.42 27.693z" fill="#0F3057"/><path d="M181.95 182.192c0-20.822 13.045-37.671 29.167-37.671z" fill="#3F3D56"/><path d="M177.193 182.398s3.207-.099 4.173-.787c.966-.688 4.933-1.509 5.173-.406.239 1.103 4.819 5.487 1.199 5.516-3.621.029-8.413-.564-9.378-1.151-.964-.587-1.167-3.172-1.167-3.172z" fill="#A8A8A8"/><path opacity=".2" d="M187.802 186.337c-3.62.029-8.412-.563-9.377-1.151-.735-.447-1.027-2.052-1.125-2.792l-.107.004s.203 2.585 1.167 3.172c.965.588 5.757 1.181 9.378 1.151 1.045-.008 1.406-.38 1.386-.93-.145.332-.544.54-1.322.546z" fill="#000"/><path d="M217.974 96.374s-7.753-5.884-8.342-3.727c-.589 2.157 5.689 7.059 5.689 7.059l2.653-3.332z" fill="#FFB9B9"/><path opacity=".1" d="M217.974 96.374s-7.753-5.884-8.342-3.727c-.589 2.157 5.689 7.059 5.689 7.059l2.653-3.332z" fill="#000"/><path d="M243.571 77.744s-9.22 16.471-9.417 18.825c-.196 2.353-.196 2.549-.98 2.353-.785-.197-11.575-1.373-12.556-.98-.981.391-2.943-2.354-2.943-2.354s-3.727 3.726-2.942 4.51c.784.785 3.139 1.177 3.531 2.157.392.981.981 1.961 2.746 1.765 1.766-.196 13.733 3.137 15.302 2.549 1.57-.588 1.962-1.569 2.747-1.569.785 0 2.354-.784 2.354-.98 0-.196 5.493-10.589 5.493-10.589s6.474-14.119-3.335-15.687z" fill="#D0CDE1"/><path opacity=".1" d="M243.571 77.744s-9.22 16.471-9.417 18.825c-.196 2.353-.196 2.549-.98 2.353-.785-.197-11.575-1.373-12.556-.98-.981.391-2.943-2.354-2.943-2.354s-3.727 3.726-2.942 4.51c.784.785 3.139 1.177 3.531 2.157.392.981.981 1.961 2.746 1.765 1.766-.196 13.733 3.137 15.302 2.549 1.57-.588 1.962-1.569 2.747-1.569.785 0 2.354-.784 2.354-.98 0-.196 5.493-10.589 5.493-10.589s6.474-14.119-3.335-15.687z" fill="#000"/><path d="M230.194 66.885a16.25 16.25 0 00.05 3.126c.298 2.253 1.335 4.602.355 6.705-.355.763-.958 1.428-1.286 2.2-.695 1.636-.065 3.45-.16 5.19-.122 2.248-1.552 4.415-3.729 5.647 3.718.115 7.254-1.722 9.594-4.226 2.339-2.504 3.642-5.61 4.619-8.717a18.92 18.92 0 00.958-4.511 6.51 6.51 0 00-.304-2.615 9.984 9.984 0 00-1.346-2.296c-.586-.824-1.187-1.663-2.052-2.276-1.064-.754-3.117-1.511-4.529-1.402-1.732.135-2.097 1.973-2.17 3.175z" fill="#2F2E41"/><path d="M235.92 73.038s2.158 7.647.392 9.804c-1.765 2.157 10.594-.98 10.594-.98s-6.081-6.08-3.139-10l-7.847 1.176z" fill="#FFB9B9"/><path opacity=".1" d="M235.92 73.038s2.158 7.647.392 9.804c-1.765 2.157 10.594-.98 10.594-.98s-6.081-6.08-3.139-10l-7.847 1.176z" fill="#000"/><path d="M181.223 122.942l24.781-24.695-24.781-24.694 7.555-7.527 32.336 32.221-32.336 32.221-7.555-7.526z" fill="#0F3057"/><path d="M228.857 175.006v5.686l2.943 3.53 2.551-1.177-.785-8.235-4.709.196z" fill="#FFB9B9"/><path d="M230.035 180.3s-.785-2.745-2.158-.784c-1.374 1.961-2.747 6.275-3.532 6.471-.784.196-6.277 6.275-.784 6.275s7.258-2.549 7.258-2.549 5.493-2.157 5.493-2.55c0-.392-.784-7.647-1.177-7.647-.392 0-.588 1.372-1.569 1.372s-3.531-.588-3.531-.588z" fill="#2F2E41"/><path d="M242.002 175.986l-.197 5.294 4.709 1.961v-7.647l-4.512.392z" fill="#FFB9B9"/><path d="M247.102 181.28s-2.55-2.745-3.923-2.157c-.68.274-1.336.602-1.962.981 0 0-.785 2.549-1.177 4.706-.393 2.157-.589 3.138-.981 3.922-.392.784-.785 3.726 3.139 4.118 3.923.392 5.1-1.765 5.1-1.765l.981-5.098s-.392-4.707-1.177-4.707zM231.408 119.511s-5.689 12.746-4.905 24.316c0 0-1.961 4.51-.784 11.569 1.177 7.06 2.746 21.178 2.746 21.178s5.297.589 5.689-.392c0 0 .393-9.805.785-10.197.393-.392-.196-9.412-.785-11.177-.588-1.765 5.493-19.217 5.493-19.217l-1.569-21.766-6.67 5.686z" fill="#2F2E41"/><path opacity=".1" d="M231.408 119.511s-5.689 12.746-4.905 24.316c0 0-1.961 4.51-.784 11.569 1.177 7.06 2.746 21.178 2.746 21.178s5.297.589 5.689-.392c0 0 .393-9.805.785-10.197.393-.392-.196-9.412-.785-11.177-.588-1.765 5.493-19.217 5.493-19.217l-1.569-21.766-6.67 5.686z" fill="#000"/><path d="M229.839 118.727l3.727 8.04s1.766 18.236 2.746 20.59c0 0 .393 6.667 2.158 8.824 1.766 2.157 3.139 21.178 3.139 21.178s4.905 1.372 5.297 0c.392-1.373 1.57-10.785 1.57-10.785s.392-8.04-1.766-13.335c-2.158-5.294 2.55-24.315 2.55-24.315s4.905-9.216-2.158-16.668l-17.263 6.471z" fill="#2F2E41"/><path d="M240.236 75.39c4.442 0 8.043-3.599 8.043-8.04 0-4.44-3.601-8.039-8.043-8.039a8.041 8.041 0 00-8.043 8.04c0 4.44 3.601 8.04 8.043 8.04z" fill="#FFB9B9"/><path d="M247.691 79.508s-8.436 0-9.613.981a1.565 1.565 0 01-2.158 0s-2.943.196-3.727 2.55c-.785 2.352-3.139 5.49-3.139 5.49s-3.531 2.549-1.57 9.216c1.962 6.667.393 17.452.393 17.452s-1.57 2.353 0 3.334c1.569.98 2.158 1.373 1.962 2.157-.197.784 17.852-6.471 17.852-7.844 0-1.372-.393-2.549 0-3.137.392-.589.785-1.569.392-2.549-.392-.981.393-1.177.196-2.157-.196-.981.981-8.236 1.766-11.374.785-3.137.589-13.922-2.354-14.118z" fill="#D0CDE1"/><path d="M217.974 98.727s-7.753-5.884-8.342-3.727c-.589 2.157 5.689 7.059 5.689 7.059l2.653-3.332z" fill="#FFB9B9"/><path d="M243.571 80.489s-9.22 16.472-9.417 18.825c-.196 2.353-.196 2.549-.98 2.353-.785-.196-11.575-1.373-12.556-.98-.981.392-2.943-2.354-2.943-2.354s-3.727 3.726-2.942 4.511c.784.784 3.139 1.176 3.531 2.157.392.98.981 1.96 2.746 1.764 1.766-.196 13.733 3.138 15.302 2.55 1.57-.589 1.962-1.569 2.747-1.569.785 0 2.354-.785 2.354-.981 0-.196 5.493-10.589 5.493-10.589s6.474-14.118-3.335-15.687z" fill="#D0CDE1"/><path d="M236.253 72.487c-.111-.796-.519-1.518-.729-2.295a4.763 4.763 0 01.543-3.699c1.154-1.862 3.419-2.687 4.998-4.206.033.774.57 1.435 1.164 1.932.593.497 1.274.901 1.776 1.49a5.829 5.829 0 011.035 2.095c.31.882.448 1.815.409 2.748a3.448 3.448 0 01-1.192 2.443c-.588.465-1.41.73-1.694 1.424a2.432 2.432 0 00-.095 1.074c.135 2.158.261 4.354-.248 6.455-.508 2.1-1.753 4.13-3.704 5.062 1.603.114 3.241.225 4.797-.18 1.556-.405 3.044-1.424 3.58-2.939.265-.747.29-1.578.666-2.276.952-1.767 3.579-1.847 4.87-3.384.517-.615.767-1.407.952-2.189 1.09-4.597.324-9.48-1.335-13.904-.572-1.525-1.284-3.06-2.511-4.132-1.044-.912-2.377-1.414-3.695-1.844-1.924-.626-3.906-1.14-5.928-1.205a7.533 7.533 0 00-2.603.303c-.832.301-1.606.742-2.289 1.304-3.168 2.464-5.325 6.402-5.039 10.404.173 2.422 1.2 4.713 2.518 6.752.462.713 1.551 2.234 2.564 1.785.919-.406 1.31-2.158 1.19-3.018z" fill="#2F2E41"/><path d="M110.456 100.009h10.074V89.94h-10.074v10.069zm50.569-10.069h-10.073v10.069h10.073V89.94zm-30.321 10.069h10.074V89.94h-10.074v10.069z" fill="#0F3057"/><path d="M51.93 59.934c4.682 0 8.477-2.959 8.477-6.608 0-3.65-3.795-6.609-8.476-6.609-4.682 0-8.476 2.959-8.476 6.608 0 3.65 3.794 6.609 8.476 6.609z" fill="#2F2E41"/><path d="M53.371 98.822s7.629.508 8.985-.508c1.356-1.017 7.12 1.355 7.629 2.711.508 1.355-8.138 1.525-9.494 1.525-1.356 0-7.798 2.033-7.798 2.033l.678-5.761z" fill="#A0616A"/><path d="M37.663 177.754s-3.555 8.961-1.7 10.043c1.855 1.081 21.33.309 21.33.309s3.247-2.009-.463-3.4c0 0-3.091-.154-5.1-1.39-2.01-1.236-4.329-3.554-4.329-3.554s-.155-3.399-1.391-2.626a3.174 3.174 0 00-1.391 2.163l-6.956-1.545z" fill="#2F2E41"/><path opacity=".1" d="M37.663 177.754s-3.555 8.961-1.7 10.043c1.855 1.081 21.33.309 21.33.309s3.247-2.009-.463-3.4c0 0-3.091-.154-5.1-1.39-2.01-1.236-4.329-3.554-4.329-3.554s-.155-3.399-1.391-2.626a3.174 3.174 0 00-1.391 2.163l-6.956-1.545z" fill="#000"/><path d="M96.807 122.69L72 97.996 96.78 73.3l-7.555-7.526-32.31 32.22 32.335 32.222 7.556-7.527z" fill="#0F3057"/><path d="M32.181 180.495s-3.899 9.828-1.864 11.014c2.034 1.186 23.394.339 23.394.339s3.56-2.203-.51-3.728c0 0-3.39-.169-5.593-1.525-2.204-1.355-4.747-3.897-4.747-3.897s-.17-3.728-1.526-2.881a3.486 3.486 0 00-1.526 2.373l-7.628-1.695zM52.185 118.139l-2.373 21.35s-.848 10.167-3.39 12.37c0 0 0 3.219-.849 4.236l-1.186 13.386s1.695 4.914 1.526 5.761c-.17.847.678 3.559.508 3.898-.17.338-8.137 0-8.137 0l1.695-27.281 5.255-37.956 6.95 4.236z" fill="#2F2E41"/><path opacity=".1" d="M52.185 118.139l-2.373 21.35s-.848 10.167-3.39 12.37c0 0 0 3.219-.849 4.236l-1.186 13.386s1.695 4.914 1.526 5.761c-.17.847.678 3.559.508 3.898-.17.338-8.137 0-8.137 0l1.695-27.281 5.255-37.956 6.95 4.236z" fill="#000"/><path d="M47.947 117.461s-1.865 17.453-2.713 21.181a48.18 48.18 0 00-1.017 7.455s-.17 5.423-1.695 6.948a4.58 4.58 0 00-1.356 3.389s-1.526 17.114-.678 19.147c.847 2.034 1.695 3.728.847 5.084-.847 1.355-10.17 1.355-10.17.338 0-1.016 0-1.863-.51-2.372-.508-.508 0-3.728 0-3.728s-2.034-15.08-.169-19.486c1.865-4.406 2.712-16.436 2.712-16.436s-1.356-13.725-3.051-15.928c-1.695-2.203.339-9.998.339-9.998l17.46 4.406z" fill="#2F2E41"/><path d="M43.174 63.262c.197.449.669.699 1.098.935 2.49 1.37 4.572 3.358 6.625 5.322a7.77 7.77 0 01.309-5.257c.245-.568.566-1.177.39-1.77-.128-.436-.5-.75-.859-1.028a26.659 26.659 0 00-2.621-1.788c-.635-.38-1.94-1.39-2.669-1.28-.038.984-.058 1.864-.489 2.783-.102.218-1.709 2.254-1.784 2.083z" fill="#A0616A"/><path d="M51.846 65.44c3.838 0 6.95-3.11 6.95-6.947a6.949 6.949 0 00-6.95-6.947 6.949 6.949 0 00-6.95 6.947 6.949 6.949 0 006.95 6.948z" fill="#A0616A"/><path d="M52.185 74.93S53.37 69 49.98 66.966c-3.39-2.033-7.29-4.406-7.29-4.406s-1.186-.17-1.695 2.373c0 0-9.662 1.863-10.68 11.013-1.017 9.15.679 22.537.679 22.537s-1.526 11.692-3.39 17.961c0 0-1.527 1.356 5.254-.678 6.781-2.033 18.648 5.762 18.648 5.762s1.186-1.186 1.186-2.034c0-.847 1.357-5.761 1.357-5.761s1.186-20.842 1.695-23.214c.508-2.372-2.034-15.25-3.56-15.59z" fill="#575A89"/><path d="M50.208 59.21a2.9 2.9 0 011.363-.364 2.594 2.594 0 001.348-.401c.657-.504.705-1.478 1.185-2.152.696-.975 2.083-1.093 3.28-1.044.733.03 1.521.074 2.138-.322.633-.407.92-1.172 1.134-1.894.252-.852.415-1.895-.21-2.528-.435-.44-1.12-.526-1.603-.912-.5-.4-.706-1.05-.978-1.63a4.408 4.408 0 00-1.42-1.778c-.91-.632-2.073-.774-3.181-.762-1.109.012-2.222.157-3.322.021-.901-.111-1.8-.41-2.698-.278-1.145.17-2.092 1.033-2.656 2.043-.564 1.01-.806 2.163-1.041 3.295l-.638 3.081c-.198.956-.397 1.936-.244 2.9.316 1.998 2.084 3.586 2.206 5.605a3.44 3.44 0 012.1-2.497.658.658 0 01.429-.052c.176.056.278.231.39.379.29.386 1.202.971 1.719.697.462-.245.117-1.014.699-1.408z" fill="#2F2E41"/><path d="M32.69 90.858s-1.187 7.456 3.73 6.778c0 0 2.542-.34 2.881 0 .34.339 12.884-1.864 14.579-3.728 0 0 2.034-.678 3.051.339 1.018 1.016 11.189 2.033 8.138-1.017-3.052-3.05-7.799-3.728-7.799-3.728l-6.441.34s-3.39 1.016-5.425 0c-2.034-1.017-7.798-.679-7.798-.679l-4.916 1.695z" fill="#A0616A"/><path d="M39.64 67.305s-7.628.847-7.628 11.861V93.23s4.238-1.864 5.085-1.694c.848.169 4.238-2.203 4.238-2.203s3.9-9.15 3.56-11.692c-.339-2.542-.17-9.997-5.255-10.336z" fill="#575A89"/><path d="M51.846 57.562c3.604 0 6.526-1.518 6.526-3.39 0-1.871-2.922-3.388-6.526-3.388-3.605 0-6.527 1.517-6.527 3.389 0 1.871 2.922 3.389 6.527 3.389z" fill="#2F2E41"/><path d="M45.743 60.442c1.264 0 2.289-2.541 2.289-5.676 0-3.135-1.025-5.677-2.289-5.677-1.264 0-2.288 2.542-2.288 5.677s1.024 5.676 2.288 5.676z" fill="#2F2E41"/></symbol><symbol fill="none" viewBox="0 0 434 231" id="undraw_programming" xmlns="http://www.w3.org/2000/svg"><g clip-path="url(#yclip0)"><path opacity=".1" d="M400.725 182.664c-.484 1.042-.966 2.07-1.447 3.084-.75 1.576-1.49 3.121-2.221 4.635-.325.672-.65 1.33-.967 1.989a618.501 618.501 0 01-9.773 19.129 30.518 30.518 0 01-26.595 16.131l-63.205.688h-.666l-5.419.058-4.634.05-14.212.155h-.575l-7.236.079h-.221l-44.595.483-39.807.417-4.63.05-28.758.313h-.033l-18.651.2h-.2l-58.974.638-17.642.191a36.68 36.68 0 01-11.116-1.592 35.996 35.996 0 01-16.292-10.317c-7.577-8.349-13.1-18.09-16.808-28.662a97.63 97.63 0 01-1.5-4.635C-8.295 142.334 7.36 86.324 35.534 48.841a144.08 144.08 0 013.6-4.585l.03-.033c8.665-10.638 18.38-19.525 28.728-25.844 18.339-11.217 38.657-14.377 58.641-4.96 16.909 7.97 32.696 11.717 48.001 12.734 1.546.1 3.092.175 4.63.22 35.105 1.105 68.006-11.546 106.641-19.712 1.538-.325 3.08-.646 4.635-.95 27.561-5.486 58.136-8.378 94.496-2.297a78.784 78.784 0 0111.153 2.668 71.912 71.912 0 014.635 1.667c17.354 7.062 26.819 20.109 30.841 36.457.381 1.517.71 3.061.988 4.631 7.131 39.325-13.754 95.106-31.829 133.827z" fill="#0F3057"/><g opacity=".1" fill="#0F3057"><path opacity=".1" d="M67.893 18.378v212.43L50.251 231a36.711 36.711 0 01-11.115-1.592V44.223h.029c8.665-10.65 18.38-19.538 28.728-25.845z"/><path opacity=".1" d="M432.575 48.841H35.535a143.972 143.972 0 013.6-4.585v-.034h392.452a65.52 65.52 0 01.988 4.62z"/><path opacity=".1" d="M400.724 7.753v177.991h-1.446c-.75 1.575-1.49 3.12-2.221 4.635-.325.671-.65 1.33-.967 1.988V6.069a65.61 65.61 0 014.634 1.684zM290.441 5.698v222.697l-4.635.05V6.649c1.538-.326 3.08-.647 4.635-.95zM179.165 26.36v203.244l-4.631.05V26.14c1.547.1 3.093.158 4.631.22z"/><path opacity=".1" d="M399.278 185.748c-.75 1.576-1.49 3.121-2.221 4.635H6.047a98.377 98.377 0 01-1.5-4.635h394.731z"/></g><path d="M96.11 110.808h-7.92v24.035h7.92v-24.035zM309.221 109.558h-7.919v25.427h7.919v-25.427z" fill="#3F3D56"/><path d="M359.722 222.446v5.419l-63.317.584-.675.012-24.065.221-.575.009-7.315.062h-.217l-44.587.413-73.19.679h-.063l-18.609.175-.2.005-82.689.758v-6.252l19.443-11.672 39.01-.325.834-.004.275-.004.834-.013 18.73-.154.837-.004.267-.004.834-.005 6.005-.05.159-.004 14.816-.125h.121L262 211.192l2.83-.021h.283l2.159-.021 15.692-.129.833-.013.771-.008h.4l4.881-.037.967-.013 1.296-.008 4.063-.038 6.448-.054.834-.008 1.45-.009h.271l31.137-.266 23.407 11.879z" fill="#65617D"/><path opacity=".2" d="M359.722 222.446v5.419l-63.317.584-.675.012-24.065.221-.575.009-7.315.062h-.217l-44.587.413-73.19.679h-.063l-18.609.175-.2.005-82.689.758v-6.252l19.443-11.672 39.01-.325.834-.004.275-.004.834-.013 18.73-.154.837-.004.267-.004.834-.005 6.005-.05.159-.004 14.816-.125h.121L262 211.192l2.83-.021h.283l2.159-.021 15.692-.129.833-.013.771-.008h.4l4.881-.037.967-.013 1.296-.008 4.063-.038 6.448-.054.834-.008 1.45-.009h.271l31.137-.266 23.407 11.879z" fill="#000"/><path d="M123.408 201.609v10.208a2.559 2.559 0 01-2.5 2.559l-14.546.309a2.495 2.495 0 01-1.125-.238 2.548 2.548 0 01-1.488-2.321v-10.517h19.659z" fill="#3F3D56"/><path opacity=".1" d="M123.408 201.609v10.208a2.559 2.559 0 01-2.5 2.559l-14.546.309a2.495 2.495 0 01-1.125-.238 2.548 2.548 0 01-1.488-2.321v-10.517h19.659z" fill="#000"/><path d="M124.242 201.609v10.208a2.559 2.559 0 01-2.501 2.559l-14.546.309a2.5 2.5 0 01-1.125-.238 2.557 2.557 0 01-1.488-2.321v-10.517h19.66zM303.457 201.609h-19.66v13.13h19.66v-13.13z" fill="#3F3D56"/><path opacity=".1" d="M303.457 201.609h-19.66v13.13h19.66v-13.13z" fill="#000"/><path d="M302.623 201.609h-19.659v13.13h19.659v-13.13z" fill="#3F3D56"/><path opacity=".1" d="M96.11 110.804v2.389l-7.92-.204v-2.185h7.92z" fill="#000"/><path d="M148.232 43.518l-9.516 68.362a1.791 1.791 0 01-1.821 1.546l-76.187-1.976-1.446-.037a1.795 1.795 0 01-1.734-2.03L68.21 37.82a1.793 1.793 0 011.892-1.513l76.462 5.177a1.785 1.785 0 011.618 1.302c.067.238.084.487.05.732z" fill="#65617D"/><path d="M73.324 41.334l-8.056 63.08 70.018 2.222 8.611-60.859-70.573-4.443z" fill="#0F3057"/><path d="M243.374 40.358h-80.859a2.222 2.222 0 00-2.222 2.222v67.808c0 1.227.995 2.221 2.222 2.221h80.859a2.22 2.22 0 002.221-2.221V42.58a2.221 2.221 0 00-2.221-2.221z" fill="#65617D"/><path d="M241.84 45.223h-77.521v60.162h77.521V45.223z" fill="#0F3057"/><path opacity=".1" d="M309.221 109.554v1.58l-7.919.162v-1.742h7.919z" fill="#000"/><path d="M344.951 108.22a1.275 1.275 0 01-.334.95 1.278 1.278 0 01-.916.417L265.68 111.2a1.282 1.282 0 01-1.305-1.163l-6.706-69.729a1.292 1.292 0 01.308-.963 1.287 1.287 0 01.909-.441l77.429-3.852.834-.042a1.28 1.28 0 011.342 1.168l6.46 72.042z" fill="#65617D"/><path d="M262.125 43.001l70.715-3.476 5.972 63.359-70.156 1.668-6.531-61.55z" fill="#0F3057"/><path opacity=".1" d="M344.951 108.22a1.275 1.275 0 01-.334.95 1.278 1.278 0 01-.916.417l-7.386-74.535.834-.042a1.28 1.28 0 011.342 1.168l6.46 72.042zM70.115 36.303l-9.407 75.147-1.446-.037a1.795 1.795 0 01-1.734-2.03L68.21 37.82a1.793 1.793 0 011.905-1.517zM96.11 127.724h-7.92v7.119h7.92v-7.119zM124.242 201.604v2.072l-19.66.525v-2.597h19.66z" fill="#000"/><path d="M158.939 130.204v70.112a1.67 1.67 0 01-1.605 1.647l-79.876 2.126h-.02a1.67 1.67 0 01-1.646-1.647v-72.238a1.665 1.665 0 011.645-1.647h79.855a1.667 1.667 0 011.647 1.647z" fill="#65617D"/><path opacity=".1" d="M77.458 128.557v75.532h-.02a1.67 1.67 0 01-1.646-1.647v-72.238a1.665 1.665 0 011.645-1.647h.021z" fill="#000"/><path d="M81.105 133.034h73.978v61.797l-73.978 1.667v-63.464z" fill="#D4DFEC"/><path opacity=".1" d="M309.221 127.724h-7.919v7.261h7.919v-7.261zM302.623 201.604v2.672l-19.659-.525v-2.147h19.659z" fill="#000"/><path d="M328.567 130.204v72.238a1.665 1.665 0 01-1.667 1.647l-79.892-2.126a1.666 1.666 0 01-1.605-1.647v-70.112a1.667 1.667 0 011.647-1.647h79.855a1.671 1.671 0 011.662 1.647z" fill="#65617D"/><path opacity=".1" d="M328.568 130.204v72.238a1.67 1.67 0 01-1.668 1.647v-75.532a1.668 1.668 0 011.668 1.647z" fill="#000"/><path d="M323.254 133.034h-73.979v61.797l73.979 1.667v-63.464z" fill="#D4DFEC"/><path d="M243.336 130.204v70.112a1.669 1.669 0 01-1.604 1.647l-79.876 2.126a1.668 1.668 0 01-1.667-1.647v-72.238a1.666 1.666 0 011.646-1.647h79.855a1.667 1.667 0 011.646 1.647z" fill="#65617D"/><path d="M165.503 133.034h73.978v61.797l-73.978 1.667v-63.464z" fill="#D4DFEC"/><path opacity=".1" d="M359.722 222.446v5.419l-63.317.584-.675.012-24.065.221-.575.009-7.315.062h-.217l-44.587.413-73.19.679h-.063l-18.609.175-.2.005-82.689.758v-6.252l84.402-.555h.2l17.084-.116h.079l117.982-.78h.121l.071-.004h.195l1.997-.013h.608l31.046-.208 1.834-.008.408-.005 59.475-.396z" fill="#000"/><path d="M203.08 134.843c11.815 0 21.393-9.579 21.393-21.396s-9.578-21.396-21.393-21.396c-11.816 0-21.394 9.579-21.394 21.396s9.578 21.396 21.394 21.396z" fill="#FBBEBE"/><path d="M224.477 157.215s-41.469 5.002-37.51 0c1.434-1.809 1.83-7.169 1.75-13.276a156.45 156.45 0 00-.187-5.69c-.459-9.17-1.563-18.133-1.563-18.133s36.26-17.09 32.092-3.543c-1.667 5.473-1.121 13.16.146 20.375.371 2.106.8 4.169 1.25 6.128a143.76 143.76 0 004.022 14.139z" fill="#FBBEBE"/><path opacity=".1" d="M224.477 157.215s-41.469 5.002-37.51 0c1.434-1.809 1.83-7.169 1.75-13.276 6.323-2.701 14.367-.688 14.367-.688 8.469-1.688 13.899-1.359 17.371-.175a143.76 143.76 0 004.022 14.139z" fill="#000"/><path d="M145.764 230.316v-.35l73.195-.796 44.595-.417h.125l-.046.617.063-.617h.079v-.071l.571-5.606.217-2.122.066-.663.059-.554 2.576-8.591 2.575-8.579 2.167-7.223 3.31-11.038s-1.876-4.377-2.918-5.628c-1.042-1.25-2.084-9.795-2.084-9.795s-8.894-8.475-12.782-9.45c-1.63-.417-4.847-.971-8.265-1.668a116.703 116.703 0 01-3.855-.833 86.745 86.745 0 01-2.084-.505 36.536 36.536 0 01-3.855-1.192 8.63 8.63 0 01-1.876-.954c-3.063-2.247-10.74-2.501-11.036-2.501a.14.14 0 010-.029v-.038a4.18 4.18 0 000-.525c0-.167 0-.363-.038-.584 0-.067 0-.137-.029-.208a5.956 5.956 0 00-.083-.475 7.211 7.211 0 00-.571-1.676c-.029-.067-.067-.138-.1-.204a7.635 7.635 0 00-.884-1.313 8.132 8.132 0 00-1.133-1.101c-.113-.087-.23-.179-.35-.262a2.104 2.104 0 00-.213-.151l-.371-.241-.346-.2c-.304-.167-.625-.33-.975-.484-.108-.05-.225-.096-.342-.142l-.454-.175h-.025l-.313-.125c-.237-.079-.479-.15-.733-.221l-.388-.1-.417-.096-.416-.087a17.95 17.95 0 00-1.33-.217l-.475-.058-.488-.05-.504-.042-.717-.042-.833-.029c-3.677 0-7.343.39-10.937 1.163a30.082 30.082 0 00-7.61-.7h-.363l-.416.025h-.267l-.538.05c-.179 0-.362.037-.542.062-.179.025-.366.046-.546.075l-.275.046c-.271.046-.546.096-.833.155a2.945 2.945 0 00-.275.062c-.363.079-.726.175-1.084.283-.179.051-.358.109-.538.171-.091.025-.179.059-.266.092l-.267.096-.263.104-.312.125a9.39 9.39 0 00-.467.213 2.667 2.667 0 00-.258.125c-.084.046-.171.083-.251.129a11.556 11.556 0 00-2.588 1.826l-.212.204-.209.213c-.071.071-.137.146-.204.221-.271.297-.525.61-.758.938a5.61 5.61 0 00-.192.266c-.265.39-.504.797-.717 1.217-.054.1-.104.205-.154.305a13.674 13.674 0 00-1.046 3.022s-8.824 3.893-16.142 6.711c-1.947.75-3.78 1.43-5.314 1.942-.446.15-.863.288-1.25.417a11.15 11.15 0 01-2.605.601 8.084 8.084 0 00-1.251.116c-3.363.546-9.127 2.918-9.756 5.298-.051.19-.066.388-.042.584v.046c.417 2.918-2.501 2.501-2.501 2.501s-1.042 7.711-2.5 9.795c-1.055 1.501-1.776 4.848-1.868 7.374-.052.787.01 1.578.184 2.347v.059c.167.558-.234 2.084-.913 4.039-.738 2.146-1.813 4.814-2.847 7.332-1.558 3.801-3.025 7.253-3.117 8.012-.038.337-.146.942-.296 1.721-.608 3.176-1.959 9.225-2.626 11.672a450.8 450.8 0 01-1.713 6.044c0 .05-.029.1-.041.146l18.684-.184v.35h.058-.025z" fill="#0F3057"/><path opacity=".1" d="M152.583 181.183s23.756 12.297 32.3 10.838l-32.3-10.838zM200.929 176.181s23.131 7.504 30.842 8.546c7.71 1.042-30.842-8.546-30.842-8.546zM226.586 152.038c-12.087 2.226-34.843 1.747-44.679 1.409 3.605-12.922 21.185-8.529 21.185-8.529 21.76-4.343 23.427 4.669 23.494 7.12z" fill="#000"/><path d="M226.586 151.204c-12.087 2.226-34.843 1.747-44.679 1.409 3.605-12.922 21.185-8.528 21.185-8.528 21.76-4.344 23.427 4.668 23.494 7.119z" fill="#0F3057"/><path d="M290.745 208.174s14.237-2.189 14.516 4.064c.28 6.253-7.26 10.621-7.26 10.621l-7.256-14.685z" fill="#FBBEBE"/><path opacity=".1" d="M219.205 136.948c-.613.274-1.239.516-1.876.726-4.493 1.55-9.023 3.114-13.753 3.68-4.731.567-9.695.067-13.821-2.292a11.941 11.941 0 01-1.25-.813c-.459-9.17-1.563-18.133-1.563-18.133s36.26-17.09 32.092-3.543c-1.659 5.473-1.096 13.16.171 20.375z" fill="#000"/><path d="M197.211 80.004a3.946 3.946 0 01-3.467-.73l.867 1.205a3.532 3.532 0 01-2.826-.938 14.2 14.2 0 00.133 3.23 6.051 6.051 0 01-3.984-1.25 1.843 1.843 0 001.1 1.797 5.974 5.974 0 00-6.502 4.464l2.176.2a7.697 7.697 0 00-4.351 2.656c-.667.833-1.175 1.9-.884 2.917.292 1.018 1.701 1.668 2.468.943a11.643 11.643 0 00-2.543 9.499c.198.713.263 1.456.192 2.193-.138.688-.571 1.284-.788 1.955-.417 1.217-.021 2.538.35 3.751l1.955 6.428c.709 2.322 1.413 4.648 2.338 6.895a34.215 34.215 0 011.667 4.381c.525 2.017.546 4.226 1.667 5.99a8.314 8.314 0 002.993 2.638c4.122 2.36 9.102 2.86 13.82 2.293 4.718-.567 9.244-2.13 13.733-3.681.997-.3 1.954-.72 2.851-1.25 3.105-2.035 3.797-6.195 4.376-9.859.646-4.085 1.509-8.161 3.038-12.005.909-2.288 2.084-4.61 1.884-7.061-.254-3.255-2.83-5.894-3.467-9.095a7.907 7.907 0 01.029-3.24 7.362 7.362 0 00.329-1.958c-.071-1.343-1.171-2.376-2.205-3.24a101.356 101.356 0 00-6.943-5.31c-.121-.833 1.013-1.192 1.525-1.85.725-.93-.025-2.406-1.125-2.84-1.1-.433-2.334-.15-3.48.138a2.75 2.75 0 00-1.614-2.858 2.745 2.745 0 00-3.2.728 4.25 4.25 0 00-3.509-2.534c-2.764-.217-2.818 1.897-4.585 3.06s-3.226-.371-4.584-1.489a3.87 3.87 0 00.566 3.827z" fill="#3F3D56"/><path d="M301.302 220.679s-.371.884-1.055 2.163a28.738 28.738 0 01-3.751 5.49l-.112.121h-.675l-24.065.221h-.575l-.071-.083-4.668-5.54-1.759-2.088-.071-.088-.15-.175-.083-.1-.108-.129-3.422-4.06 1.25-5.211 2.13-8.779.054-.212.417-1.667.296-1.251.992-4.077 3.401-14.026 6.043 3.126 6.372 11.255 3.422 6.044h1.876c.354 0 1.167.683 1.984 1.471.291.28.583.575.833.834.742.767 1.33 1.426 1.33 1.426s3.038.066 3.855 2.459c.042.116.077.234.104.354.271.941.624 1.856 1.054 2.735.538 1.171 1.213 2.501 1.897 3.83a210.646 210.646 0 003.038 5.603l.058.104.159.25z" fill="#0F3057"/><path opacity=".1" d="M265.501 201.859l-.042.596v.042l-.071.958-.554 7.716-.671 9.296-.192 2.617-.417 5.603v.07l-44.595.417-73.182.792v.35h-.059V229.85l.188-5.986.358-11.697.309-9.916.029-.988a4.387 4.387 0 014.76-4.24c1.967.167 4.522.371 7.577.588l1.25.092c17.642 1.225 50.247 2.809 83.147.834.692-.038 1.388-.08 2.084-.13a390.356 390.356 0 0015.246-1.25 4.389 4.389 0 014.835 4.681v.021z" fill="#000"/><path d="M145.764 230.316v-.35l73.195-.796 44.595-.417h.125v-.071l.417-5.602.179-2.501.684-9.425.537-7.461v-.184c.025-.343.01-.689-.046-1.029a.1.1 0 000-.042 4.323 4.323 0 00-.833-1.934 4.39 4.39 0 00-3.926-1.667c-5.047.517-10.145.929-15.246 1.25-.696.05-1.392.092-2.084.129-32.9 1.955-65.505.371-83.147-.833l-1.25-.092c-3.055-.217-5.61-.417-7.577-.588a4.396 4.396 0 00-4.76 4.24l-.284 9.237-.387 11.7-.183 5.986V230.333l-.009-.017z" fill="#3F3D56"/><path opacity=".1" d="M265.626 204.781l-.513 6.39-.763 9.525-.191 2.384-.417 5.34-.025.267v.07l-.063.617.046-.617h-.121l-44.595.417-73.207.792v-.117l.204-5.985.417-11.697.266-7.774a2.658 2.658 0 011.276-2.188 2.596 2.596 0 011.575-.375 654.346 654.346 0 0010.682.754c5.418.342 12.216.709 20.006 1.009 21.672.833 50.93 1.113 78.721-1.322 1.25-.108 2.542-.229 3.805-.35a2.61 2.61 0 011.809.5c.363.263.65.617.833 1.026.043.081.078.166.105.254.125.345.176.713.15 1.08zM124.242 210.487v1.33a2.559 2.559 0 01-1.459 2.309l-16.713.321a2.557 2.557 0 01-1.488-2.321v-1.251l19.66-.388z" fill="#000"/><path d="M124.45 214.91l-21.777.417v-3.614l21.777-.417v3.614z" fill="#3F3D56"/><path opacity=".1" d="M124.45 214.91l-21.777.417v-3.614l21.777-.417v3.614z" fill="#000"/><path d="M125.284 214.91l-21.777.417v-3.614l21.777-.417v3.614z" fill="#3F3D56"/><g opacity=".1" fill="#000"><path opacity=".1" d="M197.382 78.637a4.066 4.066 0 01-.787-1.81 3.942 3.942 0 00.175 1.918c.206-.019.411-.055.612-.108zM192.089 81.405a14.768 14.768 0 01-.154-1.543v1.547l.154-.004zM226.057 95.315c.023-.372.073-.741.15-1.105a7.502 7.502 0 00.333-1.955 2.538 2.538 0 00-.067-.442c-.07.384-.183.767-.266 1.146a7.962 7.962 0 00-.15 2.356zM217.388 82.434l.454.33a8.233 8.233 0 001.071-.926 1.531 1.531 0 00.158-1.517 1.214 1.214 0 01-.158.267c-.513.658-1.646 1.02-1.525 1.846zM183.141 86.444a5.201 5.201 0 00-.363.95 7.58 7.58 0 012.084-.787l-1.721-.163zM188.888 81.909a6.245 6.245 0 01-.783-.513c-.011.165.002.33.037.492.249-.012.499-.005.746.021zM229.637 106.469c-.171 2.022-1.113 3.969-1.876 5.886-1.529 3.843-2.392 7.92-3.038 12.009-.579 3.664-1.25 7.824-4.376 9.854-.893.534-1.85.954-2.847 1.251-4.493 1.555-9.023 3.114-13.753 3.68-4.731.567-9.695.071-13.821-2.288a8.332 8.332 0 01-2.992-2.639c-1.113-1.763-1.134-3.972-1.667-5.99a34.183 34.183 0 00-1.668-4.385c-.921-2.242-1.629-4.585-2.334-6.89-.652-2.143-1.304-4.287-1.954-6.432a12.017 12.017 0 01-.475-1.98c-.163 1.067.154 2.184.475 3.231.65 2.148 1.302 4.292 1.954 6.431.705 2.322 1.413 4.648 2.334 6.891a34.183 34.183 0 011.668 4.385c.525 2.017.546 4.227 1.667 5.99a8.329 8.329 0 002.992 2.638c4.126 2.36 9.103 2.856 13.821 2.289 4.717-.567 9.244-2.126 13.753-3.681a12.544 12.544 0 002.847-1.25c3.105-2.03 3.797-6.19 4.376-9.854.646-4.09 1.509-8.166 3.038-12.01.909-2.284 2.084-4.606 1.884-7.061 0-.025-.008-.05-.008-.075zM179.753 104.856v-.046a5.834 5.834 0 00-.192-2.188c-.083-.458-.138-.92-.163-1.384-.048.881.007 1.765.163 2.634.067.325.142.655.192.984zM181.024 94.66c.32-.538.684-1.05 1.088-1.53-.763.73-2.172.08-2.468-.933-.109.41-.109.84 0 1.25a1.828 1.828 0 001.38 1.213z"/></g><path opacity=".1" d="M285.118 201.609s1.321 4.793 0 8.962c-1.321 4.168 0-8.962 0-8.962zM290.745 206.498s.554 6.086-.696 7.166c-1.251 1.079.696-7.166.696-7.166z" fill="#000"/><path d="M82.935 142.918l42.349-.417M82.935 148.116l42.349-.413M82.935 153.318l42.349-.417" stroke="#0F3057" stroke-width="2" stroke-miterlimit="10"/></g><defs><clipPath id="yclip0"><path fill="#fff" d="M0 0h434v231H0z"/></clipPath></defs></symbol><symbol fill="none" viewBox="0 0 428 222" id="undraw_static_website" xmlns="http://www.w3.org/2000/svg"><g clip-path="url(#zclip0)"><path d="M186.811 2.592L152.353 124.57l216.014 61.148L402.825 63.74 186.811 2.592z" fill="#D4DFEC"/><path d="M190.543 9.484a1.79 1.79 0 10-.002-3.58 1.79 1.79 0 00.002 3.58zM196.052 11.044a1.79 1.79 0 10-.002-3.58 1.79 1.79 0 00.002 3.58zM201.561 12.603a1.79 1.79 0 10-.002-3.58 1.79 1.79 0 00.002 3.58zM301.453 79.992a20.882 20.882 0 00-8.73.206 20.91 20.91 0 00.618-8.83 20.74 20.74 0 00-7.803 5.041 20.784 20.784 0 00-4.01-8.384 20.89 20.89 0 00-4.094 7.845 20.9 20.9 0 00-7.328-4.752s-1.303 6.633 1.833 12.076c2.792 4.844 8.156 7.111 9.303 7.551l.027.033.014-.017c.116.044.182.067.182.067s.024-.127.058-.355l.064-.08.013.102c-.09.212-.135.333-.135.333s.067.015.189.038l.004.022.04-.014c1.207.227 6.962 1.107 11.875-1.556 5.519-2.993 7.88-9.326 7.88-9.326zM290.747 63.048a4.654 4.654 0 004.652-4.656 4.654 4.654 0 00-4.652-4.657 4.653 4.653 0 00-4.651 4.657 4.653 4.653 0 004.651 4.656zM349.152 118.847l-139.788-39.57-.86 3.044 139.788 39.57.86-3.044zM242.265 104.967l-24.101-6.822-6.816 24.126 24.102 6.822 6.815-24.126zM287.025 117.637l-24.102-6.822-6.815 24.126 24.101 6.822 6.816-24.126zM331.784 130.308l-24.101-6.823-6.815 24.126 24.101 6.823 6.815-24.126zM230.988 133.041l-17.904-5.068-.584 2.068 17.904 5.068.584-2.068zM275.748 145.711l-17.904-5.068-.585 2.068 17.904 5.068.585-2.068zM320.507 158.382l-17.904-5.068-.584 2.068 17.904 5.068.584-2.068z" fill="#0F3057"/><path d="M122.102 171.776c66.131 0 119.74-1.984 119.74-4.432 0-2.447-53.609-4.431-119.74-4.431s-119.74 1.984-119.74 4.431c0 2.448 53.609 4.432 119.74 4.432zM334.822 222c51.461 0 93.178-1.984 93.178-4.432 0-2.447-41.717-4.431-93.178-4.431s-93.179 1.984-93.179 4.431c0 2.448 41.718 4.432 93.179 4.432z" fill="#D0CDE1"/><path d="M289.121 183.171h26.882v11.254h-15.64v11.253h15.641v11.253h-26.883v-33.76zm32.259 0h26.882v9.786h-15.64v1.957h15.64v22.507h-26.881v-10.276h15.64v-1.957h-15.642v-22.017h.001zm32.259 0h26.883v9.786h-15.641v1.957h15.641v22.507h-26.883v-10.276h15.641v-1.957h-15.64v-22.017h-.001zM54.174 131.681h11.09v10.967h10.145v-10.967h11.09v33.212h-11.09v-11.121H65.264v11.121h-11.09v-33.212zm46.907 11.014H91.32v-11.014h30.62v11.014h-9.767v22.198h-11.09v-22.198h-.002zm25.719-11.014h11.563l7.113 11.67 7.106-11.67h11.568v33.212h-11.045v-16.462l-7.629 11.809h-.191l-7.635-11.809v16.462H126.8v-33.212zm42.869 0h11.093v22.234h15.595v10.978h-26.689v-33.212h.001z" fill="#D4DFEC"/><path d="M34.587 154.51l-.91 10.326 7.282-.608v-8.807l-6.372-.911zM27.913 154.51l.91 10.326-7.282-.608v-8.807l6.372-.911z" fill="#FFB8B8"/><path d="M47.027 75.242s2.427 14.578 2.427 16.704c0 2.126-.91 15.793-2.427 18.526-1.517 2.734-1.82 3.948-1.214 5.163.607 1.215.304.911 0 1.822-.303.912-.91.608 0 1.823a3.192 3.192 0 010 3.644c-.607.911 1.214 25.512-1.213 27.334-2.428 1.822-3.034 7.897-3.034 7.897l-7.889-.912v-6.681s-1.82-4.86-.607-7.897c1.214-3.037 1.82-19.133 1.82-19.133s-.303-1.519 0-2.43c.304-.911 0-1.519-.606-1.822-.607-.304-.91-1.519-.91-1.519l-.91-22.17-3.641 21.866s3.64 29.764 0 33.712v6.986h-7.889l1.214-7.593s-2.427-6.986-1.213-8.504c1.213-1.519-3.641-25.815-3.034-26.727.606-.911.303-1.214 0-1.822-.304-.607-1.214-1.215-.91-1.822.303-.607 0-1.822 0-1.822s-5.765-28.549-3.035-31.282c2.73-2.734 33.07-3.341 33.07-3.341zM35.498 160.888s.607-2.913 5.46-1.912c0 0 1.215 2.519 1.215 3.734 0 1.215 1.213 9.415 1.213 9.415s4.854 8.2-1.214 8.2c-6.067 0-8.191-2.126-8.495-4.252-.303-2.126.304-2.733-.91-3.644s-1.82-.911-1.517-2.126c.303-1.215.91-7.289.91-7.289s.304-4.556 1.972-3.341l1.67 1.215" fill="#2F2E41"/><path d="M27.003 160.888s-.607-2.913-5.462-1.912c0 0-1.213 2.519-1.213 3.734 0 1.215-1.214 9.415-1.214 9.415s-4.854 8.2 1.214 8.2 8.192-2.126 8.495-4.252c.303-2.126-.303-2.733.91-3.644 1.214-.911 1.82-.911 1.517-2.126-.303-1.215-.91-7.289-.91-7.289s-.303-4.556-1.972-3.341l-1.669 1.215" fill="#2F2E41"/><path d="M35.801 19.36c4.524 0 8.192-3.672 8.192-8.2 0-4.53-3.668-8.201-8.192-8.201s-8.192 3.671-8.192 8.2 3.668 8.2 8.192 8.2z" fill="#FFB8B8"/><path d="M29.126 12.374s-3.337 13.06-3.944 13.363c-.607.304 13.957 1.519 13.957 1.519s-3.641-11.238 0-13.06l-10.013-1.822z" fill="#FFB8B8"/><path d="M26.995 20.332v-.001L16.99 27.256l1.82 54.364s13.35-1.519 16.384-1.215c3.034.304 12.743-2.734 12.743-2.734l-4.253-51.083a4.198 4.198 0 00-3.882-3.837l-1.822-.129s-1.82 4.512-7.297 2.184a6.391 6.391 0 01-3.688-4.474z" fill="#D0CDE1"/><path d="M27.237 19.837l-12.37 5.9-2.428 34.927s-4.854 20.956-.91 27.03c3.944 6.074 10.62 6.682 10.62 6.682s8.798-34.927 6.37-46.772c-2.427-11.844-1.282-27.767-1.282-27.767z" fill="#62659B"/><path d="M3.944 72.508v4.556s-1.82 10.023 3.944 9.719c5.765-.304 3.034-10.934 3.034-10.934l-1.82-3.34H3.944zM57.342 81.62l-.606 5.163s3.034 10.326-2.731 10.63c-5.765.303-1.58-10.567-1.58-10.567l1.883-5.834 3.034.608z" fill="#FFB8B8"/><path d="M37.797 21.56a35.718 35.718 0 0114.942 7.776l.052.046-4.247 22.474-.607 8.2s11.226 40.09-1.82 34.32c0 0-11.226-34.927-9.71-51.024 1.518-16.096 1.39-21.791 1.39-21.791z" fill="#62659B"/><path d="M48.847 29.078c.304-.304 3.944.422 3.944.422s6.675 23.571 6.675 27.52c0 3.947.91 26.422.91 26.422l-8.008.808-6.483-31.226 2.962-23.946zM16.99 25.737h-2.123s-6.068 2.43-6.372 5.163C8.192 33.634 0 61.271 0 61.271l2.124 13.97 7.888-1.214 1.517-15.49 7.889-17.007-2.428-15.793z" fill="#62659B"/><path d="M34.21 13.448l.314-2.192c.073-.51.372-1.183.868-1.043.422.118 1.342.48 1.496.37.577-.409 1.45.306 2.057-.057.254-.152.42-.478.715-.5a.815.815 0 01.525.238c.394.343.858.595 1.36.74a1.461 1.461 0 001.43-.391.76.76 0 01.254-.243.567.567 0 01.364.017l1.55.422a5.967 5.967 0 00-.797-4.908 9.868 9.868 0 00-2.258-2.213 40.999 40.999 0 00-2.971-2.063 9.646 9.646 0 00-3.61-1.572c-1.308-.199-2.771.156-3.593 1.193A2.315 2.315 0 0131.082.12a.851.851 0 00.055 1.307L29.826.59c-.369.387.351 1.09.037 1.522a.801.801 0 01-.353.23 6.007 6.007 0 00-1.922 1.212 7.18 7.18 0 00-1.514 2.79c-.78 2.244-1.348 4.817-.239 6.916.126.238 1.787 4.168 2.008 4.32.748.519.261-.735.797 0 .42.578.342-1.63.967-1.145a1.557 1.557 0 001.694.076c.26-.18.176-1.178.036-2.095a1.08 1.08 0 011.313-1.215c.778.183 1.546.34 1.56.247z" fill="#2F2E41"/><path opacity=".2" d="M49.606 56.564L52.943 84.2h-2.124l-1.213-27.637zM14.412 45.934l-1.688 10.63 3.204-10.63h-1.517z" fill="#000"/></g><defs><clipPath id="zclip0"><path fill="#fff" d="M0 0h428v222H0z"/></clipPath></defs></symbol></svg>