<svg width="0" height="0" class="hidden">
  <symbol fill="none" xmlns="http://www.w3.org/2000/svg" viewBox="0 0 130 140" id="logos_laravel">
    <g clip-path="url(#clip0)">
      <path d="M129.927 31.616c.048.186.073.378.073.57v29.999c0 .784-.401 1.508-1.053 1.897L104.838 78.58v28.732c0 .384-.097.762-.28 1.095a2.16 2.16 0 01-.767.803l-50.328 30.255c-.116.068-.241.112-.367.159-.047.016-.091.046-.141.06a2.016 2.016 0 01-1.074 0c-.058-.016-.11-.05-.165-.071-.115-.044-.236-.082-.345-.148L1.053 109.208a2.14 2.14 0 01-.77-.801A2.263 2.263 0 010 107.311V17.316c0-.197.026-.388.073-.574.016-.063.052-.12.074-.183.039-.115.076-.233.133-.34.04-.07.097-.128.144-.193.06-.088.115-.178.186-.255.06-.063.139-.11.207-.164.076-.066.144-.137.23-.188h.003L26.21.29a2.022 2.022 0 012.094 0l25.16 15.127h.006c.083.056.154.123.23.187.068.054.144.104.204.164.074.079.126.17.189.257.044.065.105.123.141.194.06.109.094.224.136.34.021.062.058.119.074.185.048.186.073.378.073.571v56.21l20.966-12.607V32.184c0-.19.026-.385.073-.568.019-.066.053-.123.073-.186.043-.115.08-.233.137-.34.039-.07.096-.128.141-.194.063-.087.115-.177.188-.254.061-.063.137-.11.205-.164.079-.066.147-.137.23-.189h.003l25.163-15.127a2.026 2.026 0 012.094 0l25.16 15.127c.089.055.157.123.236.186.065.055.141.104.202.164.073.08.125.17.187.257.048.066.106.123.143.194.06.107.094.225.135.34.024.063.058.12.074.186zm-4.121 29.303V35.974l-8.805 5.293-12.164 7.313v24.946l20.972-12.607h-.003zm-25.16 45.126V81.082L88.681 88.22l-34.166 20.363v25.197l46.131-27.735v.001zM4.194 21.103v84.942l46.126 27.732v-25.192L26.223 94.343l-.007-.005-.01-.006c-.082-.049-.15-.12-.226-.18-.066-.055-.142-.099-.199-.16l-.005-.007c-.068-.068-.115-.153-.173-.23-.052-.074-.115-.136-.157-.213l-.003-.008c-.047-.082-.076-.18-.11-.273-.034-.083-.078-.16-.1-.246v-.003c-.025-.104-.03-.214-.04-.32-.011-.082-.032-.164-.032-.246V33.71l-12.162-7.317-8.805-5.287v-.003zM27.26 4.715L6.296 17.316l20.959 12.602 20.96-12.605-20.96-12.598h.005zm10.902 78.643l12.16-7.311V21.103l-8.803 5.293-12.165 7.314v54.943l8.808-5.295zm64.581-63.772l-20.96 12.6 20.96 12.602 20.958-12.604-20.958-12.598zm-2.098 28.994l-12.163-7.313-8.805-5.294V60.92l12.161 7.311 8.808 5.296V48.58h-.001zm-48.23 56.216l30.744-18.33 15.369-9.16-20.945-12.592-24.116 14.498-21.98 13.214 20.928 12.37z" fill="#FF2D20"></path>
    </g>
    <defs>
      <clipPath id="clip0">
        <path fill="#fff" d="M0 0h130v140H0z"></path>
      </clipPath>
    </defs>
  </symbol>
  <symbol fill="none" xmlns="http://www.w3.org/2000/svg" viewBox="0 0 122 140" id="logos_linux-tux">
    <g clip-path="url(#clip0)">
      <g filter="url(#filter0_f)">
        <path d="M116.331 118.34c0 8.236-24.971 14.948-55.782 14.948-30.811 0-55.782-6.668-55.782-14.948 0-8.237 24.971-14.948 55.781-14.948 30.812 0 55.739 6.711 55.783 14.948z" fill="#000" fill-opacity=".2"></path>
      </g>
      <path d="M30 102.259c-5.404-7.758-6.45-33.034 6.144-48.592 6.232-7.452 7.845-12.638 8.324-19.654C44.816 26.038 38.846 2.287 61.333.5c22.792-1.83 21.529 20.657 21.398 32.554-.087 10.023 7.365 15.732 12.507 23.577 9.457 14.381 8.673 39.134-1.787 52.557-13.248 16.778-24.578 9.5-32.118 10.11-14.12.828-14.599 8.324-31.333-17.039z" fill="#000"></path>
      <path d="M84.997 58.112c3.922 3.617 14.076 19.785-2.005 29.896-5.665 3.53 5.056 16.952 10.198 10.46 9.108-11.68 3.312-30.332-2.18-37-3.66-4.707-9.325-6.537-6.013-3.356z" fill="url(#paint0_linear)"></path>
      <path d="M83.907 55.933c6.45 5.23 18.173 23.533 1.047 35.474-5.622 3.705 4.967 15.428 10.938 9.457 20.7-20.831-.523-44.757-7.845-52.993-6.537-7.19-12.333 1.656-4.14 8.062z" fill="#000" stroke="#000" stroke-width=".977"></path>
      <path d="M74.625 11.874c-.218 5.97-6.799 11.157-14.686 11.636-7.888.48-14.076-4.053-13.859-10.023.218-5.97 6.799-11.157 14.687-11.636 7.887-.436 14.076 4.053 13.858 10.023z" fill="url(#paint1_linear)"></path>
      <path d="M55.755 26.081c.218 3.879-1.612 7.147-4.14 7.278-2.528.13-4.75-2.876-4.968-6.755-.218-3.878 1.612-7.147 4.14-7.277 2.528-.131 4.75 2.876 4.968 6.754z" fill="url(#paint2_linear)"></path>
      <path d="M60.33 26.386c.088 4.489 3.008 8.062 6.494 7.975 3.486-.087 6.232-3.791 6.145-8.324-.087-4.488-3.007-8.062-6.494-7.974-3.486.086-6.275 3.834-6.144 8.323z" fill="url(#paint3_linear)"></path>
      <path d="M63.207 27.389c-.044 2.483 1.177 4.488 2.789 4.488 1.569 0 2.92-2.005 2.964-4.445.043-2.484-1.177-4.489-2.79-4.489-1.612 0-2.92 2.005-2.963 4.445zm-10.067.043c.218 2.049-.566 3.792-1.7 3.966-1.132.13-2.222-1.395-2.44-3.443-.218-2.048.567-3.792 1.7-3.966 1.133-.13 2.222 1.395 2.44 3.443z" fill="#000"></path>
      <path d="M63.86 25.994c-.13 1.395.524 2.527 1.439 2.615.915.087 1.787-1.003 1.917-2.354.131-1.394-.523-2.527-1.438-2.615-.915-.087-1.787 1.003-1.917 2.354z" fill="url(#paint4_linear)"></path>
      <path d="M52.181 26.343c.131 1.133-.348 2.135-1.045 2.222-.698.087-1.352-.784-1.483-1.96-.13-1.134.35-2.136 1.047-2.223.697-.088 1.35.827 1.481 1.96z" fill="url(#paint5_linear)"></path>
      <path d="M38.453 69.138c3.095-7.017 9.675-19.35 9.806-28.894 0-7.582 22.705-9.413 24.536-1.83 1.83 7.583 6.45 18.914 9.412 24.405 2.964 5.447 11.55 22.836 2.398 38.001-8.237 13.423-33.208 24.056-46.544-1.83-4.532-8.977-3.704-20.09.392-29.852z" fill="url(#paint6_linear)"></path>
      <path d="M35.664 63.908c-2.658 5.012-8.149 18.173 5.274 25.364 14.425 7.67 14.381 23.402-2.964 15.906-15.862-6.754-8.846-34.123-4.401-40.66 2.876-4.575 7.234-10.197 2.091-.61z" fill="url(#paint7_linear)"></path>
      <path d="M37.93 58.243c-4.227 6.886-14.337 23.097-.783 31.552 18.216 11.2 13.073 22.356-3.574 12.289-23.446-14.032-2.833-42.36 6.537-53.167 10.72-12.115 2.048 2.223-2.18 9.326v0z" fill="#000" stroke="#000" stroke-width="1.25"></path>
      <path d="M78.983 71.796c0 7.67-7.365 17.607-20.004 17.52-13.03.086-18.564-9.85-18.564-17.52s8.629-13.902 19.262-13.902c10.677.044 19.306 6.232 19.306 13.902z" fill="url(#paint8_linear)"></path>
      <path d="M72.098 47.697c-.131 7.931-5.318 9.805-11.854 9.805-6.538 0-11.288-1.177-11.854-9.805 0-5.404 5.316-8.542 11.854-8.542 6.536-.043 11.853 3.094 11.853 8.542z" fill="url(#paint9_linear)"></path>
      <path d="M32.57 59.899c4.271-6.493 13.292-16.473 1.7 1.395-9.413 14.73-3.486 24.187-.436 26.801 8.803 7.845 8.455 13.117 1.526 8.978-14.861-8.847-11.767-23.752-2.79-37.174z" fill="url(#paint10_linear)"></path>
      <path d="M94.41 62.557c-3.704-7.626-15.47-26.975.567-4.489 14.599 20.352 4.358 34.516 2.527 35.91-1.83 1.395-7.975 4.228-6.188-.697 1.83-4.925 10.895-14.25 3.094-30.724z" fill="url(#paint11_linear)"></path>
      <path d="M29.346 122.698c-9.762-5.186-23.926 1.002-18.783-13.031 1.046-3.181-1.526-7.975.13-11.07 1.962-3.79 6.189-2.962 8.716-5.49 2.484-2.615 4.053-7.147 8.716-6.45 4.62.697 7.714 6.363 10.939 13.336 2.397 4.967 10.851 11.984 10.285 17.562-.698 8.542-10.416 10.154-20.003 5.143z" fill="url(#paint12_linear)" stroke="#E68C3F" stroke-width="6.25"></path>
      <path d="M100.424 89.751c-1.482 2.79-7.67 7.278-11.81 6.101-4.184-1.133-6.101-7.496-5.273-12.333.784-5.404 5.273-5.71 10.939-3.007 6.101 3.007 7.931 5.535 6.144 9.24z" fill="url(#paint13_linear)"></path>
      <path d="M97.025 120.3c7.147-8.672 23.054-6.885 12.333-18.782-2.266-2.572-1.569-8.063-4.358-10.416-3.268-2.876-6.885-.523-10.198-2.004-3.312-1.613-6.798-4.707-10.85-2.528-4.054 2.223-4.49 7.975-4.882 15.558-.349 5.447-5.316 14.555-2.658 19.567 3.835 7.757 13.815 6.711 20.613-1.394v-.001z" fill="url(#paint14_linear)" stroke="#E68C3F" stroke-width="6.251"></path>
      <path d="M93.93 108.708c11.07-16.342 2.834-16.211.044-17.475-2.789-1.308-5.709-3.879-8.977-2.092-3.269 1.83-3.443 6.537-3.53 12.725-.13 4.446-3.835 11.898-1.612 16.038 2.701 4.837 9.238-2.179 14.075-9.196z" fill="url(#paint15_linear)"></path>
      <path d="M27.08 111.062c-16.56-10.721-8.804-14.382-6.32-16.081 3.007-2.18 3.051-6.363 6.755-5.97 3.705.391 5.883 4.967 8.367 10.633 1.83 4.053 8.193 9.457 7.714 14.12-.61 5.491-9.37 1.873-16.517-2.702z" fill="url(#paint16_linear)"></path>
      <path d="M99.466 89.62c-1.308 2.267-6.625 5.84-10.154 4.881-3.618-.915-5.274-6.014-4.533-9.849.654-4.358 4.532-4.575 9.413-2.396 5.186 2.353 6.799 4.357 5.274 7.364z" fill="#000"></path>
      <path d="M95.892 88.357c-.828 1.569-4.314 4.052-6.755 3.399-2.44-.653-3.66-4.183-3.268-6.842.348-3.007 2.963-3.182 6.275-1.7 3.573 1.657 4.707 3.051 3.748 5.143z" fill="url(#paint17_linear)"></path>
      <path d="M50.83 31.485c1.744-1.613 5.97-6.537 13.99-1.395 1.481.959 2.701 1.046 5.534 2.266 5.71 2.354 3.007 8.02-3.094 9.937-2.615.828-4.968 4.01-9.675 3.704-4.053-.218-5.099-2.876-7.583-4.314-4.401-2.484-5.055-5.84-2.658-7.627 2.397-1.786 3.312-2.44 3.486-2.57z" fill="url(#paint18_linear)" stroke="#E68C3F" stroke-width="3.75"></path>
      <path d="M70.441 36.061c-2.396.13-7.583 5.317-13.03 5.317-5.448 0-8.716-5.056-9.544-5.056" stroke="#E68C3F" stroke-width="2.5"></path>
      <path d="M53.532 31.05c.872-.785 3.618-2.92 7.235-.742.784.436 1.569.916 2.701 1.57 2.31 1.35 1.177 3.312-1.612 4.531-1.264.523-3.355 1.657-4.924 1.57-1.744-.175-2.92-1.308-4.053-2.05-2.136-1.393-2.005-2.57-1.002-3.485.74-.698 1.568-1.351 1.656-1.395z" fill="url(#paint19_linear)"></path>
    </g>
    <defs>
      <linearGradient id="paint0_linear" x1="89.427" y1="106.891" x2="92.287" y2="74.813" gradientUnits="userSpaceOnUse">
        <stop stop-color="#FFEED7"></stop>
        <stop offset="1" stop-color="#BDBFC2"></stop>
      </linearGradient>
      <linearGradient id="paint1_linear" x1="61.611" y1="2.344" x2="60.245" y2="21.561" gradientUnits="userSpaceOnUse">
        <stop stop-color="#fff" stop-opacity=".8"></stop>
        <stop offset="1" stop-color="#fff" stop-opacity="0"></stop>
      </linearGradient>
      <linearGradient id="paint2_linear" x1="51.371" y1="31.713" x2="50.53" y2="20.728" gradientUnits="userSpaceOnUse">
        <stop stop-color="#FFEED7"></stop>
        <stop offset="1" stop-color="#BDBFC2"></stop>
      </linearGradient>
      <linearGradient id="paint3_linear" x1="66.639" y1="31.998" x2="66.639" y2="20.313" gradientUnits="userSpaceOnUse">
        <stop stop-color="#FFEED7"></stop>
        <stop offset="1" stop-color="#BDBFC2"></stop>
      </linearGradient>
      <linearGradient id="paint4_linear" x1="65.671" y1="23.79" x2="65.095" y2="28.27" gradientUnits="userSpaceOnUse">
        <stop stop-color="#fff" stop-opacity=".65"></stop>
        <stop offset="1" stop-color="#fff" stop-opacity="0"></stop>
      </linearGradient>
      <linearGradient id="paint5_linear" x1="50.804" y1="24.606" x2="51.424" y2="28.234" gradientUnits="userSpaceOnUse">
        <stop stop-color="#fff" stop-opacity=".65"></stop>
        <stop offset="1" stop-color="#fff" stop-opacity="0"></stop>
      </linearGradient>
      <linearGradient id="paint6_linear" x1="61.849" y1="106.573" x2="61.849" y2="66.58" gradientUnits="userSpaceOnUse">
        <stop stop-color="#FFEED7"></stop>
        <stop offset="1" stop-color="#BDBFC2"></stop>
      </linearGradient>
      <linearGradient id="paint7_linear" x1="40.577" y1="107.14" x2="30.369" y2="72.34" gradientUnits="userSpaceOnUse">
        <stop stop-color="#FFEED7"></stop>
        <stop offset="1" stop-color="#BDBFC2"></stop>
      </linearGradient>
      <linearGradient id="paint8_linear" x1="59.638" y1="62.051" x2="59.74" y2="87.642" gradientUnits="userSpaceOnUse">
        <stop stop-color="#fff" stop-opacity=".8"></stop>
        <stop offset="1" stop-color="#fff" stop-opacity="0"></stop>
      </linearGradient>
      <linearGradient id="paint9_linear" x1="60.226" y1="46.003" x2="60.34" y2="56.179" gradientUnits="userSpaceOnUse">
        <stop stop-color="#fff" stop-opacity=".65"></stop>
        <stop offset="1" stop-color="#fff" stop-opacity="0"></stop>
      </linearGradient>
      <linearGradient id="paint10_linear" x1="32.746" y1="52.284" x2="32.746" y2="89.626" gradientUnits="userSpaceOnUse">
        <stop stop-color="#fff" stop-opacity=".65"></stop>
        <stop offset="1" stop-color="#fff" stop-opacity="0"></stop>
      </linearGradient>
      <linearGradient id="paint11_linear" x1="94.709" y1="48.636" x2="94.695" y2="82.377" gradientUnits="userSpaceOnUse">
        <stop stop-color="#fff" stop-opacity=".65"></stop>
        <stop offset="1" stop-color="#fff" stop-opacity="0"></stop>
      </linearGradient>
      <linearGradient id="paint12_linear" x1="30.807" y1="105.635" x2="25.269" y2="124.859" gradientUnits="userSpaceOnUse">
        <stop stop-color="#FFA63F"></stop>
        <stop offset="1" stop-color="#FF0"></stop>
      </linearGradient>
      <linearGradient id="paint13_linear" x1="92.54" y1="103.442" x2="91.749" y2="67.731" gradientUnits="userSpaceOnUse">
        <stop stop-color="#FFEED7"></stop>
        <stop offset="1" stop-color="#BDBFC2"></stop>
      </linearGradient>
      <linearGradient id="paint14_linear" x1="87.049" y1="99.824" x2="102.128" y2="121.186" gradientUnits="userSpaceOnUse">
        <stop stop-color="#FFA63F"></stop>
        <stop offset="1" stop-color="#FF0"></stop>
      </linearGradient>
      <linearGradient id="paint15_linear" x1="91.298" y1="83.197" x2="86.144" y2="108.424" gradientUnits="userSpaceOnUse">
        <stop stop-color="#fff" stop-opacity=".65"></stop>
        <stop offset="1" stop-color="#fff" stop-opacity="0"></stop>
      </linearGradient>
      <linearGradient id="paint16_linear" x1="29.596" y1="89.416" x2="30.614" y2="117.719" gradientUnits="userSpaceOnUse">
        <stop stop-color="#fff" stop-opacity=".65"></stop>
        <stop offset="1" stop-color="#fff" stop-opacity="0"></stop>
      </linearGradient>
      <linearGradient id="paint17_linear" x1="90.335" y1="82.739" x2="91.528" y2="91.209" gradientUnits="userSpaceOnUse">
        <stop stop-color="#fff" stop-opacity=".65"></stop>
        <stop offset="1" stop-color="#fff" stop-opacity="0"></stop>
      </linearGradient>
      <linearGradient id="paint18_linear" x1="59.659" y1="31.014" x2="59.758" y2="45.907" gradientUnits="userSpaceOnUse">
        <stop stop-color="#FFA63F"></stop>
        <stop offset="1" stop-color="#FF0"></stop>
      </linearGradient>
      <linearGradient id="paint19_linear" x1="57.966" y1="29.605" x2="57.939" y2="37.48" gradientUnits="userSpaceOnUse">
        <stop stop-color="#fff" stop-opacity=".65"></stop>
        <stop offset="1" stop-color="#fff" stop-opacity="0"></stop>
      </linearGradient>
      <clipPath id="clip0">
        <path fill="#fff" d="M0 0h121.492v140H0z"></path>
      </clipPath>
      <filter id="filter0_f" x="-8.233" y="90.392" width="137.564" height="55.896" filterUnits="userSpaceOnUse" color-interpolation-filters="sRGB">
        <feFlood flood-opacity="0" result="BackgroundImageFix"></feFlood>
        <feBlend in="SourceGraphic" in2="BackgroundImageFix" result="shape"></feBlend>
        <feGaussianBlur stdDeviation="6.5" result="effect1_foregroundBlur"></feGaussianBlur>
      </filter>
    </defs>
  </symbol>
  <symbol fill="none" xmlns="http://www.w3.org/2000/svg" viewBox="0 0 266 140" id="logos_php">
    <g clip-path="url(#clip0)">
      <path d="M132.741 139.585c73.31 0 132.74-31.247 132.74-69.792C265.481 31.247 206.051 0 132.741 0 59.43 0 0 31.247 0 69.793c0 38.545 59.43 69.792 132.741 69.792z" fill="url(#paint0_radial)"></path>
      <path d="M132.741 134.4c70.447 0 127.555-28.926 127.555-64.607 0-35.682-57.108-64.608-127.555-64.608S5.185 34.111 5.185 69.793c0 35.681 57.109 64.607 127.556 64.607z" fill="#6181B6"></path>
      <path d="M158.563 90.74l6.326-32.562c1.452-7.363.207-12.86-3.526-16.282-3.63-3.318-9.852-4.977-18.978-4.977h-10.992l3.111-16.178c.103-.622 0-1.245-.415-1.763-.415-.519-.933-.726-1.556-.726h-15.14a2.119 2.119 0 00-2.074 1.66l-6.741 34.532c-.622-3.94-2.074-7.259-4.563-9.955-4.46-5.081-11.408-7.674-20.845-7.674H54.03a2.119 2.119 0 00-2.074 1.66L38.37 108.577c-.103.622 0 1.244.415 1.763.415.518.934.726 1.556.726h15.244a2.12 2.12 0 002.074-1.659l3.319-16.904H72.28c5.912 0 10.993-.622 14.83-1.867 4.045-1.348 7.674-3.526 10.889-6.533 2.593-2.385 4.77-5.082 6.43-7.985l-2.697 14c-.103.622 0 1.244.415 1.763.415.518.934.725 1.556.725h15.14a2.12 2.12 0 002.075-1.659l7.466-38.37h10.371c4.459 0 5.703.83 6.118 1.244.311.311.933 1.556.208 5.393l-6.015 31.007c-.104.623 0 1.245.415 1.763.414.519.933.726 1.555.726h15.556c.933-.31 1.763-1.037 1.97-1.97zM88.459 63.779c-.933 4.874-2.696 8.4-5.289 10.37-2.592 1.97-6.844 3.008-12.444 3.008h-6.74l4.873-25.097h8.711c6.43 0 9.023 1.349 10.06 2.49 1.348 1.659 1.659 4.873.83 9.229zm134.815-19.29c-4.459-5.081-11.407-7.674-20.844-7.674h-29.348a2.12 2.12 0 00-2.075 1.66l-13.585 69.999c-.103.622 0 1.245.415 1.763.415.519.933.726 1.556.726h15.244a2.119 2.119 0 002.074-1.659L180.03 92.4h11.303c5.912 0 10.993-.622 14.83-1.867 4.044-1.348 7.674-3.526 10.889-6.533 2.696-2.489 4.978-5.289 6.637-8.296a34.541 34.541 0 003.63-9.956c1.763-9.022.414-16.074-4.045-21.259zm-15.867 19.289c-.933 4.874-2.696 8.4-5.288 10.37-2.593 1.97-6.845 3.008-12.445 3.008h-6.741l4.874-25.097h8.712c6.429 0 9.022 1.349 10.059 2.49 1.452 1.659 1.763 4.873.829 9.229z" fill="#fff"></path>
      <path d="M77.57 49.985c5.808 0 9.645 1.037 11.615 3.215 1.97 2.178 2.385 5.807 1.348 10.993-1.037 5.392-3.11 9.333-6.118 11.614-3.008 2.282-7.57 3.423-13.69 3.423h-9.229L67.2 49.985h10.37zM40.445 108.89h15.244l3.63-18.563h13.066c5.808 0 10.474-.622 14.208-1.867 3.733-1.244 7.051-3.215 10.163-6.118 2.592-2.385 4.666-4.978 6.222-7.778a30.266 30.266 0 003.318-9.333c1.66-8.297.415-14.726-3.629-19.393-4.045-4.667-10.474-6.948-19.29-6.948H54.03l-13.586 70zm77.051-88.564h15.141l-3.63 18.563h13.482c8.504 0 14.311 1.452 17.526 4.46 3.215 3.007 4.148 7.777 2.904 14.414l-6.326 32.563h-15.349l6.015-31.007c.726-3.526.415-5.912-.726-7.156-1.14-1.244-3.733-1.97-7.57-1.97H126.83l-7.778 40.133h-15.141l13.585-70zm79.023 29.659c5.807 0 9.644 1.037 11.614 3.215 1.971 2.178 2.386 5.807 1.348 10.993-1.037 5.392-3.111 9.333-6.118 11.614-3.007 2.282-7.57 3.423-13.689 3.423h-9.23l5.704-29.245h10.371zm-37.126 58.904h15.244l3.63-18.563h13.066c5.808 0 10.474-.622 14.208-1.867 3.733-1.244 7.052-3.215 10.163-6.118 2.592-2.385 4.666-4.978 6.222-7.778a30.266 30.266 0 003.318-9.333c1.66-8.297.415-14.726-3.629-19.393-4.045-4.667-10.474-6.948-19.289-6.948h-29.348l-13.585 70z" fill="#000004"></path>
    </g>
    <defs>
      <radialGradient id="paint0_radial" cx="0" cy="0" r="1" gradientUnits="userSpaceOnUse" gradientTransform="translate(79.698 24.544) scale(174.321)">
        <stop stop-color="#fff"></stop>
        <stop offset=".5" stop-color="#4C6B97"></stop>
        <stop offset="1" stop-color="#231F20"></stop>
      </radialGradient>
      <clipPath id="clip0">
        <path fill="#fff" d="M0 0h265.481v140H0z"></path>
      </clipPath>
    </defs>
  </symbol>
  <symbol fill="none" xmlns="http://www.w3.org/2000/svg" viewBox="0 0 141 140" id="logos_python">
    <g clip-path="url(#clip0)">
      <path d="M69.68.04c-35.595 0-33.373 15.435-33.373 15.435l.04 15.992h33.967v4.8H22.856S.079 33.686.079 69.6c0 35.915 19.88 34.641 19.88 34.641h11.865V87.574s-.64-19.88 19.562-19.88h33.69s18.927.306 18.927-18.293V18.65S106.877.04 69.679.04zM50.95 10.792a6.104 6.104 0 016.11 6.11 6.106 6.106 0 01-6.11 6.111 6.104 6.104 0 01-6.11-6.11 6.106 6.106 0 016.11-6.11z" fill="url(#paint0_linear)"></path>
      <path d="M70.69 139.519c35.594 0 33.372-15.435 33.372-15.435l-.04-15.992H70.055v-4.801h47.458s22.777 2.583 22.777-33.332-19.88-34.64-19.88-34.64h-11.865v16.665s.64 19.88-19.562 19.88h-33.69s-18.927-.306-18.927 18.293v30.752s-2.874 18.61 34.324 18.61zm18.73-10.753a6.097 6.097 0 01-4.323-1.788 6.105 6.105 0 01-1.788-4.322 6.107 6.107 0 018.45-5.648 6.103 6.103 0 013.771 5.647 6.099 6.099 0 01-1.788 4.322 6.103 6.103 0 01-4.322 1.789z" fill="url(#paint1_linear)"></path>
    </g>
    <defs>
      <linearGradient id="paint0_linear" x1="13.553" y1="12.585" x2="83.037" y2="81.375" gradientUnits="userSpaceOnUse">
        <stop stop-color="#387EB8"></stop>
        <stop offset="1" stop-color="#366994"></stop>
      </linearGradient>
      <linearGradient id="paint1_linear" x1="56.203" y1="56.757" x2="130.82" y2="127.296" gradientUnits="userSpaceOnUse">
        <stop stop-color="#FFE052"></stop>
        <stop offset="1" stop-color="#FFC331"></stop>
      </linearGradient>
      <clipPath id="clip0">
        <path fill="#fff" d="M0 0h140.549v140H0z"></path>
      </clipPath>
    </defs>
  </symbol>
  <symbol fill="none" xmlns="http://www.w3.org/2000/svg" viewBox="0 0 132 98" id="logos_sass">
    <path d="M113.582 56.407c-4.592.024-8.583 1.119-11.925 2.737-1.227-2.404-2.453-4.545-2.669-6.116-.24-1.833-.529-2.952-.24-5.141.288-2.19 1.586-5.308 1.562-5.546-.024-.238-.289-1.357-2.933-1.38-2.645-.024-4.93.5-5.194 1.19-.264.69-.769 2.26-1.106 3.879-.456 2.38-5.289 10.877-8.054 15.328-.89-1.737-1.659-3.261-1.828-4.475-.24-1.832-.529-2.951-.24-5.14.289-2.19 1.587-5.308 1.563-5.546-.024-.238-.289-1.357-2.933-1.38-2.645-.025-4.93.5-5.194 1.19-.264.69-.553 2.308-1.106 3.879-.553 1.571-6.973 15.756-8.656 19.421a108.997 108.997 0 01-2.14 4.404s-.024.071-.096.19a60.25 60.25 0 01-.72 1.357v.023c-.362.643-.746 1.238-.939 1.238-.144 0-.409-1.714.048-4.046.962-4.927 3.246-12.59 3.222-12.852 0-.143.433-1.476-1.49-2.167-1.876-.69-2.549.453-2.718.453-.168 0-.288.404-.288.404s2.092-8.615-3.991-8.615c-3.799 0-9.04 4.117-11.637 7.83-2.952 1.59-5.902 3.185-8.849 4.784-1.417.785-2.884 1.571-4.255 2.309-.096-.095-.192-.215-.289-.31C23.13 56.526 9.522 51.03 10.098 40.58c.217-3.808 1.54-13.805 26.136-25.943 20.244-9.878 36.354-7.14 39.143-1.071 3.991 8.664-8.631 24.753-29.55 27.085-7.982.88-12.166-2.166-13.224-3.308-1.106-1.19-1.274-1.262-1.683-1.024-.673.358-.24 1.429 0 2.047.625 1.618 3.198 4.475 7.55 5.88 3.847 1.236 13.2 1.927 24.524-2.405 12.671-4.855 22.578-18.35 19.668-29.656C79.752.713 60.518-3.07 42.317 3.331c-10.82 3.809-22.553 9.806-30.992 17.613C1.298 30.226-.29 38.294.36 41.674 2.693 53.67 19.404 61.478 26.087 67.26c-.336.19-.65.358-.913.5-3.343 1.643-16.086 8.235-19.26 15.209-3.606 7.902.578 13.567 3.343 14.328 8.584 2.356 17.408-1.88 22.144-8.878 4.737-6.997 4.16-16.09 1.972-20.254-.024-.047-.048-.096-.097-.143.866-.5 1.755-1.023 2.621-1.523a128.3 128.3 0 014.833-2.69c-.818 2.214-1.419 4.856-1.707 8.664-.36 4.475 1.49 10.282 3.919 12.566 1.082 1 2.356 1.024 3.174 1.024 2.837 0 4.111-2.332 5.53-5.093 1.731-3.38 3.294-7.307 3.294-7.307s-1.948 10.615 3.342 10.615c1.923 0 3.87-2.475 4.737-3.737v.024s.048-.072.144-.238c.192-.31.313-.5.313-.5v-.047c.769-1.333 2.5-4.356 5.073-9.378 3.318-6.474 6.516-14.566 6.516-14.566s.288 1.976 1.274 5.26c.577 1.928 1.779 4.046 2.74 6.093a39.39 39.39 0 01-1.25 1.666l.025.024c-.626.809-1.299 1.69-2.044 2.547-2.621 3.094-5.746 6.64-6.18 7.663-.505 1.214-.384 2.095.578 2.81.697.523 1.947.594 3.222.523 2.356-.167 4.015-.738 4.832-1.095 1.275-.452 2.765-1.143 4.16-2.166 2.573-1.88 4.135-4.57 3.991-8.116-.072-1.952-.721-3.904-1.515-5.736.24-.333.457-.666.698-1 4.063-5.879 7.213-12.329 7.213-12.329s.289 1.975 1.274 5.26c.481 1.666 1.467 3.475 2.332 5.236-3.823 3.071-6.18 6.64-7.02 8.974-1.515 4.331-.337 6.283 1.899 6.735 1.01.214 2.452-.262 3.51-.714a16.036 16.036 0 004.449-2.261c2.573-1.88 5.049-4.499 4.904-8.044-.072-1.619-.505-3.214-1.106-4.761 3.246-1.332 7.43-2.07 12.767-1.452 11.445 1.333 13.705 8.402 13.272 11.377-.432 2.975-2.837 4.594-3.63 5.093-.794.5-1.058.667-.986 1.024.096.523.481.5 1.154.404.938-.166 6.012-2.403 6.228-7.878.361-6.997-6.372-14.637-18.274-14.566zM25.294 85.874c-3.8 4.093-9.088 5.64-11.373 4.332-2.452-1.405-1.49-7.45 3.174-11.782 2.837-2.642 6.492-5.094 8.92-6.593.553-.333 1.37-.809 2.357-1.404.168-.095.264-.143.264-.143l.577-.357c1.707 6.188.072 11.639-3.919 15.947zm27.65-18.613c-1.322 3.19-4.087 11.354-5.77 10.901-1.443-.38-2.333-6.569-.289-12.686 1.034-3.07 3.222-6.735 4.497-8.163 2.067-2.285 4.351-3.047 4.904-2.118.698 1.213-2.524 10.067-3.342 12.066zm22.818 10.806c-.553.286-1.082.476-1.323.333-.168-.095.241-.476.241-.476s2.861-3.046 3.99-4.427c.65-.809 1.42-1.76 2.237-2.832v.31c0 3.641-3.559 6.093-5.146 7.092zm17.6-3.975c-.41-.285-.337-1.237 1.033-4.213.53-1.166 1.78-3.117 3.92-4.998.24.762.409 1.5.384 2.19-.024 4.594-3.341 6.307-5.337 7.021z" fill="#CD6799"></path>
  </symbol>
  <symbol fill="none" xmlns="http://www.w3.org/2000/svg" viewBox="0 0 94 105" id="logos_webpack">
    <path d="M47 .018l47 26.215v52.449l-47 26.215L0 78.682V26.233L47 .018z" fill="#fff"></path>
    <path d="M85.61 76.862l-37.05 20.69v-16.09l23.093-12.54 13.958 7.94zm2.537-2.256V31.375l-13.55 7.712v27.807l13.55 7.712zm-79.9 2.256l37.05 20.672v-16.09l-23.092-12.52-13.958 7.94zm-2.536-2.256V31.375l13.55 7.712v27.807l-13.55 7.712zm1.579-46.03L45.297 7.38v15.565L20.947 36.15l-.196.105L7.29 28.576zm79.26 0L48.56 7.38v15.565l24.334 13.22.195.106 13.462-7.695z" fill="#8ED6FB"></path>
    <path d="M45.297 77.79L22.524 65.424V40.958l22.773 12.96v23.871zm3.264 0l22.773-12.348V40.958L48.56 53.918v23.871zM24.05 38.124l22.88-12.4 22.86 12.4-22.86 13.012-22.88-13.012z" fill="#1C78C0"></path>
  </symbol>
  <symbol fill="none" xmlns="http://www.w3.org/2000/svg" viewBox="0 0 140 140" id="ri_vuejs-fill">
    <path d="M5.833 17.5h23.334L70 87.5l40.833-70h23.334L70 128.333 5.833 17.5zm50.558 0L70 40.833 83.61 17.5h23.537L70 81.667 32.853 17.5h23.538z" fill="#43C267"></path>
  </symbol>
  <symbol fill="none" xmlns="http://www.w3.org/2000/svg" viewBox="0 0 40 40" id="ant-design_facebook-filled">
    <path d="M34.375 4.375H5.625a1.25 1.25 0 00-1.25 1.25v28.75c0 .691.559 1.25 1.25 1.25h28.75a1.25 1.25 0 001.25-1.25V5.625a1.25 1.25 0 00-1.25-1.25zm-3.61 9.121H28.27c-1.957 0-2.336.93-2.336 2.297v3.012h4.671l-.609 4.715h-4.062v12.105h-4.872V23.523h-4.074v-4.718h4.075v-3.477c0-4.035 2.464-6.234 6.066-6.234 1.726 0 3.207.129 3.64.187v4.215h-.003z" fill="#3B5998"></path>
  </symbol>
  <symbol fill="none" xmlns="http://www.w3.org/2000/svg" viewBox="0 0 40 40" id="ant-design_linkedin-filled">
    <path d="M34.375 4.375H5.625a1.25 1.25 0 00-1.25 1.25v28.75c0 .691.559 1.25 1.25 1.25h28.75a1.25 1.25 0 001.25-1.25V5.625a1.25 1.25 0 00-1.25-1.25zm-20.73 26.629H9.008V16.09h4.637v14.914zM11.328 14.05a2.688 2.688 0 110-5.375 2.688 2.688 0 010 5.375zm19.676 16.953H26.37V23.75c0-1.73-.031-3.953-2.41-3.953-2.41 0-2.781 1.883-2.781 3.828v7.379h-4.63V16.09h4.446v2.039h.063c.617-1.172 2.128-2.41 4.386-2.41 4.696 0 5.559 3.09 5.559 7.105v8.18z" fill="#0E76A8"></path>
  </symbol>
  <symbol fill="none" xmlns="http://www.w3.org/2000/svg" viewBox="0 0 140 140" id="dashicons_database">
    <path d="M70 42c27.3 0 49-6.3 49-14S97.3 14 70 14s-49 6.3-49 14 21.7 14 49 14zm0 63c-27.3 0-49-6.3-49-14v21c0 7.7 21.7 14 49 14s49-6.3 49-14V91c0 7.7-21.7 14-49 14zm0-28c-27.3 0-49-6.3-49-14v21c0 7.7 21.7 14 49 14s49-6.3 49-14V63c0 7.7-21.7 14-49 14zm0-28c-27.3 0-49-6.3-49-14v21c0 7.7 21.7 14 49 14s49-6.3 49-14V35c0 7.7-21.7 14-49 14z" fill="#F1F3F4"></path>
  </symbol>
  <symbol fill="none" xmlns="http://www.w3.org/2000/svg" viewBox="0 0 100 112" id="fa-brands_git-alt">
    <g clip-path="url(#clip0)">
      <path d="M98.114 51.636L54.464 8.848a6.512 6.512 0 00-4.554-1.847 6.512 6.512 0 00-4.555 1.847l-9.076 8.888 11.5 11.27c6.04-2 11.759 3.669 9.685 9.555L68.55 49.424c7.64-2.58 13.656 6.782 7.917 12.401-5.912 5.795-15.671-.628-12.5-8.168L53.62 43.531v26.655c5.648 2.743 4.97 9.155 2.027 12.031a7.745 7.745 0 01-5.418 2.199 7.745 7.745 0 01-5.419-2.199c-3.922-3.85-2.47-10.261 2.511-12.25V43.061c-4.642-1.862-5.49-6.724-4.16-9.844L31.824 22.094 1.886 51.437A6.25 6.25 0 000 55.9a6.25 6.25 0 001.886 4.463l43.663 42.788a6.509 6.509 0 004.554 1.847 6.509 6.509 0 004.553-1.847l43.458-42.589A6.25 6.25 0 00100 56.1a6.25 6.25 0 00-1.886-4.463z" fill="#FB4F28"></path>
    </g>
    <defs>
      <clipPath id="clip0">
        <path fill="#fff" d="M0 0h100v112H0z"></path>
      </clipPath>
    </defs>
  </symbol>
  <symbol fill="none" xmlns="http://www.w3.org/2000/svg" viewBox="0 0 100 100" id="grommet-icons_figma">
    <path d="M66.667 66.667c9.204 0 16.666-7.462 16.666-16.667 0-9.205-7.462-16.667-16.666-16.667C57.462 33.333 50 40.795 50 50c0 9.205 7.462 16.667 16.667 16.667z" fill="#19BCFE"></path>
    <path fill-rule="evenodd" clip-rule="evenodd" d="M33.333 100A16.667 16.667 0 0050 83.333V66.667H33.333a16.667 16.667 0 000 33.333z" fill="#09CF83"></path>
    <path fill-rule="evenodd" clip-rule="evenodd" d="M33.333 66.667H50V33.333H33.333a16.667 16.667 0 100 33.334z" fill="#A259FF"></path>
    <path fill-rule="evenodd" clip-rule="evenodd" d="M33.333 33.333H50V0H33.333a16.667 16.667 0 100 33.333z" fill="#F24E1E"></path>
    <path fill-rule="evenodd" clip-rule="evenodd" d="M66.667 33.333H50V0h16.667a16.667 16.667 0 010 33.333z" fill="#FF7262"></path>
  </symbol>
  <symbol xmlns="http://www.w3.org/2000/svg" viewBox="0 0 400 152" id="LOGO-ICBR">
    <defs>
      <clipPath id="a" clipPathUnits="userSpaceOnUse">
        <path fill="#00a650" stroke="#231f20" stroke-width=".3" d="M673.32 250H729v110.5h-55.68z"></path>
      </clipPath>
    </defs>
    <g transform="translate(-140.22 -1256.076) scale(.86669)">
      <circle r="58.863" cy="1975.863" cx="-32.895" fill="#ecc313" paint-order="markers fill stroke"></circle>
      <path transform="translate(-2416.1 905.649) scale(3.61493)" clip-path="url(#a)" d="M677.996 365.914c-.95-1.538.351-2.53 1.635-1.246.718.718.735 1.277.052 1.7-.56.346-1.319.141-1.687-.454zm-43.219-19.612c-2.163-.873-1.388-5.509 3.212-19.226l4.463-13.304-2.998-2.523c-4.198-3.533-5.927-7.374-5.927-13.17 0-5.83 1.28-9.685 4.317-12.997 2.7-2.946 9.284-6.067 12.86-6.096 2.559-.021 2.887-.668 7.5-14.772 4.506-13.78 4.987-14.75 7.323-14.75 3.818 0 3.59 3.296-1.258 18.18l-4.293 13.178 3.27 2.609c4.474 3.57 6.567 8.043 6.567 14.033 0 10.18-7.928 18.5-17.63 18.5h-3.213l-4.328 13.25c-4.222 12.924-6.412 17.831-7.888 17.671-.4-.043-1.29-.306-1.977-.583zm-31.25-28.402c-18.424-12.313-22-15.548-22-19.905 0-5.902 2.002-7.886 20.315-20.132 18.344-12.267 21.857-13.704 22.497-9.204.263 1.847-2.546 4.105-17.75 14.263-13.083 8.742-18.062 12.605-18.062 14.013 0 2.37 2.478 4.35 21 16.79 12.203 8.196 14.5 10.135 14.5 12.239 0 4.661-3.545 3.266-20.5-8.064zm74.31 9.428c-.346-.9-.178-2.362.372-3.25.55-.888 8.067-6.376 16.706-12.196 18.613-12.542 19.276-13.125 18.034-15.868-.507-1.119-8.572-7.121-17.922-13.338-14.267-9.487-17-11.697-17-13.745 0-1.573.653-2.565 1.838-2.793 2.582-.498 38.071 23.234 39.529 26.433 1.59 3.491 1.41 7.554-.456 10.216-1.937 2.765-36.748 26.177-38.922 26.177-.854 0-1.834-.736-2.18-1.636z" fill="#fff"></path>
      <path d="M-182.837 1960.186a7 7 0 00-7 7v23.145a7 7 0 1014 0v-23.145a7 7 0 00-7-7zm27.273 0a7 7 0 00-7 7v23.145a7 7 0 1014 0v-23.145c0-3.867-3.133-7-7-7zm27.273-9.793a7 7 0 00-7 7v42.73a7 7 0 1014 0v-42.73a7 7 0 00-7-7zm27.271-11.573a7 7 0 00-7 7v65.876a7 7 0 1014 0v-65.875c0-3.867-3.132-7-7-7zm27.275-20.474a7 7 0 00-7 7v106.824a7 7 0 1014 0v-106.824a7 7 0 00-7-7z" fill="#00587a" stroke="#00587a"></path>
      <path d="M21.333 1838.865c-5.243-1.962-11.085.698-13.047 5.942l-103.458 276.5c-1.962 5.244.698 11.085 5.942 13.048 5.244 1.962 11.085-.699 13.047-5.942l103.458-276.501c1.962-5.244-.698-11.085-5.942-13.047z" fill="#fff" stroke="#00587a" stroke-width="1.448"></path>
      <path d="M8.072 1921.906a7 7 0 00-7 7v99.703a7 7 0 1014 0v-99.703a7 7 0 00-7-7zm27.274 20.919a7 7 0 00-7 7v57.864a7 7 0 1014 0v-57.864a7 7 0 00-7-7zm27.273 8.904a7 7 0 00-7 7v40.059a7 7 0 1014 0v-40.06a7 7 0 00-7-7zm27.271 8.457a7 7 0 00-7 7v23.145a7 7 0 1014 0v-23.145a7 7 0 00-7-7zm27.273 0a7 7 0 00-7 7v23.145a7 7 0 1014 0v-23.145a7 7 0 00-7-7z" fill="#00587a" stroke="#00587a"></path>
      <path d="M677.996 365.914c-.95-1.538.351-2.53 1.635-1.246.718.718.735 1.277.052 1.7-.56.346-1.319.141-1.687-.454zm-43.219-19.612c-2.163-.873-1.388-5.509 3.212-19.226l4.463-13.304-2.998-2.523c-4.198-3.533-5.927-7.374-5.927-13.17 0-5.83 1.28-9.685 4.317-12.997 2.7-2.946 9.284-6.067 12.86-6.096 2.559-.021 2.887-.668 7.5-14.772 4.506-13.78 4.987-14.75 7.323-14.75 3.818 0 3.59 3.296-1.258 18.18l-4.293 13.178 3.27 2.609c4.474 3.57 6.567 8.043 6.567 14.033 0 10.18-7.928 18.5-17.63 18.5h-3.213l-4.328 13.25c-4.222 12.924-6.412 17.831-7.888 17.671-.4-.043-1.29-.306-1.977-.583zm-31.25-28.402c-18.424-12.313-22-15.548-22-19.905 0-5.902 2.002-7.886 20.315-20.132 18.344-12.267 21.857-13.704 22.497-9.204.263 1.847-2.546 4.105-17.75 14.263-13.083 8.742-18.062 12.605-18.062 14.013 0 2.37 2.478 4.35 21 16.79 12.203 8.196 14.5 10.135 14.5 12.239 0 4.661-3.545 3.266-20.5-8.064zm74.31 9.428c-.346-.9-.178-2.362.372-3.25.55-.888 8.067-6.376 16.706-12.196 18.613-12.542 19.276-13.125 18.034-15.868-.507-1.119-8.572-7.121-17.922-13.338-14.267-9.487-17-11.697-17-13.745 0-1.573.653-2.565 1.838-2.793 2.582-.498 38.071 23.234 39.529 26.433 1.59 3.491 1.41 7.554-.456 10.216-1.937 2.765-36.748 26.177-38.922 26.177-.854 0-1.834-.736-2.18-1.636z" clip-path="url(#a)" transform="matrix(-3.61493 0 0 3.61493 2353.36 902.649)" fill="#fff"></path>
    </g><text y="504.732" x="104.676" font-weight="400" font-size="156.115" font-family="sans-serif" stroke-width="3.903">
      <tspan y="504.732" x="104.676" font-weight="700" font-family="Cambria">
        <tspan fill="#fff">Iván</tspan>
        <tspan fill="#00587a">Bazaldúa</tspan>
      </tspan>
    </text>
  </symbol>
  <symbol fill="none" xmlns="http://www.w3.org/2000/svg" viewBox="0 0 130 140" id="logos_angular-icon">
    <path d="M.05 23.43L63.939.36l65.607 22.661-10.623 85.673-54.984 30.865-54.125-30.455L.051 23.43z" fill="#E23237"></path>
    <path d="M129.545 23.02L63.938.36v139.199l54.984-30.814 10.623-85.724z" fill="#B52E31"></path>
    <path d="M64.039 16.612l-39.81 89.774 14.872-.256 7.992-20.252h35.712l8.751 20.508 14.214.256-41.731-90.03zm.101 28.762L77.595 73.88H52.303L64.14 45.374z" fill="#fff"></path>
  </symbol>
  <symbol fill="none" xmlns="http://www.w3.org/2000/svg" viewBox="0 0 73 105" id="logos_css-3">
    <path d="M36.456 104.735L6.747 96.323l-6.62-75.74h72.746L66.246 96.31l-29.79 8.424z" fill="#264DE4"></path>
    <path d="M60.572 91.489l5.663-64.713H36.5v71.52l24.072-6.807z" fill="#2965F1"></path>
    <path d="M15.304 54.867l.816 9.289H36.5v-9.29H15.304zm-1.64-18.802l.828 9.29H36.5v-9.29H13.664zM36.5 78.991l-.04.011-10.142-2.793-.649-7.409h-9.142l1.276 14.586 18.655 5.282.042-.012v-9.665z" fill="#EBEBEB"></path>
    <path d="M17.247 0h11.03v4.705H21.86V9.41h6.418v4.704h-11.03V0zm13.236 0h11.03v4.091h-6.417v.818h6.418v9.41h-11.03v-4.296H36.9v-.818h-6.418V0zM43.72 0h11.03v4.091h-6.417v.818h6.417v9.41H43.72v-4.296h6.417v-.818H43.72V0z" fill="#000"></path>
    <path d="M57.638 54.867l1.644-18.802H36.469v9.29H49.3l-.828 9.512H36.469v9.289h11.214l-1.057 12.047-10.158 2.796v9.664l18.67-5.277.137-1.57 2.14-24.455.223-2.494z" fill="#fff"></path>
  </symbol>
  <symbol fill="none" xmlns="http://www.w3.org/2000/svg" viewBox="0 0 110 140" id="logos_django">
    <g clip-path="url(#clip0)" fill="#2BA977">
      <path d="M49.294 0h22.88v104.867c-11.72 2.217-20.347 3.089-29.682 3.089C14.547 107.927 0 95.443 0 71.466 0 48.362 15.43 33.37 39.34 33.37c3.711 0 6.538.292 9.954 1.167V0zm.802 53.435c-2.68-.875-4.888-1.167-7.715-1.167-11.573 0-18.257 7.059-18.257 19.43 0 12.044 6.39 18.694 18.11 18.694 2.532 0 4.593-.142 7.861-.58V53.435z"></path>
      <path d="M109.59 36.185v52.506c0 18.082-1.355 26.777-5.33 34.274-3.711 7.208-8.599 11.752-18.699 16.772l-21.23-10.005c10.1-4.694 14.987-8.841 18.109-15.171 3.268-6.472 4.299-13.969 4.299-33.688V36.186h22.851zM84.433 0h22.88v23.248h-22.88V0z"></path>
    </g>
    <defs>
      <clipPath id="clip0">
        <path fill="#fff" d="M0 0h109.939v140H0z"></path>
      </clipPath>
    </defs>
  </symbol>
  <symbol fill="none" xmlns="http://www.w3.org/2000/svg" viewBox="0 0 74 103" id="logos_html-5">
    <path d="M73.871 20.19l-6.718 74.286-30.198 8.264L6.84 94.488.129 20.19H73.87z" fill="#E44D26"></path>
    <path d="M37 96.423l24.402-6.677 5.74-63.48H37v70.157z" fill="#F16529"></path>
    <path d="M23.94 44.49H37v-9.112H13.851l.22 2.445 2.27 25.11h20.66v-9.112H24.783l-.844-9.33zm2.08 23h-9.267l1.294 14.308 18.91 5.18.043-.01v-9.481l-.04.01-10.282-2.74-.657-7.267z" fill="#EBEBEB"></path>
    <path d="M6.99 0h4.691v4.575h4.292V0h4.691v13.854h-4.691V9.215h-4.292v4.64H6.99V0zm19.844 4.594h-4.13V0h12.954v4.594h-4.132v9.26h-4.692v-9.26zM37.714 0h4.892l3.009 4.868L48.62 0h4.894v13.854h-4.672V6.987l-3.228 4.927h-.081l-3.23-4.927v6.867h-4.59V0zM55.85 0h4.693v9.275h6.597v4.58H55.85V0z" fill="#000"></path>
    <path d="M36.968 62.934h11.368L47.264 74.75l-10.296 2.744v9.48l18.926-5.178.138-1.54 2.17-23.989.225-2.447H36.968v9.113zm0-18.466v.022h22.3l.184-2.048.421-4.62.22-2.444H36.969v9.09z" fill="#fff"></path>
  </symbol>
  <symbol fill="none" xmlns="http://www.w3.org/2000/svg" viewBox="0 0 92 98" id="logos_javascript">
    <path d="M0 0h92v98H0V0z" fill="#F7DF1E"></path>
    <path d="M24.19 81.896l7.04-4.539c1.359 2.566 2.594 4.736 5.558 4.736 2.84 0 4.632-1.184 4.632-5.788V44.992h8.646v31.443c0 9.539-5.25 13.88-12.907 13.88-6.917 0-10.931-3.815-12.97-8.42m30.573-.986l7.04-4.342c1.853 3.224 4.261 5.592 8.522 5.592 3.583 0 5.867-1.908 5.867-4.54 0-3.157-2.347-4.275-6.3-6.117l-2.16-.987c-6.238-2.828-10.375-6.38-10.375-13.88 0-6.907 4.94-12.17 12.66-12.17 5.496 0 9.448 2.04 12.289 7.368l-6.732 4.605c-1.482-2.829-3.087-3.947-5.558-3.947-2.532 0-4.138 1.71-4.138 3.947 0 2.763 1.606 3.882 5.311 5.592l2.162.987c7.349 3.355 11.486 6.776 11.486 14.471 0 8.29-6.113 12.829-14.327 12.829-8.028 0-13.216-4.079-15.747-9.408" fill="#000"></path>
  </symbol>
</svg>